<svg width="68" height="68" viewBox="0 0 68 68" fill="none" xmlns="http://www.w3.org/2000/svg">
<path d="M64.7445 19.483C64.2628 19.483 63.7928 19.2436 63.546 18.8191C57.6596 8.76193 46.3331 2.52518 33.9962 2.52518C21.6594 2.52518 10.3329 8.77281 4.44645 18.83C4.08222 19.4395 3.25976 19.6681 2.60179 19.3415C1.94383 19.0041 1.69709 18.2422 2.04957 17.6327C8.41776 6.7592 20.6607 0 33.9962 0C47.3318 0 59.5747 6.74832 65.9429 17.6218C66.3072 18.2313 66.0604 19.0041 65.3907 19.3307C65.191 19.4395 64.9677 19.483 64.7445 19.483Z" fill="#F8C84A"/>
<path d="M33.9993 68.0003C26.5216 68.0003 19.3379 65.9356 13.2241 62.0322C7.25135 58.2149 2.71302 52.9351 0.0911324 46.7412C-0.179286 46.0961 0.173433 45.3756 0.867115 45.1283C1.57256 44.8809 2.3603 45.2035 2.63072 45.838C7.60407 57.6019 20.2079 65.5055 33.9993 65.5055C47.7906 65.5055 60.3945 57.6019 65.3678 45.8487C65.6383 45.2035 66.426 44.8917 67.1314 45.139C67.8369 45.3864 68.1778 46.1068 67.9074 46.752C65.2855 52.9458 60.7472 58.2256 54.7745 62.043C48.6724 65.9356 41.4769 68.0003 33.9993 68.0003Z" fill="#F8C84A"/>
<path d="M53.749 42.2231C52.921 41.5779 51.9 41.1723 50.8169 41.0583C49.1589 40.476 46.1372 40.9244 44.7865 39.8936L38.0838 34.6521C40.907 32.4158 43.4805 30.4299 48.141 26.8249C49.1205 26.6036 50.5481 26.7783 51.4187 26.6444C54.1075 26.2309 56.2073 24.1052 56.1944 22.0727C53.3328 23.2375 53.9026 22.9754 52.3534 23.6975C50.5289 23.2782 49.2421 22.0261 49.8311 19.6908C51.3995 18.8987 52.2253 18.526 53.8578 17.7165C52.5774 16.9361 50.0551 16.4469 48.2178 17.4777C44.684 19.5044 45.9516 22.3115 44.7865 23.1967L34.1979 31.7053L23.7694 23.5636C22.5851 22.69 23.8142 19.8597 20.2228 17.8621C18.3407 16.8254 15.7928 17.3438 14.5572 18.1475C16.1897 18.9395 17.0219 19.3122 18.6031 20.1683C19.2433 22.4978 17.963 23.7849 16.1193 24.245C14.57 23.5403 15.1462 23.8082 12.2782 22.6493C12.2462 24.6934 14.4164 26.7958 17.1371 27.1918C18.0014 27.3141 19.4482 27.1161 20.4533 27.3316C24.9857 30.7502 27.6105 32.6953 30.3376 34.8036L24.1983 39.7305C22.7899 40.7963 19.4994 40.3129 17.9438 41.0409C16.0872 41.9377 13.8338 43.8305 14.1091 45.962C15.4646 45.1902 16.8643 44.4845 18.3023 43.8479C19.2786 44.318 20.1809 44.9057 20.9846 45.5951C21.1191 47.0976 21.1191 47.0976 21.1575 48.6293C19.6915 49.334 18.1614 49.9979 16.7274 50.7317C17.7655 51.231 18.9325 51.4664 20.1053 51.4131C21.2781 51.3598 22.4134 51.0198 23.3917 50.4289C25.8308 49.0195 25.5363 45.9037 26.7846 43.7664L34.2171 37.7912C36.2913 39.3927 38.788 41.3437 42.2321 44.0518C43.5125 46.1658 43.2884 49.2932 45.6955 50.6793C45.7142 50.6933 45.7313 50.7089 45.7467 50.7259C47.0144 51.634 48.6124 52.0732 50.2207 51.9555C51.8291 51.8378 53.3293 51.1719 54.4212 50.0911C55.4152 48.9422 55.8978 47.4953 55.7733 46.0377C55.6488 44.5801 54.9262 43.2184 53.749 42.2231ZM46.3293 20.0984C46.1564 23.1967 47.9746 25.7068 50.8105 26.3707C47.0591 26.2134 45.4843 22.393 46.3293 20.0984ZM43.3909 26.3066C44.0311 25.8232 44.7481 25.6835 45.0553 25.9921C45.3626 26.3008 45.1258 26.9764 44.5176 27.4656L36.7522 33.6912L35.4719 32.6779L43.3909 26.3066ZM17.7453 26.8366C20.5877 26.1319 22.3738 23.5752 22.1561 20.4304C23.0524 22.7191 21.516 26.6444 17.7453 26.8366ZM25.1074 47.4296C25.1074 45.3214 22.8603 41.268 19.3458 41.2156C23.0652 40.8254 25.5619 44.0518 25.1074 47.4296ZM28.2122 40.5458C27.5721 41.035 26.8487 41.1748 26.535 40.8545C26.2213 40.5342 26.4773 39.8761 27.0855 39.3869L31.5988 35.7645C32.0149 36.0964 32.4566 36.4226 32.8791 36.7778L28.2122 40.5458ZM42.4434 41.1282C42.1297 41.4602 41.3743 41.3321 40.7533 40.8429L24.1087 27.8732C23.4685 27.3898 23.2316 26.7376 23.5389 26.3998C23.8462 26.062 24.6016 26.2134 25.2226 26.6968L41.8608 39.6082C42.4882 40.1207 42.7507 40.773 42.4434 41.1049V41.1282ZM50.0167 41.4252C46.2205 40.9069 43.2628 45.1699 44.2551 47.8314C42.5266 44.1158 45.6955 40.3012 50.0167 41.4252ZM53.0256 47.913L52.8399 48.8506L51.8476 49.1709L51.169 49.8989L50.1448 49.7242L49.1525 50.0503L48.3523 49.433L47.3216 49.2583L47.0015 48.3439L46.1756 47.7615L46.3677 46.8181L46.0092 45.9212L46.6878 45.1991L46.8798 44.2556L47.8721 43.9353L48.5507 43.2131L49.5878 43.382L50.5673 43.0617L51.3867 43.6849L52.4174 43.8596L52.7759 44.7565L53.5633 45.3738L53.3777 46.3056L53.7298 47.1792L53.0256 47.913Z" fill="white"/>
</svg>
