<svg width="68" height="68" viewBox="0 0 68 68" fill="none" xmlns="http://www.w3.org/2000/svg">
<path d="M64.7445 19.483C64.2628 19.483 63.7928 19.2436 63.546 18.8191C57.6596 8.76193 46.3331 2.52518 33.9962 2.52518C21.6594 2.52518 10.3329 8.77281 4.44645 18.83C4.08222 19.4395 3.25976 19.6681 2.60179 19.3415C1.94383 19.0041 1.69709 18.2422 2.04957 17.6327C8.41776 6.7592 20.6607 0 33.9962 0C47.3318 0 59.5747 6.74832 65.9429 17.6218C66.3072 18.2313 66.0604 19.0041 65.3907 19.3307C65.191 19.4395 64.9677 19.483 64.7445 19.483Z" fill="#F8C84A"/>
<path d="M33.9993 67.9998C26.5216 67.9998 19.3379 65.9352 13.2241 62.0318C7.25135 58.2144 2.71302 52.9346 0.0911324 46.7408C-0.179286 46.0956 0.173433 45.3751 0.867115 45.1278C1.57256 44.8805 2.3603 45.2031 2.63072 45.8375C7.60407 57.6015 20.2079 65.505 33.9993 65.505C47.7906 65.505 60.3945 57.6015 65.3678 45.8482C65.6383 45.2031 66.426 44.8912 67.1314 45.1385C67.8369 45.3859 68.1778 46.1063 67.9074 46.7515C65.2855 52.9453 60.7472 58.2251 54.7745 62.0425C48.6724 65.9352 41.4769 67.9998 33.9993 67.9998Z" fill="#F8C84A"/>
<path fill-rule="evenodd" clip-rule="evenodd" d="M24.9294 44.193C24.9317 44.4675 24.845 44.7365 24.6802 44.9658C24.5155 45.195 24.2801 45.3742 24.0041 45.4805C23.728 45.5868 23.4237 45.6154 23.1299 45.5628C22.836 45.5101 22.5659 45.3786 22.3537 45.1848C22.1416 44.9911 21.9971 44.7439 21.9385 44.4746C21.88 44.2054 21.91 43.9262 22.0249 43.6727C22.1397 43.4191 22.3342 43.2026 22.5835 43.0506C22.8328 42.8986 23.1258 42.8181 23.4252 42.8191C23.8217 42.8233 24.2008 42.9692 24.4817 43.2258C24.7626 43.4824 24.9232 43.8294 24.9294 44.193ZM23.4075 44.6582C23.5395 44.6611 23.6675 44.6161 23.7635 44.5331C23.8596 44.4501 23.9161 44.3356 23.9207 44.2146C23.9242 44.1235 23.8981 44.0336 23.8457 43.9561C23.7933 43.8787 23.7169 43.8173 23.6264 43.7797C23.5358 43.7421 23.4351 43.73 23.3371 43.7451C23.2391 43.7601 23.1481 43.8015 23.0758 43.864C23.0034 43.9265 22.953 44.0073 22.9309 44.0962C22.9087 44.185 22.9159 44.2779 22.9515 44.363C22.987 44.4481 23.0494 44.5216 23.1306 44.5742C23.2118 44.6267 23.3082 44.656 23.4075 44.6582Z" fill="white"/>
<path fill-rule="evenodd" clip-rule="evenodd" d="M26.9348 44.193C26.9348 44.8349 26.7272 45.4623 26.3383 45.996C25.9494 46.5297 25.3967 46.9457 24.75 47.1913C24.1033 47.4369 23.3917 47.5012 22.7052 47.376C22.0187 47.2508 21.3881 46.9417 20.8931 46.4878C20.3982 46.0339 20.0611 45.4557 19.9246 44.8261C19.788 44.1966 19.8581 43.5441 20.126 42.9511C20.3938 42.3581 20.8474 41.8512 21.4294 41.4946C22.0114 41.138 22.6957 40.9477 23.3957 40.9477C24.3343 40.9477 25.2345 41.2896 25.8982 41.8982C26.5619 42.5068 26.9348 43.3323 26.9348 44.193ZM20.9065 44.193C20.903 44.6485 21.0468 45.0947 21.3198 45.4752C21.5927 45.8558 21.9825 46.1536 22.44 46.3312C22.8974 46.5087 23.402 46.5578 23.8899 46.4725C24.3778 46.3872 24.8272 46.1712 25.1813 45.8517C25.5354 45.5323 25.7784 45.1238 25.8794 44.6779C25.9805 44.2319 25.9351 43.7685 25.7491 43.3461C25.563 42.9238 25.2447 42.5615 24.8342 42.305C24.4237 42.0485 23.9395 41.9093 23.4428 41.905C22.7759 41.9007 22.1343 42.1392 21.6588 42.5681C21.1833 42.997 20.9127 43.5814 20.9065 44.193Z" fill="white"/>
<path fill-rule="evenodd" clip-rule="evenodd" d="M47.0486 19.2744H34.7975C34.7975 19.1632 34.7985 19.0562 34.7995 18.9522C34.8019 18.702 34.8041 18.4689 34.7916 18.2359C34.7778 18.1519 34.7962 18.0662 34.8435 17.9933C34.8908 17.9203 34.9641 17.8646 35.0511 17.8356C35.4411 17.6559 35.7529 17.3599 35.9351 16.9962C36.1174 16.6325 36.1592 16.2227 36.0539 15.8343C35.9535 15.4326 35.705 15.0749 35.3504 14.8216C34.9958 14.5684 34.5567 14.4351 34.1074 14.4442H28.9226C28.4718 14.4312 28.03 14.5622 27.6728 14.8148C27.3157 15.0673 27.0652 15.4258 26.9643 15.8289C26.8618 16.2207 26.9068 16.6327 27.0921 16.998C27.2774 17.3634 27.592 17.6605 27.9847 17.841C28.0791 17.8897 28.2148 17.9816 28.2148 18.0628V19.2636H26.1798C25.4251 19.2716 24.6971 19.5207 24.1211 19.9679C23.5451 20.4151 23.1572 21.0325 23.0241 21.7138C22.962 22.1621 22.9384 22.6143 22.9533 23.066V24.6887H22.6171C22.3 24.6507 21.9776 24.681 21.6755 24.7771C21.3734 24.8733 21.0998 25.0327 20.8766 25.2427C20.6533 25.4526 20.4865 25.7074 20.3893 25.9868C20.2921 26.2662 20.2673 26.5625 20.3167 26.8522C20.34 27.1724 20.3326 27.4855 20.3249 27.8163C20.3208 27.9884 20.3167 28.1653 20.3167 28.3505H17.7096V33.1752H20.3108C20.3108 33.3424 20.3142 33.5052 20.3175 33.6649C20.324 33.9754 20.3303 34.2742 20.3108 34.5707C20.2296 35.0324 20.3329 35.5055 20.6016 35.9029C20.8704 36.3004 21.2865 36.5956 21.7736 36.7342C21.7293 36.8102 21.6844 36.8838 21.6401 36.9565C21.5486 37.1063 21.4598 37.2519 21.3843 37.4049C21.3361 37.5192 21.2629 37.6232 21.1693 37.7105C21.0756 37.7979 20.9634 37.8667 20.8397 37.9128C20.7159 37.9589 20.5831 37.9813 20.4496 37.9786C20.316 37.9759 20.1845 37.9482 20.0631 37.8972C19.9108 37.8383 19.7528 37.793 19.5912 37.7619C19.1797 37.7049 18.7591 37.7518 18.3746 37.8976C17.99 38.0434 17.6561 38.2826 17.4087 38.5895C17.0843 38.8634 16.8628 39.2244 16.7759 39.6208C16.689 40.0173 16.7412 40.4288 16.9251 40.7963C16.9823 40.9093 17.0124 41.0322 17.0131 41.1568C17.0138 41.2813 16.9852 41.4046 16.9292 41.5181C16.8732 41.6316 16.7911 41.7326 16.6886 41.8144C16.5861 41.8961 16.4655 41.9566 16.3352 41.9917C15.9995 42.1064 15.7033 42.3013 15.4773 42.5561C15.2512 42.8109 15.1035 43.1165 15.0493 43.4413C15.0255 43.6914 15.0255 43.943 15.0493 44.1931C15.0172 44.598 15.1308 45.0013 15.3726 45.3413C15.6145 45.6813 15.9713 45.9392 16.3883 46.0754C16.5101 46.1179 16.621 46.1828 16.7144 46.2661C16.8078 46.3495 16.8816 46.4494 16.9314 46.5598C16.9811 46.6703 17.0057 46.7889 17.0036 46.9083C17.0015 47.0278 16.9727 47.1456 16.9192 47.2545C16.7336 47.6438 16.6909 48.0778 16.7972 48.4914C16.9036 48.9049 17.1533 49.2756 17.509 49.5479C17.8063 49.8962 18.2217 50.1438 18.6895 50.2515C19.1574 50.3592 19.651 50.321 20.0925 50.1429C20.2156 50.0922 20.3489 50.0661 20.4838 50.0664C20.6186 50.0667 20.7519 50.0933 20.8746 50.1445C20.9974 50.1956 21.1069 50.2702 21.1958 50.3632C21.2847 50.4562 21.351 50.5654 21.3902 50.6838C21.5429 51.0423 21.8134 51.3484 22.1643 51.5597C22.5152 51.771 22.929 51.8769 23.3485 51.8629H23.844C24.2728 51.8811 24.6968 51.7735 25.0543 51.5556C25.4118 51.3377 25.6841 51.0209 25.8318 50.6513C25.8755 50.5357 25.9451 50.4297 26.0362 50.3403C26.1273 50.2509 26.2378 50.1799 26.3606 50.132C26.4834 50.0841 26.6158 50.0603 26.7492 50.0622C26.8827 50.0641 27.0142 50.0915 27.1353 50.1429C27.4777 50.2465 27.8401 50.2822 28.1986 50.2476C28.5571 50.2129 28.9035 50.1088 29.2148 49.942C29.5261 49.7753 29.7951 49.5497 30.004 49.2803C30.213 49.011 30.3571 48.7039 30.4267 48.3796C30.4397 48.0309 30.406 47.6822 30.3264 47.3411C30.3034 47.2421 30.2739 47.1446 30.2379 47.049H34.013C34.4647 47.0698 34.9105 46.9478 35.2759 46.7035C35.6414 46.4592 35.9044 46.1074 36.0211 45.7067C36.1378 45.306 36.101 44.8807 35.917 44.5019C35.7329 44.1231 35.4127 43.8136 35.0098 43.6252C34.9155 43.5765 34.7975 43.4791 34.7975 43.398V42.2188H47.2197C48.0301 42.2383 48.8195 41.9814 49.4352 41.4978C50.0508 41.0141 50.4489 40.3382 50.5524 39.6009C50.5937 39.2507 50.6055 38.8981 50.5877 38.5462V35.62C52.8587 35.3225 52.9294 35.263 53.2716 33.159H55.8315V28.3234H53.2303C53.287 27.9901 53.2637 27.6494 53.1618 27.3252C53.0599 27.0009 52.882 26.7011 52.6404 26.4465C52.3622 26.2243 52.0342 26.0607 51.6795 25.9673C51.3249 25.8738 50.9522 25.8528 50.5877 25.9057V22.5197C50.622 22.0855 50.5539 21.6495 50.3882 21.2416C50.2224 20.8336 49.9629 20.4631 49.6272 20.1552C49.2914 19.8474 48.8874 19.6094 48.4425 19.4574C47.9976 19.3054 47.5222 19.243 47.0486 19.2744ZM28.9885 39.605C29.0813 39.7479 29.1412 39.9066 29.1644 40.0715C29.129 40.1527 29.0818 40.2987 29.0406 40.4934C28.8353 40.9846 28.8432 41.5292 29.0627 42.0152C29.2821 42.5012 29.6964 42.8916 30.2203 43.1059C30.4331 43.174 30.6136 43.3078 30.7309 43.4844C30.8481 43.661 30.8949 43.8694 30.8632 44.0741C30.9007 44.2849 30.8556 44.5012 30.7357 44.6844C30.6158 44.8676 30.429 45.0059 30.2085 45.0747C29.6872 45.2826 29.2736 45.6669 29.0538 46.1476C28.834 46.6283 28.8251 47.1682 29.0288 47.6548C29.1302 47.8525 29.154 48.0764 29.0959 48.2884C29.0378 48.5003 28.9016 48.6874 28.7102 48.8177C28.5688 48.9781 28.372 49.0896 28.1522 49.1338C27.9324 49.1781 27.7028 49.1524 27.501 49.0611C26.9683 48.8694 26.3751 48.8751 25.8468 49.0769C25.3186 49.2788 24.8965 49.661 24.6698 50.1429C24.5908 50.3263 24.4462 50.4796 24.2598 50.5779C24.0733 50.6761 23.856 50.7135 23.6434 50.6838C23.4085 50.7215 23.1666 50.6798 22.9627 50.5664C22.7588 50.453 22.6066 50.2756 22.5345 50.0671C22.309 49.583 21.8861 49.199 21.356 48.9968C20.8259 48.7947 20.2307 48.7906 19.6973 48.9854C19.4878 49.0778 19.2495 49.0997 19.0242 49.0473C18.7988 48.9949 18.6007 48.8715 18.4646 48.6987C18.2889 48.5758 18.1644 48.4014 18.1118 48.2046C18.0592 48.0078 18.0817 47.8004 18.1755 47.6169C18.3866 47.127 18.3815 46.5809 18.1613 46.0943C17.9412 45.6078 17.5232 45.2188 16.9958 45.0098C16.7821 44.938 16.6028 44.7994 16.4895 44.6184C16.3763 44.4373 16.3362 44.2254 16.3765 44.02C16.3398 43.8099 16.3847 43.5947 16.5032 43.4119C16.6218 43.229 16.8066 43.0901 17.0253 43.0194C17.5461 42.8126 17.9596 42.4293 18.1795 41.9495C18.3993 41.4697 18.4085 40.9306 18.205 40.4447C18.1024 40.2472 18.0781 40.023 18.1362 39.8107C18.1943 39.5985 18.3313 39.4115 18.5235 39.2818C18.6614 39.1252 18.853 39.0159 19.0672 38.9717C19.2813 38.9276 19.5055 38.9511 19.7032 39.0384C20.236 39.2301 20.8292 39.2244 21.3574 39.0226C21.8857 38.8207 22.3078 38.4385 22.5345 37.9566C22.7528 37.4536 23.1362 37.3833 23.6434 37.3833C23.8526 37.3568 24.0653 37.3958 24.2473 37.494C24.4293 37.5921 24.5698 37.7437 24.6462 37.9242C24.7584 38.176 24.9242 38.4048 25.1339 38.5973C25.3436 38.7898 25.5929 38.9421 25.8674 39.0453C26.1419 39.1485 26.4361 39.2005 26.7328 39.1984C27.0294 39.1963 27.3227 39.1401 27.5954 39.033C27.7734 39.0013 27.9566 39.0035 28.1337 39.0392C28.3108 39.075 28.478 39.1436 28.625 39.2409C28.772 39.3383 28.8957 39.4622 28.9885 39.605ZM27.2195 37.0194C27.0121 37.3105 26.8934 37.6472 26.8758 37.9945C26.6481 37.9996 26.4245 37.9385 26.237 37.82C26.0495 37.7014 25.9076 37.5316 25.8318 37.3346C25.7285 37.0744 25.559 36.8405 25.3374 36.6524C25.1159 36.4643 24.8486 36.3273 24.5577 36.2529C24.5154 36.2489 24.4744 36.2371 24.4373 36.2182C24.4001 36.1992 24.3676 36.1735 24.3416 36.1426C24.3157 36.1117 24.2969 36.0763 24.2864 36.0385C24.2758 36.0008 24.2738 35.9614 24.2805 35.9229V22.2276C24.2832 21.7856 24.4664 21.3605 24.794 21.0361C25.1215 20.7118 25.5696 20.5116 26.05 20.4751C26.5099 20.4537 26.9697 20.4606 27.4466 20.4677C27.6915 20.4714 27.9409 20.4751 28.1971 20.4751V21.6435C28.1827 21.6928 28.1568 21.7387 28.1212 21.7779C28.0855 21.8172 28.041 21.8488 27.9906 21.8706C27.6578 22.0162 27.3779 22.2467 27.1843 22.5345C26.9908 22.8224 26.8918 23.1552 26.8994 23.4933C26.8944 23.8295 26.993 24.1603 27.184 24.4473C27.375 24.7344 27.6505 24.9662 27.9788 25.116C28.0398 25.1537 28.091 25.2034 28.1287 25.2613C28.1664 25.3193 28.1898 25.3842 28.1971 25.4513V28.8102C28.1887 28.877 28.1642 28.9412 28.1254 28.9983C28.0867 29.0553 28.0346 29.1038 27.9729 29.1402C27.6443 29.2891 27.3688 29.5209 27.1787 29.8083C26.9886 30.0957 26.8917 30.4268 26.8994 30.7628C26.8993 31.0919 26.9985 31.4145 27.1858 31.6952C27.3732 31.9758 27.6415 32.2035 27.9611 32.353C28.0267 32.3942 28.0818 32.4479 28.1226 32.5105C28.1633 32.573 28.1887 32.643 28.1971 32.7154V36.0365C28.1987 36.0934 28.1868 36.1499 28.1624 36.2021C28.138 36.2544 28.1015 36.3012 28.0555 36.3394C27.7156 36.4936 27.427 36.7284 27.2195 37.0194ZM49.296 38.8221C49.3078 40.1797 48.3876 41.2128 46.6535 40.9856L46.6417 20.5401C46.9511 20.4536 47.2786 20.4363 47.5969 20.4895C47.9151 20.5427 48.2149 20.6649 48.4711 20.8459C48.7274 21.0269 48.9328 21.2615 49.0701 21.5301C49.2074 21.7987 49.2727 22.0935 49.2606 22.3899C49.2606 27.8691 49.2606 33.3753 49.296 38.8221ZM34.7975 21.5082V20.5022H37.4046V40.9964H34.8093V39.8552C34.8239 39.8045 34.8505 39.7574 34.8872 39.7172C34.9239 39.677 34.9698 39.6447 35.0216 39.6226C35.351 39.4725 35.6281 39.2411 35.8219 38.9544C36.0156 38.6678 36.1183 38.3372 36.1183 37.9999C36.1183 37.6627 36.0156 37.3321 35.8219 37.0454C35.6281 36.7587 35.351 36.5273 35.0216 36.3773C34.9615 36.3387 34.9109 36.2889 34.8733 36.2311C34.8357 36.1732 34.8118 36.1088 34.8034 36.0419V32.683C34.8144 32.6163 34.8405 32.5524 34.8802 32.4956C34.9198 32.4388 34.972 32.3902 35.0334 32.353C35.3553 32.2012 35.6254 31.9709 35.8139 31.6875C36.0025 31.4041 36.1022 31.0786 36.1022 30.7466C36.1022 30.4146 36.0025 30.0891 35.8139 29.8057C35.6254 29.5223 35.3553 29.292 35.0334 29.1402C34.9696 29.0974 34.9158 29.0432 34.8753 28.9809C34.8348 28.9187 34.8083 28.8496 34.7975 28.7778V25.4946C34.7852 25.4108 34.8033 25.3256 34.8492 25.2523C34.8951 25.1789 34.966 25.1215 35.0511 25.0889C35.3713 24.9412 35.6405 24.7148 35.8286 24.4349C36.0166 24.1551 36.1162 23.8328 36.1162 23.5041C36.1162 23.1754 36.0166 22.8532 35.8286 22.5733C35.6405 22.2935 35.3713 22.0671 35.0511 21.9193C34.9649 21.8865 34.8932 21.8282 34.8472 21.7538C34.8013 21.6793 34.7838 21.5929 34.7975 21.5082ZM33.4467 21.6651H29.5478V18.0898H33.4467V21.6651ZM29.5596 25.3377H33.4585V28.9076H29.5596V25.3377ZM33.4585 32.5856V36.1555L29.5596 36.1609V32.5856H33.4585ZM22.9179 25.9489V35.5767H22.4637C21.8503 35.5713 21.6203 35.3442 21.6203 34.8033C21.6203 33.9324 21.6248 33.0616 21.6294 32.1908C21.6386 30.4491 21.6478 28.7075 21.6203 26.9658C21.6026 25.9003 22.0803 25.8408 22.9179 25.9489ZM51.1953 34.3706H50.6054L50.5759 27.1497C50.8272 27.1307 51.0797 27.1307 51.331 27.1497C51.4912 27.1674 51.6376 27.2417 51.7389 27.3569C51.8403 27.4721 51.8886 27.619 51.8736 27.7663V33.754C51.8779 33.8364 51.8632 33.9188 51.8306 33.9958C51.7979 34.0727 51.748 34.1425 51.684 34.2006C51.6201 34.2588 51.5435 34.3039 51.4593 34.3332C51.3752 34.3625 51.2852 34.3752 51.1953 34.3706ZM30.4747 40.1162C30.4988 40.0192 30.5235 39.9198 30.5506 39.8173H33.4585V43.4142H32.3201C32.2689 43.3998 32.2221 43.3747 32.1832 43.3409C32.1443 43.3071 32.1145 43.2656 32.096 43.2195C32.001 42.9375 31.8367 42.6792 31.6159 42.4644C31.395 42.2497 31.1234 42.0843 30.8219 41.9809C30.7007 41.9375 30.5902 41.8723 30.4969 41.7891C30.4036 41.7059 30.3295 41.6063 30.2789 41.4964C30.2283 41.3865 30.2023 41.2684 30.2023 41.149C30.2024 41.0297 30.2285 40.9116 30.2792 40.8017C30.3591 40.582 30.415 40.3567 30.4747 40.1162ZM45.2909 21.6651H38.7613V20.5022H45.2909V21.6651ZM45.2909 24.0829H38.7613V22.92H45.2909V24.0829ZM45.3027 26.4898H38.7613V25.3377H45.3027V26.4898ZM45.3027 27.7555V28.9184H38.7731V27.7555H45.3027ZM45.2909 31.3254H38.7613V30.1625H45.2909V31.3254ZM45.2909 33.7377H38.7613V32.5802H45.2909V33.7377ZM45.2909 36.1555H38.7613V34.998H45.2909V36.1555ZM38.779 37.4158H45.3086V38.5787H38.779V37.4158ZM45.2909 40.9856H38.7613V39.8227H45.2909V40.9856ZM28.9993 15.6558H31.5061C31.7855 15.6558 32.0643 15.6552 32.3428 15.6546C32.8993 15.6534 33.4548 15.6522 34.013 15.6558C34.5144 15.6558 34.7916 15.8884 34.7916 16.2562C34.7916 16.624 34.4967 16.862 34.013 16.862H28.9934C28.5097 16.862 28.2207 16.624 28.2207 16.2562C28.2207 15.8884 28.5097 15.6558 28.9993 15.6558ZM33.9717 24.1045H31.5061C31.2304 24.1045 30.9554 24.1051 30.6808 24.1057C30.1329 24.1069 29.5867 24.1081 29.0406 24.1045C28.5215 24.1045 28.2207 23.8827 28.2207 23.5041C28.2207 23.1255 28.5215 22.8983 29.0347 22.8983H33.9717C34.4908 22.8983 34.7916 23.1309 34.7916 23.5041C34.7916 23.8773 34.4908 24.1045 33.9717 24.1045ZM34.0189 31.3524H31.5061L29.0111 31.3362C28.5215 31.3308 28.2325 31.1252 28.2207 30.7466C28.2089 30.368 28.5097 30.13 29.0229 30.13H33.9953C34.5144 30.13 34.8093 30.3518 34.8211 30.7304C34.8329 31.109 34.5262 31.3524 34.0189 31.3524ZM28.4287 37.6732L28.3327 37.6105C28.5117 37.5069 28.7095 37.4336 28.9167 37.3941H34.0956C34.1851 37.3866 34.2754 37.3963 34.3606 37.4225C34.4459 37.4486 34.5243 37.4908 34.5908 37.5462C34.6574 37.6017 34.7106 37.6692 34.7472 37.7445C34.7838 37.8198 34.8029 37.9013 34.8034 37.9837C34.806 38.0658 34.79 38.1474 34.7562 38.2235C34.7224 38.2995 34.6717 38.3683 34.6073 38.4253C34.5429 38.4823 34.4662 38.5264 34.3821 38.5547C34.2981 38.5829 34.2085 38.5948 34.1192 38.5895H29.9902C29.861 38.5749 29.7386 38.5281 29.6363 38.4543C29.2461 38.2073 28.8611 37.9557 28.4287 37.6732ZM34.1192 45.8158H31.4825C31.61 45.6176 31.7291 45.4156 31.851 45.2085C31.9322 45.0707 32.0147 44.9307 32.1019 44.7881C32.1339 44.742 32.1762 44.7028 32.226 44.6729C32.2759 44.6431 32.3321 44.6233 32.3909 44.615H34.1192C34.2928 44.615 34.4593 44.6782 34.5821 44.7908C34.7049 44.9034 34.7739 45.0561 34.7739 45.2154C34.7739 45.3746 34.7049 45.5273 34.5821 45.6399C34.4593 45.7525 34.2928 45.8158 34.1192 45.8158ZM19.0308 31.9257V29.5567H20.2931V31.9257H19.0308ZM53.2421 29.5891H54.5102V31.9366L53.2421 31.9528V29.5891Z" fill="white"/>
</svg>
