<svg width="68" height="68" viewBox="0 0 68 68" fill="none" xmlns="http://www.w3.org/2000/svg">
<path d="M64.7445 19.483C64.2628 19.483 63.7928 19.2436 63.546 18.8191C57.6596 8.76193 46.3331 2.52518 33.9962 2.52518C21.6594 2.52518 10.3329 8.77281 4.44645 18.83C4.08222 19.4395 3.25976 19.6681 2.60179 19.3415C1.94383 19.0041 1.69709 18.2422 2.04957 17.6327C8.41776 6.7592 20.6607 0 33.9962 0C47.3318 0 59.5747 6.74832 65.9429 17.6218C66.3072 18.2313 66.0604 19.0041 65.3907 19.3307C65.191 19.4395 64.9677 19.483 64.7445 19.483Z" fill="#F8C84A"/>
<path d="M33.9993 67.9998C26.5216 67.9998 19.3379 65.9352 13.2241 62.0318C7.25135 58.2144 2.71302 52.9346 0.0911324 46.7408C-0.179286 46.0956 0.173433 45.3751 0.867115 45.1278C1.57256 44.8805 2.3603 45.2031 2.63072 45.8375C7.60407 57.6015 20.2079 65.505 33.9993 65.505C47.7906 65.505 60.3945 57.6015 65.3678 45.8482C65.6383 45.2031 66.426 44.8912 67.1314 45.1385C67.8369 45.3859 68.1778 46.1063 67.9074 46.7515C65.2855 52.9453 60.7472 58.2251 54.7745 62.0425C48.6724 65.9352 41.4769 67.9998 33.9993 67.9998Z" fill="#F8C84A"/>
<path fill-rule="evenodd" clip-rule="evenodd" d="M20.4544 31.0234H19.4838C19.1007 31.023 18.7216 30.953 18.3683 30.8174C18.1758 30.7465 18.0005 30.6412 17.8526 30.5078C17.7046 30.3744 17.5869 30.2155 17.5063 30.0401C17.1746 29.0872 17.1746 28.0632 17.5063 27.1103C17.632 26.793 17.8617 26.5192 18.1639 26.3264C18.4661 26.1337 18.826 26.0316 19.194 26.034C19.3073 26.0244 19.4212 26.0244 19.5345 26.034C20.9107 26.2732 22.3667 26.5323 23.7791 26.891C24.3885 27.0627 24.9161 27.4192 25.2754 27.9021C25.6347 28.3849 25.8044 28.9655 25.7566 29.5485C25.781 29.7383 25.759 29.9307 25.6923 30.1118C25.6256 30.2929 25.5158 30.4581 25.3709 30.5955C25.226 30.7328 25.0496 30.8389 24.8544 30.906C24.6593 30.9731 24.4504 30.9996 24.2427 30.9835H20.4544V31.0234ZM23.3518 28.9771C23.2394 28.8737 23.0954 28.8042 22.9389 28.7778C22.34 28.646 21.7164 28.5233 21.1007 28.4021L20.7151 28.3261L19.52 28.0869V28.9771H23.3518Z" fill="white"/>
<path fill-rule="evenodd" clip-rule="evenodd" d="M53.6198 53.8244H53.5691C53.074 53.6915 52.614 53.4667 52.2178 53.1638C51.8215 52.8609 51.4974 52.4865 51.2657 52.0638C50.8149 51.3915 50.7653 51.3366 50.709 51.2744C50.654 51.2136 50.5926 51.1459 50.1453 50.4894L48.4214 47.905C48.4214 47.8652 48.3779 47.8386 48.3634 47.832H48.2837C47.2926 48.0953 46.2661 48.2295 45.2342 48.2306C42.7825 48.2391 40.4052 47.4585 38.5165 46.0248C36.6277 44.5911 35.3471 42.595 34.8978 40.3844C34.7947 39.8201 34.7414 39.2491 34.7385 38.677V37.6605H24.518V38.4511C24.5276 39.166 24.2283 39.8553 23.6853 40.3683C23.1423 40.8812 22.3999 41.1761 21.6206 41.1883H18.7811C18.39 41.1883 18.0027 41.1171 17.6418 40.9788C17.2808 40.8405 16.9534 40.6379 16.6785 40.3827C16.4036 40.1274 16.1867 39.8247 16.0403 39.492C15.8939 39.1593 15.821 38.8032 15.8258 38.4445V35.8468C15.8225 35.7118 15.7772 35.5804 15.6954 35.4681C14.6494 34.227 14.0905 32.6984 14.1091 31.1298V27.2499C14.092 26.2318 14.3694 25.2277 14.9131 24.34H14.0294C13.4572 24.3728 12.8902 24.2225 12.4253 23.9148C11.9603 23.6071 11.6262 23.161 11.4797 22.6525V20.9052C11.6275 20.4581 11.9228 20.0641 12.325 19.7773C12.7271 19.4906 13.2163 19.3252 13.7252 19.3041H15.3405C16.2989 19.3556 17.1989 19.7434 17.854 20.387L18.4697 19.2044C18.8846 18.4187 19.2886 17.6456 19.69 16.8774C19.9402 16.3984 20.1895 15.9212 20.4399 15.4441C20.7639 14.7458 21.3095 14.1531 22.0059 13.7431C22.7022 13.3331 23.517 13.1249 24.3441 13.1454H41.1127C41.924 13.1292 42.7224 13.3331 43.408 13.7313C44.0935 14.1296 44.6356 14.7047 44.9662 15.3843C45.1063 15.6427 45.2474 15.901 45.3885 16.1594C45.8825 17.064 46.3771 17.9694 46.8278 18.8789L47.6246 20.3937C48.0204 20.0337 48.4912 19.7505 49.0089 19.561C49.5266 19.3715 50.0806 19.2796 50.6379 19.2908H51.5288C51.8569 19.2754 52.1849 19.3235 52.4914 19.4321C52.798 19.5407 53.0761 19.7073 53.3077 19.921C53.5394 20.1347 53.7194 20.3908 53.8359 20.6726C53.9525 20.9543 54.0031 21.2554 53.9843 21.5563V22.0612C54.0056 22.3655 53.9559 22.6705 53.8386 22.9558C53.7212 23.2411 53.539 23.5002 53.3039 23.7159C53.0688 23.9315 52.7863 24.0987 52.4752 24.2063C52.1641 24.3139 51.8316 24.3595 51.4998 24.34H50.5944C51.091 25.1318 51.3648 26.0245 51.3912 26.9377C51.3912 27.2626 51.3957 27.5937 51.4003 27.9363C51.4101 28.6585 51.4207 29.4318 51.3912 30.306C51.382 30.3791 51.398 30.4531 51.4369 30.5174C51.4759 30.5818 51.5359 30.6333 51.6085 30.6648C53.5281 31.9209 54.9298 33.7341 55.587 35.8113C56.2442 37.8885 56.1185 40.1082 55.2302 42.1118C54.7376 43.2152 54.039 44.2314 53.1658 45.1147C53.1658 45.1678 54.2813 46.7623 54.2813 46.7623L55.6718 48.7463C55.5814 48.6383 55.7365 48.9073 55.9607 49.296C56.3091 49.9002 56.8243 50.7937 56.8434 51.0099C56.884 51.4689 56.7966 51.9299 56.5896 52.3495C56.4074 52.7056 56.1359 53.017 55.7972 53.2584C55.4585 53.4997 55.0624 53.6641 54.6412 53.738L54.5108 53.8177L53.6198 53.8244ZM53.3518 51.2201C53.5981 51.5788 53.8444 51.7582 54.0762 51.7582C54.1776 51.756 54.276 51.7259 54.3587 51.6718L54.3643 51.6683C54.5053 51.58 54.8303 51.3765 54.3587 50.6686L51.4709 46.5032L50.493 47.0746L53.3518 51.2201ZM45.2922 30.7312C43.0541 30.7312 40.9077 31.5466 39.3252 32.9981C37.7426 34.4496 36.8536 36.4183 36.8536 38.471C36.8536 40.5238 37.7426 42.4924 39.3252 43.944C40.9077 45.3955 43.0541 46.2109 45.2922 46.2109C47.528 46.2163 49.6753 45.4104 51.2657 43.9691C52.8561 42.5278 53.7605 40.5681 53.7815 38.5176C53.7913 37.51 53.5838 36.5106 53.1711 35.5769C52.7584 34.6431 52.1486 33.7933 51.3767 33.0764C50.5886 32.3425 49.6494 31.7596 48.6135 31.3616C47.5777 30.9635 46.466 30.7583 45.3429 30.7578L45.2922 30.3857V30.7312ZM18.0713 37.1423V38.4113C18.0591 38.4912 18.0652 38.5726 18.089 38.6503C18.1128 38.728 18.1539 38.8003 18.2097 38.8627C18.2655 38.9251 18.3348 38.9762 18.4132 39.0129C18.4916 39.0495 18.5774 39.0709 18.6652 39.0756H21.693C21.845 39.0707 21.9893 39.0131 22.0968 38.9145C22.2043 38.8158 22.2671 38.6835 22.2725 38.5441C22.2908 38.252 22.2908 37.9592 22.2725 37.6672V37.5874H21.1063C20.7625 37.5921 20.4188 37.5744 20.0777 37.5343C19.4771 37.4564 18.8838 37.3365 18.3031 37.1755L18.0496 37.1157L18.0713 37.1423ZM22.0624 24.5592H17.6077C17.5203 24.5589 17.4347 24.582 17.3614 24.6257C16.7021 25.2713 16.3188 26.1135 16.2821 26.9975V31.4354C16.2921 32.0043 16.4254 32.5657 16.6741 33.0869C16.9228 33.6082 17.282 34.0788 17.7308 34.4716C18.0865 34.8127 18.5153 35.0827 18.9903 35.2645C19.4652 35.4463 19.976 35.536 20.4906 35.5279H20.7441C21.4685 35.488 22.1928 35.4748 23.1562 35.4748H35.1803C35.3759 35.0629 35.5497 34.6443 35.7308 34.2058H28.5526C28.3464 34.2119 28.1401 34.1986 27.9369 34.166C27.6841 34.1299 27.4554 34.0082 27.2958 33.8249C27.1362 33.6416 27.0573 33.4101 27.0749 33.1761C27.0623 32.936 27.146 32.7001 27.3102 32.5128C27.4743 32.3256 27.7076 32.1999 27.9658 32.1596C28.1031 32.1471 28.2414 32.1471 28.3787 32.1596H37.0129C37.1417 32.1469 37.2631 32.0982 37.3606 32.0201C37.5286 31.8493 37.7025 31.6838 37.8819 31.5237C37.8139 31.5611 37.7412 31.5918 37.6648 31.6148C37.4981 31.671 37.3207 31.6959 37.1433 31.6879L37.0274 31.3092V31.6879H28.3932C27.198 31.6879 27.0821 30.9239 27.0749 30.6847C27.0638 30.551 27.0839 30.4167 27.1338 30.2907C27.1838 30.1647 27.2625 30.0499 27.3646 29.9539C27.5002 29.834 27.662 29.7418 27.8393 29.6834C28.0166 29.625 28.2054 29.6017 28.3932 29.6151H37.1288C38.1139 29.6151 38.3457 30.1665 38.3892 30.4987C38.4354 30.7336 38.3876 30.9759 38.2545 31.181C38.2416 31.2008 38.228 31.2202 38.2137 31.239C38.7072 30.8321 39.2383 30.4642 39.8016 30.1399C39.7599 29.9921 39.7357 29.8407 39.7292 29.6881C39.6516 29.008 39.8537 28.3259 40.2959 27.7753C40.738 27.2248 41.3884 26.8455 42.1196 26.7118L44.5678 26.2201L45.5964 26.0208C45.7769 25.9821 45.9616 25.962 46.1469 25.961C46.4163 25.9583 46.6834 26.0052 46.9327 26.0989C47.1819 26.1926 47.4081 26.3312 47.5979 26.5065C47.7877 26.6818 47.9372 26.8903 48.0376 27.1195C48.138 27.3488 48.1872 27.5942 48.1823 27.8412V29.0371C48.4865 29.1434 48.798 29.243 49.1167 29.336V26.8114C49.0686 26.0582 48.759 25.3388 48.233 24.7585C48.18 24.6832 48.1052 24.6228 48.0169 24.5841C47.9287 24.5454 47.8305 24.5299 47.7332 24.5393H22.0624V24.5592ZM44.6475 28.4258L42.431 28.8577C42.3089 28.8797 42.196 28.9326 42.1051 29.0105L46.0238 28.7713V28.1535L44.6475 28.4258ZM46.3932 22.5794L45.6688 21.2906C44.7996 19.6097 43.9014 17.9289 42.9888 16.2547C42.8264 15.9333 42.5632 15.6637 42.2329 15.4803C41.9026 15.2968 41.5201 15.2079 41.1344 15.2249H24.3296C23.9302 15.2093 23.5354 15.3077 23.1995 15.5063C22.8635 15.705 22.6029 15.9943 22.4536 16.3344C21.6568 17.869 20.8456 19.4037 20.0343 20.9384L19.3679 22.2074L19.165 22.5728L46.3932 22.5794ZM16.0648 22.3403H16.6371V22.3004C16.4543 21.9818 16.1697 21.7219 15.8215 21.5557C15.4733 21.3895 15.078 21.3248 14.6886 21.3703H14.5003C14.2571 21.3655 14.0142 21.3856 13.7759 21.4301C13.7556 21.6511 13.7556 21.8734 13.7759 22.0944C13.7759 22.327 13.8194 22.3535 14.0729 22.3535H16.1011L16.0648 22.3403ZM48.827 22.2605H51.5433C51.5983 22.2702 51.6549 22.2702 51.7099 22.2605C51.6847 22.1287 51.6847 21.9938 51.7099 21.8619C51.7099 21.5497 51.7099 21.4699 51.6157 21.3969H50.79C50.4068 21.3514 50.0174 21.4088 49.6691 21.5621C49.3207 21.7154 49.0282 21.958 48.827 22.2605Z" fill="white"/>
<path d="M56.3579 49.7252C55.9435 49.1176 55.7393 48.827 55.6718 48.7463L56.3579 49.7252Z" fill="white"/>
</svg>
