<svg width="68" height="68" viewBox="0 0 68 68" fill="none" xmlns="http://www.w3.org/2000/svg">
<path d="M64.7445 19.483C64.2628 19.483 63.7928 19.2436 63.546 18.8191C57.6596 8.76193 46.3331 2.52518 33.9962 2.52518C21.6594 2.52518 10.3329 8.77281 4.44645 18.83C4.08222 19.4395 3.25976 19.6681 2.60179 19.3415C1.94383 19.0041 1.69709 18.2422 2.04957 17.6327C8.41776 6.7592 20.6607 0 33.9962 0C47.3318 0 59.5747 6.74832 65.9429 17.6218C66.3072 18.2313 66.0604 19.0041 65.3907 19.3307C65.191 19.4395 64.9677 19.483 64.7445 19.483Z" fill="#F8C84A"/>
<path d="M33.9993 67.9998C26.5216 67.9998 19.3379 65.9352 13.2241 62.0318C7.25135 58.2144 2.71302 52.9346 0.0911324 46.7408C-0.179286 46.0956 0.173433 45.3751 0.867115 45.1278C1.57256 44.8805 2.3603 45.2031 2.63072 45.8375C7.60407 57.6015 20.2079 65.505 33.9993 65.505C47.7906 65.505 60.3945 57.6015 65.3678 45.8482C65.6383 45.2031 66.426 44.8912 67.1314 45.1385C67.8369 45.3859 68.1778 46.1063 67.9074 46.7515C65.2855 52.9453 60.7472 58.2251 54.7745 62.0425C48.6724 65.9352 41.4769 67.9998 33.9993 67.9998Z" fill="#F8C84A"/>
<path fill-rule="evenodd" clip-rule="evenodd" d="M30.3953 26.9206V28.6675L29.8673 28.6558H23.6396C23.334 28.6519 23.0343 28.5779 22.7681 28.4404C20.6987 27.3254 18.6584 26.2015 16.6172 25.0772C15.7909 24.622 14.9644 24.1668 14.1358 23.7121C13.9819 23.6012 13.7968 23.5326 13.6021 23.514C13.4073 23.4955 13.2108 23.5278 13.0353 23.6072C12.8589 23.7012 12.7169 23.8411 12.6275 24.009C12.538 24.177 12.505 24.3655 12.5327 24.5506C12.5327 25.0649 12.5363 25.5793 12.5398 26.0937C12.5469 27.1224 12.5539 28.1512 12.5327 29.1799C12.5018 29.437 12.5578 29.6966 12.6932 29.9236C12.8286 30.1506 13.0368 30.3341 13.2897 30.4493C14.7912 31.2632 16.289 32.0858 17.787 32.9085C19.0435 33.5985 20.3001 34.2886 21.5594 34.9739C21.6778 35.0267 21.7768 35.1099 21.8446 35.2132C21.9123 35.3166 21.9459 35.4357 21.9411 35.5562V39.6323C21.9442 40.0882 22.0192 40.5412 22.1638 40.9775C22.7045 42.474 24.104 43.3067 25.9806 43.3067H39.4666C40.4709 43.3067 40.8401 43.3569 41.1287 43.2401C41.4213 43.1215 41.6308 42.8311 42.3355 42.1421C46.2498 38.3105 50.1472 34.4673 54.0276 30.6124C54.0591 30.5645 54.1012 30.5232 54.1511 30.491C54.201 30.4588 54.2577 30.4366 54.3176 30.4256C54.3775 30.4146 54.4392 30.4152 54.4988 30.4274C54.5584 30.4395 54.6146 30.4628 54.6637 30.4959C55.0167 30.6288 55.3168 30.8574 55.5238 31.1509C55.7307 31.4444 55.8346 31.7889 55.8215 32.138V33.885C55.829 34.095 55.9218 34.295 56.0818 34.4458C56.2418 34.5965 56.4575 34.6873 56.6866 34.7002C56.7999 34.7123 56.9146 34.7039 57.0243 34.6753C57.134 34.6467 57.2364 34.5986 57.3257 34.5336C57.4149 34.4687 57.4893 34.3882 57.5445 34.2969C57.5997 34.2056 57.6346 34.1052 57.6472 34.0014C57.7145 33.0076 57.6461 32.01 57.4436 31.0317C57.3189 30.6252 57.1066 30.2457 56.8193 29.9154C56.5321 29.5851 56.1755 29.3107 55.7708 29.1084C55.366 28.906 54.9211 28.7798 54.4622 28.7371C54.0034 28.6944 53.5399 28.736 53.0989 28.8596C48.9131 29.8806 44.7274 30.9055 40.5416 31.9342C40.406 31.9802 40.2579 31.9859 40.1185 31.9503C39.9792 31.9148 39.8557 31.8398 39.7655 31.7362C39.3172 31.3176 38.8688 30.9079 38.4217 30.4994C37.911 30.0327 37.402 29.5676 36.8966 29.0926C36.7605 28.9557 36.5929 28.8481 36.4059 28.7776C36.2189 28.7071 36.0171 28.6755 35.8152 28.685H32.3228V26.938H34.9246C35.7261 26.9322 36.0696 26.6119 36.0696 25.8899V23.0191C36.0696 22.0117 35.7834 21.7613 34.6447 21.7613H27.6345C27.5088 21.7523 27.3824 21.7676 27.2636 21.8062C27.1448 21.8449 27.0362 21.9061 26.945 21.9858C26.8537 22.0654 26.7819 22.1618 26.7341 22.2686C26.6863 22.3755 26.6636 22.4903 26.6676 22.6057V26.0995C26.6625 26.2042 26.6803 26.3088 26.7199 26.407C26.7596 26.5053 26.8203 26.5954 26.8986 26.6719C26.9768 26.7484 27.071 26.8098 27.1755 26.8525C27.28 26.8952 27.3928 26.9183 27.5073 26.9206C27.8654 26.938 28.2242 26.938 28.5823 26.9206H30.3953ZM23.8368 37.239V30.4028H35.2236C35.3688 30.3968 35.5138 30.4204 35.6479 30.4717C35.7821 30.523 35.9022 30.6009 35.9996 30.6997C36.425 31.0994 36.8578 31.4934 37.2909 31.8877C37.8423 32.3897 38.3942 32.8922 38.9322 33.4075C39.1059 33.5926 39.3387 33.7231 39.5978 33.7806C39.8569 33.8381 40.1292 33.8196 40.3762 33.7277C43.1539 33.0343 45.9358 32.3561 48.7185 31.6777C49.3707 31.5187 50.0229 31.3597 50.6752 31.2005L50.936 31.1598C50.8882 31.2165 50.8503 31.264 50.8168 31.306C50.7747 31.3589 50.7397 31.4029 50.7006 31.4451C49.7134 32.4031 48.7346 33.3626 47.7608 34.3172C46.8523 35.2079 45.9481 36.0943 45.0454 36.9712C44.8957 37.1235 44.6893 37.219 44.4666 37.239H23.8368ZM23.7923 38.986H42.9589V39.0034C42.4503 39.4409 41.9682 39.9035 41.5149 40.3893C41.2028 40.7987 40.7754 41.1231 40.2781 41.3282C39.7809 41.5332 39.2323 41.6112 38.6905 41.5539C35.8663 41.5229 33.0393 41.5332 30.2113 41.5436C28.797 41.5488 27.3824 41.5539 25.9678 41.5539C24.861 41.5539 24.0913 41.0939 23.9004 40.2845C23.8308 39.8546 23.7947 39.4206 23.7923 38.986ZM21.9666 30.3795V33.1221L21.9411 33.1396C21.809 33.0753 21.7063 33.0258 21.6209 32.9846C21.5748 32.9623 21.5338 32.9425 21.4958 32.9242C20.6792 32.4773 19.8659 32.0305 19.0541 31.5845C17.6338 30.8041 16.2181 30.0263 14.7974 29.2556C14.6776 29.2055 14.5777 29.1225 14.5117 29.0182C14.4456 28.9139 14.4165 28.7934 14.4284 28.6733V25.8957C14.6129 25.9831 14.7338 26.0413 14.8483 26.1053C15.7465 26.5968 16.6447 27.0901 17.5429 27.5835C18.8902 28.3235 20.2376 29.0635 21.5849 29.7972C21.7071 29.8455 21.8096 29.9277 21.8781 30.0321C21.9465 30.1366 21.9775 30.2581 21.9666 30.3795ZM28.5633 25.1853V23.5082H34.1612V25.1853H28.5633Z" fill="white"/>
<path fill-rule="evenodd" clip-rule="evenodd" d="M60.3189 45.2108C60.3889 45.0128 60.4461 44.8206 60.5034 44.6285L60.5288 43.7841C59.866 41.9413 58.8891 40.206 57.6344 38.6424C57.5596 38.4938 57.4399 38.368 57.2894 38.2798C57.1388 38.1916 56.9639 38.1447 56.7852 38.1447C56.6065 38.1447 56.4315 38.1916 56.281 38.2798C56.1305 38.368 56.0108 38.4938 55.9359 38.6424C55.1408 39.8186 54.3647 41.0065 53.665 42.2236C53.3254 42.7874 53.1093 43.4065 53.0288 44.0462C52.9794 44.8614 53.2555 45.6653 53.8055 46.3081C54.3556 46.9509 55.1421 47.3887 56.0186 47.54C56.9226 47.7001 57.8592 47.5515 58.6516 47.1223C59.4439 46.6931 60.0371 46.0131 60.3189 45.2108ZM56.6102 40.6106H56.782C57.5665 41.6631 58.1793 42.8145 58.6013 44.0287C58.6516 44.3492 58.5953 44.676 58.4399 44.9668C58.2845 45.2576 58.0371 45.4988 57.7298 45.6592C57.4106 45.8409 57.0389 45.9303 56.6633 45.9157C56.2877 45.9012 55.9256 45.7834 55.6242 45.5776C55.3172 45.3952 55.0846 45.125 54.9627 44.8091C54.8407 44.4932 54.8362 44.1492 54.9499 43.8307C55.3089 43.0529 55.7165 42.29 56.1242 41.5271C56.2872 41.2219 56.4503 40.9167 56.6102 40.6106Z" fill="white"/>
</svg>
