<svg xmlns="http://www.w3.org/2000/svg" width="139" height="75" viewBox="0 0 139 75">
  <g fill="none">
    <path fill="#FA0" d="M17.9,18.8 L40,18.8 C41.7,18.8 43.1,17.4 43.1,15.7 C43.1,14 41.7,12.6 40,12.6 L19.6,12.6 C15.8,12.6 12.7,15.6 12.7,19.5 L12.7,23.8 C12.7,27.6 15.8,30.7 19.6,30.7 L40,30.7 L40,24.3 L17.9,24.3 L17.9,18.8 Z"/>
    <path fill="#FA0" d="M39.8,35.9 L19.6,35.9 C12.9,35.9 7.4,30.4 7.4,23.7 L7.4,19.4 C7.4,12.7 12.9,7.2 19.6,7.2 L40,7.2 C44.7,7.2 48.7,11 48.7,15.8 C48.7,20.2 45.3,24.2 40,24.4 L46.6,30.8 C51.2,28.5 56.4,23.6 56.4,16.1 C56.4,8.5 49.8,0 41,0 L19.5,0 C8.8,0 0,8.8 0,19.5 L0,23.8 C0,34.5 8.8,43.3 19.5,43.3 L39.7,43.3 L39.7,35.9 L39.8,35.9 Z"/>
    <path fill="#636363" d="M69.3 24.7L69.3 26.7C69.6 26.6 70 26.5 70.5 26.5 72 26.5 72.6 27.3 72.6 28.6L72.6 30C72.6 31.4 71.9 32.2 70.3 32.2 69.5 32.2 68.8 32 68.4 31.9 68.1 31.7 68 31.7 68 31.3L68 24.8C68 24.6 68.1 24.5 68.3 24.5L68.9 24.5C69.2 24.3 69.3 24.4 69.3 24.7zM70.3 27.5C69.9 27.5 69.5 27.6 69.2 27.7L69.2 30.7C69.2 30.8 69.2 30.8 69.3 30.8 69.5 30.9 69.8 30.9 70.2 30.9 71 30.9 71.4 30.5 71.4 29.8L71.4 28.5C71.4 27.9 71.1 27.5 70.3 27.5zM78.1 26.9L78.1 32.1C78.1 33.4 77.5 34.3 75.8 34.3 74.7 34.3 74 33.9 73.7 33.3 73.6 33.1 73.6 32.9 73.8 32.8L74.2 32.6C74.4 32.5 74.6 32.5 74.7 32.7 74.9 33 75.2 33.2 75.8 33.2 76.5 33.2 76.9 32.8 76.9 32.1L76.9 31.6C76.6 31.7 76.2 31.7 75.7 31.7 74.2 31.7 73.6 30.9 73.6 29.6L73.6 26.8C73.6 26.6 73.7 26.5 73.9 26.5L74.5 26.5C74.7 26.5 74.8 26.6 74.8 26.8L74.8 29.6C74.8 30.3 75.2 30.6 75.9 30.6 76.3 30.6 76.7 30.5 77 30.5L77 26.8C77 26.6 77.1 26.5 77.3 26.5L77.9 26.5C78.1 26.6 78.1 26.7 78.1 26.9zM83.8 26.5C85.4 26.5 86.2 27.4 86.2 28.6L86.2 29.2C86.2 29.5 86.1 29.6 85.7 29.6L82.6 29.6 82.6 30C82.6 30.7 83 31 83.8 31 84.4 31 84.8 30.8 85 30.5 85.2 30.3 85.3 30.2 85.5 30.4L85.9 30.6C86.1 30.7 86.2 30.9 86 31.1 85.6 31.7 84.9 32.1 83.8 32.1 82.1 32.1 81.4 31.2 81.4 29.9L81.4 28.7C81.4 27.3 82.2 26.5 83.8 26.5zM83.8 27.5C83 27.5 82.6 27.9 82.6 28.5L82.6 28.7 85 28.7 85 28.5C84.9 27.8 84.5 27.5 83.8 27.5zM91.2 27L89.7 29.2 91.3 31.6C91.5 31.8 91.4 32 91.1 32L90.6 32C90.3 32 90.2 32 90 31.7L88.9 30.1 87.8 31.7C87.6 31.9 87.6 32 87.2 32L86.7 32C86.3 32 86.3 31.9 86.5 31.6L88.1 29.2 86.5 27C86.3 26.8 86.4 26.6 86.7 26.6L87.2 26.6C87.5 26.6 87.6 26.6 87.8 26.9L88.8 28.3 89.8 26.9C90 26.7 90 26.6 90.4 26.6L90.9 26.6C91.3 26.6 91.4 26.7 91.2 27zM94.5 26.5C96 26.5 96.7 27.3 96.7 28.6L96.7 30C96.7 31.4 96 32.1 94.4 32.1 94 32.1 93.6 32 93.3 31.9L93.3 33.9C93.3 34.1 93.2 34.2 93 34.2L92.4 34.2C92.2 34.2 92.1 34.1 92.1 33.9L92.1 27.4C92.1 27.1 92.2 26.9 92.5 26.8 92.9 26.6 93.5 26.5 94.5 26.5zM94.3 27.5C93.9 27.5 93.6 27.5 93.4 27.6 93.3 27.6 93.3 27.7 93.3 27.7L93.3 30.7C93.5 30.8 93.9 30.9 94.3 30.9 95.1 30.9 95.5 30.5 95.5 29.8L95.5 28.5C95.5 27.9 95.1 27.5 94.3 27.5zM100.3 26.5C100.5 26.5 100.6 26.6 100.6 26.8L100.6 27.3C100.6 27.5 100.5 27.6 100.3 27.6L99.9 27.6C99.5 27.6 99.2 27.6 98.9 27.7 98.8 27.7 98.8 27.8 98.8 27.8L98.8 31.6C98.8 31.8 98.7 31.9 98.5 31.9L97.9 31.9C97.7 31.9 97.6 31.8 97.6 31.6L97.6 27.4C97.6 27.1 97.7 26.9 98 26.8 98.4 26.7 99 26.5 99.9 26.5L100.3 26.5zM103.4 26.5C105 26.5 105.8 27.4 105.8 28.6L105.8 29.2C105.8 29.5 105.7 29.6 105.3 29.6L102.2 29.6 102.2 30C102.2 30.7 102.6 31 103.4 31 104 31 104.4 30.8 104.6 30.5 104.8 30.3 104.9 30.2 105.1 30.4L105.5 30.6C105.7 30.7 105.8 30.9 105.6 31.1 105.2 31.7 104.5 32.1 103.4 32.1 101.7 32.1 101 31.2 101 29.9L101 28.7C101 27.3 101.8 26.5 103.4 26.5zM103.4 27.5C102.6 27.5 102.2 27.9 102.2 28.5L102.2 28.7 104.6 28.7 104.6 28.5C104.5 27.8 104.1 27.5 103.4 27.5zM108.6 26.5C109.8 26.5 110.5 26.9 110.8 27.6 110.9 27.8 110.9 28 110.6 28.1L110.1 28.3C109.9 28.4 109.8 28.4 109.7 28.2 109.5 27.9 109.2 27.7 108.6 27.7 107.9 27.7 107.6 27.9 107.6 28.3 107.6 28.8 108 28.9 108.8 28.9 110 29 110.9 29.3 110.9 30.5 110.9 31.5 110.1 32.2 108.7 32.2 107.5 32.2 106.7 31.8 106.4 31 106.3 30.8 106.4 30.7 106.6 30.6L107.1 30.5C107.3 30.4 107.4 30.5 107.5 30.7 107.7 31.1 108 31.3 108.7 31.3 109.4 31.3 109.8 31.1 109.8 30.7 109.8 30.2 109.4 30.1 108.6 30 107.6 29.9 106.5 29.7 106.5 28.4 106.5 27.1 107.1 26.5 108.6 26.5zM113.7 26.5C114.9 26.5 115.6 26.9 115.9 27.6 116 27.8 116 28 115.7 28.1L115.2 28.3C115 28.4 114.9 28.4 114.8 28.2 114.6 27.9 114.3 27.7 113.7 27.7 113 27.7 112.7 27.9 112.7 28.3 112.7 28.8 113.1 28.9 113.9 28.9 115.1 29 116 29.3 116 30.5 116 31.5 115.2 32.2 113.8 32.2 112.6 32.2 111.8 31.8 111.5 31 111.4 30.8 111.5 30.7 111.7 30.6L112.2 30.5C112.4 30.4 112.5 30.5 112.6 30.7 112.8 31.1 113.1 31.3 113.8 31.3 114.5 31.3 114.9 31.1 114.9 30.7 114.9 30.2 114.5 30.1 113.7 30 112.7 29.9 111.6 29.7 111.6 28.4 111.6 27.1 112.3 26.5 113.7 26.5zM118.1 24.7L118.1 26.7C118.4 26.6 118.8 26.5 119.3 26.5 120.8 26.5 121.4 27.3 121.4 28.6L121.4 30C121.4 31.4 120.7 32.2 119.1 32.2 118.3 32.2 117.6 32 117.2 31.9 116.9 31.7 116.8 31.7 116.8 31.3L116.8 24.8C116.8 24.6 116.9 24.5 117.1 24.5L117.7 24.5C118.1 24.3 118.1 24.4 118.1 24.7zM119.2 27.5C118.8 27.5 118.4 27.6 118.1 27.7L118.1 30.7C118.1 30.8 118.1 30.8 118.2 30.8 118.4 30.9 118.7 30.9 119.1 30.9 119.9 30.9 120.3 30.5 120.3 29.8L120.3 28.5C120.3 27.9 119.9 27.5 119.2 27.5zM124.5 26.5C126.2 26.5 126.7 27.4 126.7 28.6L126.7 31.3C126.7 31.7 126.6 31.8 126.3 31.9 125.9 32.1 125.3 32.2 124.5 32.2 122.7 32.2 122.2 31.6 122.2 30.5 122.2 29.3 122.9 28.9 124.5 28.9 124.9 28.9 125.3 28.9 125.5 29L125.5 28.7C125.5 28.1 125.2 27.7 124.5 27.7 124 27.7 123.6 27.9 123.4 28.2 123.3 28.4 123.2 28.4 123 28.4L122.6 28.2C122.4 28.1 122.3 28 122.4 27.7 122.8 26.9 123.5 26.5 124.5 26.5zM124.4 29.7C123.6 29.7 123.4 29.9 123.4 30.4 123.4 30.8 123.6 31.1 124.4 31.1 124.9 31.1 125.2 31.1 125.4 31 125.5 31 125.5 30.9 125.5 30.9L125.5 29.8C125.3 29.8 124.8 29.7 124.4 29.7zM130.2 26.5C131.7 26.5 132.3 27.3 132.3 28.6L132.3 31.7C132.3 31.9 132.2 32 132 32L131.4 32C131.2 32 131.1 31.9 131.1 31.7L131.1 28.6C131.1 27.9 130.7 27.6 130 27.6 129.6 27.6 129.3 27.7 129 27.7 128.9 27.7 128.9 27.8 128.9 27.8L128.9 31.6C128.9 31.8 128.8 31.9 128.6 31.9L128 31.9C127.8 31.9 127.7 31.8 127.7 31.6L127.7 27.4C127.7 27.1 127.8 26.9 128.1 26.8 128.6 26.6 129.2 26.5 130.2 26.5zM137.8 31.9L137.3 31.9C136.9 31.9 136.9 31.9 136.8 31.6L136.2 30.2C136 29.8 135.8 29.7 135.4 29.7L134.8 29.7 134.8 31.5C134.8 31.7 134.7 31.8 134.5 31.8L134 31.8C133.7 31.8 133.7 31.7 133.7 31.5L133.7 24.6C133.7 24.4 133.8 24.3 134 24.3L134.5 24.3C134.8 24.3 134.8 24.4 134.8 24.6L134.8 28.6 135.3 28.6 135.4 28.6 136.8 26.8C137 26.6 137.1 26.6 137.4 26.6L137.9 26.6C138.2 26.6 138.3 26.7 138.1 27L136.6 28.9C136.9 29.1 137.1 29.3 137.3 29.7L138.2 31.5C138.1 31.8 138.1 31.9 137.8 31.9zM130.6 36.6L138.3 36.6 125.5 65.2C123.1 70.7 117.6 74.2 111.6 74.2L107.4 74.2 107.4 67.1 111.6 67.1C114.2 67.1 116.6 65.9 118.1 63.9L103.9 36.7 103.9 66.9 96.8 64.6C94.4 66.2 91.6 67.1 88.5 67.1 83 67.1 78.2 64.3 75.5 60 72.8 64.3 68 67.1 62.5 67.1 59.5 67.1 56.6 66.2 54.2 64.6L54.2 74.2 47.1 74.2 47.1 35.9 54.2 38.6C56.6 37 59.4 36.1 62.5 36.1 67.9 36.1 72.6 39 75.4 43.2L75.5 43.2C78.2 39 83 36.1 88.4 36.1 91.4 36.1 94.3 37 96.7 38.6L96.7 36.5 103.8 36.5 103.8 36.6 111.8 36.6 121.9 55.9 130.6 36.6zM62.3 60.2C66.9 60.2 70.7 56.4 70.6 51.9 70.6 47.3 66.9 43.6 62.3 43.6 57.7 43.6 54 47.3 54 51.9 54 56.5 57.7 60.2 62.3 60.2z"/>
    <path fill="#FCE0B4" d="M71.1,60.2 C66.5,60.2 62.8,56.5 62.8,51.9 C62.8,47.3 66.5,43.6 71.1,43.6 C75.7,43.6 79.4,47.3 79.4,51.9 C79.4,56.4 75.7,60.2 71.1,60.2"/>
    <path fill="#F9C069" d="M79.8,60.2 C75.2,60.2 71.5,56.5 71.5,51.9 C71.5,47.3 75.2,43.6 79.8,43.6 C84.4,43.6 88.1,47.3 88.1,51.9 C88.1,56.4 84.4,60.2 79.8,60.2"/>
    <path fill="#FA0" d="M88.5,60.2 C83.9,60.2 80.2,56.5 80.2,51.9 C80.2,47.3 83.9,43.6 88.5,43.6 C93.1,43.6 96.8,47.3 96.8,51.9 C96.8,56.4 93.1,60.2 88.5,60.2"/>
  </g>
</svg>
