<svg width="50" height="50" viewBox="0 0 50 50" fill="none" xmlns="http://www.w3.org/2000/svg">
<path d="M38.7717 18.2155C38.6642 18.2161 38.5585 18.1873 38.466 18.1322C38.3735 18.0771 38.2977 17.9977 38.2466 17.9026C36.9897 15.5707 35.1299 13.6235 32.8636 12.2665C30.5972 10.9095 28.0085 10.1932 25.3709 10.1932C22.7332 10.1932 20.1445 10.9095 17.8782 12.2665C15.6119 13.6235 13.7521 15.5707 12.4952 17.9026C12.4174 18.0366 12.2908 18.1349 12.1422 18.1767C11.9935 18.2184 11.8346 18.2004 11.699 18.1264C11.5634 18.0523 11.4617 17.9281 11.4156 17.78C11.3694 17.632 11.3824 17.4717 11.4518 17.333C12.8108 14.8125 14.8214 12.7077 17.2713 11.241C19.7213 9.77424 22.5196 9 25.3709 9C28.2222 9 31.0205 9.77424 33.4705 11.241C35.9204 12.7077 37.931 14.8125 39.29 17.333C39.3389 17.424 39.3636 17.5261 39.3615 17.6295C39.3594 17.7329 39.3307 17.8339 39.2781 17.9228C39.2255 18.0116 39.1509 18.0853 39.0615 18.1364C38.9721 18.1875 38.8711 18.2145 38.7683 18.2146L38.7717 18.2155Z" fill="#F8C84A"/>
<path d="M0.266716 27.1096V25.5444H7.52492C8.27094 25.5444 8.36634 25.235 8.36634 24.9653V23.9282C8.36634 23.6586 8.27094 23.3491 7.52492 23.3491H2.73425C2.31884 23.3575 1.90438 23.306 1.50349 23.1962C1.18976 23.1102 0.89713 22.9598 0.644022 22.7545C0.423456 22.5699 0.253116 22.332 0.148969 22.0631C0.0461715 21.7857 -0.00425381 21.4914 0.000280785 21.1954V20.7183C-0.00300213 20.4233 0.0482916 20.1302 0.151547 19.8541C0.255704 19.5849 0.426385 19.347 0.64746 19.1627C0.900122 18.9565 1.19288 18.8058 1.50693 18.7202C1.9079 18.6108 2.3223 18.5593 2.73769 18.5672H9.81111V20.1332H2.73425C1.98823 20.1332 1.89283 20.4426 1.89283 20.7114V21.2118C1.89283 21.4815 1.98823 21.7909 2.73425 21.7909H7.52492C7.94031 21.783 8.35471 21.8345 8.75568 21.9439C9.06941 22.0298 9.36204 22.1802 9.61515 22.3855C9.83526 22.5707 10.0058 22.8084 10.1111 23.0769C10.2135 23.3533 10.2645 23.6462 10.2615 23.9412V24.9541C10.2645 25.249 10.2135 25.542 10.1111 25.8183C10.0062 26.0871 9.83562 26.3249 9.61515 26.5098C9.3624 26.7158 9.06967 26.8665 8.75568 26.9523C8.35471 27.0616 7.94031 27.1131 7.52492 27.1052L0.266716 27.1096Z" fill="#343C42"/>
<path d="M16.0999 27.1096C15.6845 27.1176 15.2701 27.0661 14.8691 26.9567C14.5554 26.8707 14.2627 26.7203 14.0096 26.515C13.7895 26.3298 13.619 26.0921 13.5137 25.8236C13.4112 25.5473 13.3603 25.2543 13.3633 24.9594V20.7245C13.3602 20.4295 13.4112 20.1365 13.5137 19.8602C13.6185 19.5914 13.7891 19.3536 14.0096 19.1688C14.2627 18.9632 14.5553 18.8125 14.8691 18.7263C15.2701 18.6169 15.6845 18.5654 16.0999 18.5733H21.4801C21.8955 18.5654 22.3099 18.6169 22.7109 18.7263C23.0249 18.812 23.3176 18.9627 23.5704 19.1688C23.7906 19.3539 23.9612 19.5916 24.0663 19.8602C24.1686 20.1366 24.2196 20.4296 24.2167 20.7245V24.9594C24.2197 25.2543 24.1687 25.5472 24.0663 25.8236C23.9614 26.0923 23.7908 26.3301 23.5704 26.515C23.3177 26.7212 23.025 26.872 22.7109 26.9575C22.3099 27.0669 21.8955 27.1184 21.4801 27.1105L16.0999 27.1096ZM16.0999 20.1281C15.3538 20.1281 15.2576 20.4375 15.2576 20.7063V24.9654C15.2576 25.2351 15.3538 25.5445 16.0999 25.5445H21.4801C22.2262 25.5445 22.3224 25.2351 22.3224 24.9654V20.7063C22.3224 20.4375 22.2262 20.1281 21.4801 20.1281H16.0999Z" fill="#343C42"/>
<path d="M28.1952 27.1096V18.5629H30.0989V25.5444H36.7056V27.1096H28.1952Z" fill="#343C42"/>
<path d="M41.8813 27.1095C41.4668 27.1171 41.0533 27.0656 40.6531 26.9565C40.3392 26.8706 40.0465 26.7199 39.7937 26.514C39.5732 26.3293 39.4029 26.0914 39.2986 25.8226C39.1954 25.5464 39.1442 25.2533 39.1474 24.9583V20.7234C39.1441 20.4284 39.1954 20.1353 39.2986 19.8592C39.4028 19.59 39.5735 19.3521 39.7945 19.1678C40.0475 18.9621 40.3402 18.8114 40.654 18.7253C41.055 18.6159 41.4694 18.5644 41.8848 18.5723H47.2625C47.6778 18.5645 48.0922 18.616 48.4932 18.7253C48.8072 18.8111 49.0999 18.9618 49.3527 19.1678C49.5733 19.3525 49.7439 19.5903 49.8486 19.8592C49.9518 20.1353 50.0031 20.4284 49.9999 20.7234V24.9583C50.0031 25.2533 49.9518 25.5464 49.8486 25.8226C49.744 26.0914 49.5734 26.3293 49.3527 26.514C49.0998 26.7196 48.8071 26.87 48.4932 26.9556C48.0925 27.0649 47.6784 27.1164 47.2633 27.1086L41.8813 27.1095ZM41.8813 20.128C41.1353 20.128 41.0399 20.4374 41.0399 20.7061V24.9652C41.0399 25.2349 41.1353 25.5443 41.8813 25.5443H47.2625C48.0085 25.5443 48.1039 25.2349 48.1039 24.9652V20.7061C48.1039 20.4374 48.0085 20.128 47.2625 20.128H41.8813Z" fill="#343C42"/>
<path d="M19.3994 33.9399L17.4604 30.8942L15.4896 33.9399H14.2348L17.0925 29.6168H17.8257L20.6653 33.9399H19.3994Z" fill="#343C42"/>
<path d="M21.7663 33.9399L18.9086 29.6168H20.1806L22.1462 32.6625L24.0903 29.6168H25.3391L22.5003 33.9399H21.7663Z" fill="#343C42"/>
<path d="M27.6915 33.9399V30.558H25.6236V29.6168H30.8019V30.558H28.7899V33.9399H27.6915Z" fill="#343C42"/>
<path d="M32.4924 33.9398C32.2824 33.9434 32.0729 33.9172 31.8702 33.862C31.7067 33.8174 31.5542 33.7391 31.4224 33.6321C31.3041 33.5323 31.2125 33.4042 31.156 33.2596C31.102 33.1149 31.0752 32.9613 31.0769 32.8068V30.7524C31.0752 30.5978 31.102 30.4443 31.156 30.2995C31.2125 30.155 31.3041 30.0269 31.4224 29.9271C31.554 29.8192 31.7065 29.74 31.8702 29.6946C32.0728 29.6389 32.2824 29.6127 32.4924 29.6168H35.0983C35.3084 29.6127 35.5179 29.6389 35.7206 29.6946C35.8843 29.7398 36.0368 29.819 36.1684 29.9271C36.2871 30.0266 36.3787 30.1547 36.4348 30.2995C36.4887 30.4443 36.5155 30.5978 36.5139 30.7524V32.8042C36.5155 32.9588 36.4887 33.1123 36.4348 33.2571C36.3787 33.4019 36.2871 33.53 36.1684 33.6296C36.0366 33.7373 35.8842 33.8164 35.7206 33.862C35.5178 33.9172 35.3084 33.9434 35.0983 33.9398H32.4924ZM32.4924 30.558C32.1761 30.558 32.1761 30.6764 32.1761 30.7464V32.8094C32.1761 32.8802 32.1761 32.9978 32.4924 32.9978H35.0983C35.4155 32.9978 35.4155 32.8802 35.4155 32.8094V30.7464C35.4155 30.6764 35.4155 30.558 35.0983 30.558H32.4924Z" fill="#343C42"/>
<path d="M25.3743 41.3059C22.1795 41.3061 19.0593 40.3342 16.424 38.518C13.7886 36.7018 11.7614 34.1264 10.6087 31.1301C10.5805 31.057 10.5668 30.9791 10.5686 30.9007C10.5703 30.8223 10.5874 30.745 10.6189 30.6733C10.6824 30.5284 10.8005 30.4148 10.9473 30.3575C11.0941 30.3002 11.2575 30.3038 11.4016 30.3677C11.5457 30.4316 11.6587 30.5504 11.7157 30.698C13.8807 36.3295 19.3701 40.1141 25.3743 40.1141C31.3786 40.1141 36.8714 36.3295 39.0321 30.6997C39.0604 30.6266 39.1026 30.5597 39.1565 30.503C39.2104 30.4463 39.2749 30.4008 39.3463 30.3691C39.4177 30.3375 39.4946 30.3203 39.5726 30.3185C39.6506 30.3167 39.7282 30.3304 39.8009 30.3588C39.8737 30.3871 39.9402 30.4296 39.9966 30.4838C40.053 30.5381 40.0982 30.6029 40.1297 30.6747C40.1612 30.7465 40.1783 30.8238 40.1801 30.9022C40.1818 30.9807 40.1682 31.0587 40.14 31.1318C38.987 34.1279 36.9597 36.7032 34.3244 38.5193C31.6891 40.3354 28.5691 41.3074 25.3743 41.3077V41.3059Z" fill="#F8C84A"/>
</svg>
