<svg version="1.1" id="Layer_1" xmlns="http://www.w3.org/2000/svg" xmlns:xlink="http://www.w3.org/1999/xlink" x="0px" y="0px"
	 viewBox="0 0 608.7 215.6" style="enable-background:new 0 0 608.7 215.6;" xml:space="preserve">
<style type="text/css">
	.st0{fill-rule:evenodd;clip-rule:evenodd;fill:#D1010F;}
	.st1{fill:#D1010F;}
</style>
<g>
	<g>
		<path class="st0" d="M281.1,3.7c0-2.6,2.5-3.9,5.3-2.3l13.7,7.6c2.1,1.2,3.3,3.5,3.3,5.9c0,34.6,0,69.3,0,103.9
			c0,6.2-5,11.2-11.2,11.2c-6.2,0-11.2-5-11.2-11.2C281,80.3,281.1,42,281.1,3.7"/>
		<path class="st0" d="M258.3,3.7c0-2.6-2.5-3.9-5.3-2.3l-13.7,7.6c-2.1,1.2-3.3,3.5-3.3,5.9c0,34.6,0,69.3,0,103.9
			c0,6.2,5,11.2,11.2,11.2c6.2,0,11.2-5,11.2-11.2C258.4,80.3,258.3,42,258.3,3.7"/>
		<path class="st0" d="M483.7,39.5l1,1.6c5.3,9.2,7.9,19,7.9,29.6c0,10.7-2.7,20.7-8,30c-5.3,9.3-12.5,16.5-21.7,21.8
			c-9.2,5.2-19.2,7.8-30.3,7.8c-16.2,0-30.1-5.8-41.5-17.3c-11.5-11.5-17.2-25.6-17.2-42.1c0-11.7,2.9-22.2,8.7-31.5
			c2.7-3.8,6.8-6.1,11.5-6.1c7.6,0,13.8,6.2,13.8,13.8c0,2.4-0.6,4.6-1.7,6.6c-2.7,4.9-4,10.6-4,17c0,9.9,2.9,17.8,8.7,23.9
			c5.8,6.1,13.1,9.2,22,9.2c8.9,0,16.3-3.1,22.2-9.3c5.9-6.2,8.8-14.1,8.8-23.8c0-6.6-1.3-12.4-4-17.4c-0.9-1.9-1.4-4-1.4-6.2
			c0-7.6,6.2-13.8,13.8-13.8C477,33.5,481.2,35.8,483.7,39.5"/>
		<path class="st0" d="M608.4,115.1c0-17.7,0-35.3,0-59.9c0-13.1-3.4-22.9-10.4-29.5c-8.2-7.9-18.2-11.8-30-11.8
			c-5.7,0-11.4,1.1-16.8,3.2c-5.5,2.1-11.6,5.9-18.4,11.5c0-8-6.7-14.7-14.8-14.7s-14.8,6.6-14.8,14.8c0,30.6,0,62.1,0,86.5
			c0,8.2,6.6,14.8,14.8,14.8c8.2,0,14.8-6.6,14.8-14.8c0-9.5,0-18.4,0-30.6c0-11.8,0.4-19.5,1.3-23c1.7-6.8,4.7-12.1,9-15.9
			c4.3-3.9,9.5-5.8,15.6-5.8c4.7,0,8.5,1.2,11.7,3.5c3.2,2.3,5.4,5.7,6.7,10.2c1.3,4.4,1.9,13.4,1.9,27c0,17.6,0,22.6,0,34.8
			c0,8.2,6.6,14.8,14.7,14.8C601.8,129.9,608.4,123.3,608.4,115.1"/>
		<path class="st0" d="M450.8,8.4c3.7,0,6.9,1.3,9.5,4c2.6,2.6,3.9,5.8,3.9,9.5c0,3.6-1.3,6.8-3.9,9.4c-2.7,2.7-5.8,4-9.5,4
			c-3.6,0-6.8-1.3-9.4-4c-2.6-2.6-3.9-5.8-3.9-9.4c0-3.7,1.3-6.9,3.9-9.5C444,9.7,447.1,8.4,450.8,8.4"/>
		<path class="st0" d="M415.6,8.4c3.7,0,6.9,1.3,9.5,4c2.6,2.6,3.9,5.8,3.9,9.5c0,3.6-1.3,6.8-3.9,9.4c-2.7,2.7-5.8,4-9.5,4
			c-3.6,0-6.8-1.3-9.4-4c-2.6-2.6-3.9-5.8-3.9-9.4c0-3.7,1.3-6.9,3.9-9.5C408.8,9.7,412,8.4,415.6,8.4"/>
		<path class="st0" d="M202,0.9c-4.2,0-7.7,1.4-10.7,4.4c-3,3-4.4,6.5-4.4,10.7c0,4.3,1.5,8,4.5,11.1c3,3,6.5,4.6,10.8,4.6
			c4.2,0,7.6-1.5,10.5-4.5c3-3,4.4-6.6,4.4-10.8c0-4.3-1.4-7.9-4.5-11C209.7,2.4,206.2,0.9,202,0.9"/>
		<path class="st0" d="M213.2,118.7c0-20,0-40,0-59.9c0-6.2-5-11.2-11.2-11.2c-6.2,0-11.2,5-11.2,11.2c0,20,0,40,0,59.9
			c0,6.2,5,11.2,11.2,11.2C208.2,129.9,213.2,124.9,213.2,118.7"/>
		<path class="st0" d="M23.3,31.1c0-6.2-5-11.2-11.2-11.2c-6.2,0-11.2,5-11.2,11.2c0,29.2,0,58.4,0,87.6c0,6.2,5,11.2,11.2,11.2
			c6.2,0,11.2-5,11.2-11.2c0-12,0-24.1,0-36.1c0-7.8,0.3-17.7,3.1-25c2-5.3,5.1-9.8,9.7-13.2c4.3-3.2,9.3-4.8,14.6-4.8
			c4.6,0,8.9,1.2,12.6,3.9c3.9,2.9,6.3,7.1,7.8,11.6c2.2,6.8,2.4,15.8,2.4,23c0,13.5,0,27,0,40.5c0,6.2,5,11.3,11.3,11.3
			c6.2,0,11.3-5.1,11.3-11.3c0-12.3,0-24.5,0-36.8c0-7.6,0.3-17.5,3-24.7c2-5.2,5.1-9.6,9.6-12.9c4.4-3.2,9.4-4.7,14.8-4.7
			c6.8,0,12.8,2.4,16.8,8.1c4.8,6.9,5.3,19.6,5.3,27.8c0,14.4,0,28.8,0,43.2c0,6.2,5,11.2,11.2,11.2c6.2,0,11.2-5,11.2-11.2
			c0-17.4,0.1-34.7,0.1-52.1c0-8.3-0.4-20.6-3.8-28.2c-2.5-5.7-6.7-10.1-12-13.3c-6-3.7-12.7-5.2-19.7-5.2c-7.1,0-13.8,1.5-20.1,4.9
			c-6.4,3.4-11.5,8.3-15.5,14.2l-2.8,4.2l-2.3-4.5c-3-5.7-7.1-10.6-12.6-14c-5.4-3.3-11.3-4.8-17.6-4.8c-6.3,0-12.4,1.2-18.2,3.7
			c-5.9,2.6-10.9,6.5-15.2,11.2l-5.3,5.8V31.1z"/>
		<path class="st0" d="M348.5,118.7c0-20,0-40,0-59.9c0-6.2-5-11.2-11.2-11.2c-6.2,0-11.2,5-11.2,11.2c0,20,0,40,0,59.9
			c0,6.2,5,11.2,11.2,11.2C343.5,129.9,348.5,124.9,348.5,118.7"/>
		<path class="st0" d="M337.3,0.9c-4.2,0-7.7,1.4-10.7,4.4c-3,3-4.4,6.5-4.4,10.7c0,4.3,1.5,8,4.5,11.1c3,3,6.5,4.6,10.8,4.6
			c4.2,0,7.6-1.5,10.5-4.5c3-3,4.4-6.6,4.4-10.8c0-4.3-1.4-7.9-4.5-11C345.1,2.4,341.5,0.9,337.3,0.9"/>
	</g>
	<g>
		<path class="st1" d="M-0.4,203.8v-43.6h6.2v16.2h0.3c0.7-0.7,1.2-1.3,1.7-1.8c0.5-0.4,1.4-1,3-1.6c1.5-0.6,3.2-1,5-1
			c4.2,0,7.6,1.5,10.3,4.4c2.7,3,4.1,6.9,4.1,11.8c0,4.9-1.4,8.8-4.1,11.8c-2.7,2.9-6.1,4.4-10.3,4.4c-4.2,0-7.5-1.5-9.7-4.4H5.9
			l-0.6,3.7H-0.4z M8.5,195.9c1.7,2,3.9,2.9,6.4,2.9c2.6,0,4.7-1,6.4-2.9c1.7-2,2.6-4.5,2.6-7.7c0-3.2-0.9-5.7-2.6-7.7
			c-1.7-2-3.9-2.9-6.4-2.9c-2.6,0-4.7,1-6.4,2.9s-2.6,4.5-2.6,7.7C5.9,191.4,6.7,193.9,8.5,195.9z"/>
		<path class="st1" d="M35.8,216.2v-5.6H42c0.5,0,1-0.2,1.4-0.6c0.4-0.4,0.6-0.8,0.7-1.3l1-2.8l-12.8-33.3h6.5l9,23.7h1.2l8.1-23.7
			h6.5l-13.7,38.3c-0.7,1.8-1.6,3.2-2.7,4c-1.1,0.9-2.8,1.3-5.1,1.3H35.8z"/>
		<path class="st1" d="M81.6,203.8v-43.6h19.6c3.7,0,6.7,1.3,9.1,3.9c2.4,2.6,3.6,6,3.6,10.1c0,4.2-1.2,7.5-3.6,10.1
			c-2.4,2.6-5.5,3.9-9.1,3.9H88.1v15.6H81.6z M88.1,182h12.8c1.8,0,3.3-0.7,4.6-2.2c1.3-1.5,1.9-3.3,1.9-5.6c0-2.3-0.6-4.2-1.9-5.6
			s-2.8-2.2-4.6-2.2H88.1V182z"/>
		<path class="st1" d="M138.6,203.8l-0.6-3.4h-0.3c-0.6,0.8-1.4,1.5-2.2,2.1c-2,1.3-4.4,2-7.1,2c-3.4,0-6.1-0.9-8.2-2.7
			c-2-1.8-3.1-4.1-3.1-7c0-3.2,1.1-5.7,3.2-7.5c2.1-1.8,5.3-2.7,9.6-2.7h7.8v-0.6c0-2-0.6-3.6-1.7-4.8c-1.2-1.2-2.8-1.7-4.8-1.7
			c-2,0-3.5,0.4-4.6,1.3c-1.1,0.9-1.7,1.9-1.9,3h-6.2c0.2-2.7,1.4-5,3.7-6.9c2.3-1.8,5.3-2.8,9.1-2.8c4,0,7.2,1.1,9.4,3.2
			c2.2,2.1,3.4,5,3.4,8.7v19.9H138.6z M137.6,190.7v-1.2h-7.5c-2.3,0-4,0.5-5.1,1.4s-1.7,2.1-1.7,3.6c0,1.5,0.5,2.6,1.4,3.4
			c1,0.8,2.3,1.2,4.2,1.2c2.8,0,5-0.7,6.5-2.2C136.9,195.4,137.6,193.3,137.6,190.7z"/>
		<path class="st1" d="M149.5,194.4h6.2c0,1.1,0.6,2.2,1.9,3.2c1.2,1,3,1.5,5.3,1.5c2.2,0,3.8-0.4,4.9-1.2c1.1-0.8,1.7-1.8,1.7-2.8
			c0-1.1-0.4-2-1.1-2.6c-0.7-0.6-1.9-1.1-3.6-1.4l-5.6-0.9c-6-1-9-4-9-9c0-2.6,1.1-4.8,3.2-6.5c2.1-1.7,5.2-2.6,9.3-2.6
			c2.1,0,4,0.3,5.8,1c1.7,0.7,3.1,1.5,4.1,2.6c1,1,1.7,2.1,2.2,3.1c0.5,1.1,0.7,2,0.7,3h-6.2c0-1.1-0.6-2.1-1.7-3
			c-1.1-0.9-2.7-1.4-4.9-1.4c-2.1,0-3.6,0.4-4.7,1.1c-1,0.7-1.6,1.6-1.6,2.6c0,1.9,1.6,3.1,4.7,3.7l5.6,0.9c6,1,9,4.1,9,9.3
			c0,2.7-1.1,4.9-3.3,6.7c-2.2,1.8-5.3,2.7-9.5,2.7c-2.3,0-4.4-0.4-6.3-1.1c-1.8-0.7-3.3-1.6-4.2-2.7c-1-1.1-1.7-2.1-2.2-3.2
			C149.7,196.4,149.5,195.4,149.5,194.4z"/>
		<path class="st1" d="M182.2,203.8v-43.6h6.2v15.6h0.3c0.7-0.7,1.5-1.3,2.3-1.9c2-1.2,4.2-1.9,6.7-1.9c3.8,0,6.8,1.2,9.1,3.5
			c2.3,2.3,3.4,5.5,3.4,9.6v18.7H204v-18.7c0-2-0.7-3.8-2.1-5.3c-1.4-1.5-3.2-2.2-5.3-2.2c-2.3,0-4.2,0.7-5.8,2.2
			c-1.6,1.5-2.3,3.2-2.3,5.3v18.7H182.2z"/>
		<path class="st1" d="M238.3,203.8l-0.6-3.4h-0.3c-0.6,0.8-1.4,1.5-2.2,2.1c-2,1.3-4.4,2-7.1,2c-3.4,0-6.1-0.9-8.2-2.7
			c-2-1.8-3.1-4.1-3.1-7c0-3.2,1.1-5.7,3.2-7.5c2.1-1.8,5.3-2.7,9.6-2.7h7.8v-0.6c0-2-0.6-3.6-1.7-4.8c-1.2-1.2-2.8-1.7-4.8-1.7
			c-2,0-3.5,0.4-4.6,1.3c-1.1,0.9-1.7,1.9-1.9,3H218c0.2-2.7,1.4-5,3.7-6.9c2.3-1.8,5.3-2.8,9.1-2.8c4,0,7.2,1.1,9.4,3.2
			c2.2,2.1,3.4,5,3.4,8.7v19.9H238.3z M237.3,190.7v-1.2h-7.5c-2.3,0-4,0.5-5.1,1.4c-1.1,0.9-1.7,2.1-1.7,3.6c0,1.5,0.5,2.6,1.4,3.4
			c1,0.8,2.3,1.2,4.2,1.2c2.8,0,5-0.7,6.5-2.2C236.6,195.4,237.3,193.3,237.3,190.7z"/>
		<path class="st1" d="M252,203.8v-43.6h19.6c3.7,0,6.7,1.3,9.1,3.9c2.4,2.6,3.6,6,3.6,10.1c0,4.2-1.2,7.5-3.6,10.1
			c-2.4,2.6-5.5,3.9-9.1,3.9h-13.1v15.6H252z M258.5,182h12.8c1.8,0,3.3-0.7,4.6-2.2c1.3-1.5,1.9-3.3,1.9-5.6c0-2.3-0.6-4.2-1.9-5.6
			c-1.3-1.5-2.8-2.2-4.6-2.2h-12.8V182z"/>
		<path class="st1" d="M309,203.8l-0.6-3.4H308c-0.6,0.8-1.4,1.5-2.2,2.1c-2,1.3-4.4,2-7.1,2c-3.4,0-6.1-0.9-8.2-2.7
			c-2-1.8-3.1-4.1-3.1-7c0-3.2,1.1-5.7,3.2-7.5c2.1-1.8,5.3-2.7,9.6-2.7h7.8v-0.6c0-2-0.6-3.6-1.7-4.8c-1.2-1.2-2.8-1.7-4.8-1.7
			c-2,0-3.5,0.4-4.6,1.3c-1.1,0.9-1.7,1.9-1.9,3h-6.2c0.2-2.7,1.4-5,3.7-6.9c2.3-1.8,5.3-2.8,9.1-2.8c4,0,7.2,1.1,9.4,3.2
			c2.2,2.1,3.4,5,3.4,8.7v19.9H309z M308,190.7v-1.2h-7.5c-2.3,0-4,0.5-5.1,1.4s-1.7,2.1-1.7,3.6c0,1.5,0.5,2.6,1.4,3.4
			c1,0.8,2.3,1.2,4.2,1.2c2.8,0,5-0.7,6.5-2.2C307.3,195.4,308,193.3,308,190.7z"/>
		<path class="st1" d="M320.5,216.2v-5.6h6.2c0.5,0,1-0.2,1.4-0.6c0.4-0.4,0.6-0.8,0.7-1.3l1-2.8l-12.8-33.3h6.5l9,23.7h1.2
			l8.1-23.7h6.5l-13.7,38.3c-0.7,1.8-1.6,3.2-2.7,4c-1.1,0.9-2.8,1.3-5.1,1.3H320.5z"/>
	</g>
</g>
</svg>
