<svg width="124" height="97" viewBox="0 0 124 97" fill="none" xmlns="http://www.w3.org/2000/svg">
<path d="M75.2375 56.5282C74.2628 58.0544 73.6281 59.7415 73.37 61.4926C73.1119 63.2436 73.2354 65.024 73.7335 66.7314C74.2316 68.4387 75.0943 70.0392 76.2722 71.4409C77.45 72.8426 78.9196 74.0177 80.5966 74.8987C83.9953 76.6675 88.0214 77.1385 91.7984 76.209C95.5754 75.2795 98.7973 73.0248 100.763 69.9358C101.737 68.4097 102.372 66.7225 102.63 64.9715C102.888 63.2204 102.765 61.44 102.267 59.7327C101.769 58.0253 100.906 56.4248 99.728 55.0231C98.5502 53.6215 97.0805 52.4463 95.4036 51.5654C92.005 49.7959 87.9786 49.3246 84.2015 50.2542C80.4243 51.1837 77.2024 53.4388 75.2375 56.5282ZM93.6486 54.356C94.9231 55.0259 96.04 55.9194 96.9349 56.9851C97.8298 58.0508 98.4851 59.2676 98.863 60.5655C99.241 61.8634 99.3341 63.2168 99.1371 64.5477C98.94 65.8785 98.4567 67.1607 97.715 68.3203C96.2186 70.6745 93.7645 72.3935 90.887 73.1029C88.0095 73.8123 84.9417 73.4548 82.3513 72.1081C81.0768 71.4382 79.9599 70.5447 79.065 69.479C78.1701 68.4133 77.5148 67.1964 77.1369 65.8985C76.7589 64.6006 76.6658 63.2472 76.8629 61.9163C77.0599 60.5854 77.5433 59.3032 78.2851 58.1436C79.7815 55.7894 82.2356 54.0705 85.1131 53.3611C87.9906 52.6517 91.0583 53.0094 93.6486 54.356ZM77.2318 38.8405C74.7334 39.7636 72.3878 40.9999 70.2626 42.5136C70.1832 42.5673 70.0898 42.6011 69.9916 42.6117C69.8935 42.6223 69.794 42.6093 69.703 42.5741L64.1979 40.5556C63.2805 40.2237 62.2634 40.2025 61.3304 40.4959C60.3974 40.7893 59.6102 41.3779 59.1111 42.1553L53.485 51.0105C52.9892 51.7966 52.8206 52.7196 53.0101 53.6102C53.1995 54.5007 53.7343 55.2989 54.5163 55.8583L59.1661 59.1622C59.2459 59.2168 59.3085 59.2895 59.3478 59.3732C59.3871 59.4568 59.4016 59.5484 59.3898 59.6388C59.0124 62.0604 59.0074 64.5183 59.3751 66.9411C59.3865 67.0313 59.372 67.1227 59.3329 67.2061C59.2938 67.2896 59.2314 67.3623 59.1521 67.4169L54.453 70.7644C53.6742 71.3234 53.1415 72.1196 52.952 73.0075C52.7625 73.8955 52.9288 74.8161 53.4206 75.6014L58.9872 84.4128C59.4857 85.1954 60.2759 85.7881 61.2134 86.0824C62.1509 86.3768 63.1731 86.3531 64.093 86.0158L69.6094 83.9724C69.7009 83.9369 69.801 83.9239 69.8998 83.9347C69.9985 83.9454 70.0925 83.9796 70.1723 84.0338C71.2281 84.7821 72.3393 85.4627 73.498 86.0708C74.6554 86.6777 75.8573 87.211 77.0951 87.6667C77.1872 87.7026 77.2674 87.7599 77.3275 87.8329C77.3877 87.906 77.4258 87.9922 77.438 88.083L78.2446 93.4189C78.3836 94.3177 78.8731 95.1404 79.6231 95.7358C80.3732 96.3313 81.3334 96.6595 82.3272 96.66L93.5286 96.6348C94.515 96.6282 95.4663 96.2997 96.2106 95.7086C96.955 95.1175 97.4433 94.3027 97.5874 93.4114L98.4289 88.0362C98.4413 87.9464 98.4792 87.8611 98.5387 87.7887C98.5982 87.7163 98.6774 87.6594 98.7684 87.6235C101.267 86.7004 103.612 85.4642 105.738 83.9504C105.817 83.8968 105.91 83.863 106.008 83.8524C106.107 83.8418 106.206 83.8548 106.297 83.8901L111.802 85.9085C112.72 86.2403 113.737 86.2613 114.67 85.9679C115.603 85.6745 116.39 85.0859 116.889 84.3086L122.515 75.4535C123.011 74.6674 123.18 73.7443 122.99 72.8538C122.801 71.9632 122.266 71.1649 121.484 70.6056L116.834 67.3015C116.754 67.2471 116.692 67.1743 116.652 67.0907C116.613 67.0071 116.598 66.9154 116.61 66.825C116.988 64.4035 116.993 61.9457 116.625 59.5229C116.614 59.4327 116.628 59.3413 116.667 59.2578C116.706 59.1743 116.769 59.1016 116.848 59.0469L121.547 55.6995C122.326 55.1404 122.859 54.3443 123.048 53.4564C123.238 52.5684 123.071 51.6478 122.579 50.8625L117.013 42.051C116.514 41.2684 115.724 40.6757 114.787 40.3815C113.849 40.0872 112.827 40.1109 111.907 40.4482L106.391 42.4917C106.299 42.5271 106.199 42.5401 106.1 42.5293C106.002 42.5185 105.908 42.4843 105.828 42.4301C103.715 40.9325 101.385 39.7098 98.9048 38.7969C98.8127 38.7612 98.7326 38.7039 98.6724 38.6308C98.6122 38.5578 98.5742 38.4716 98.5621 38.3809L97.7558 33.0455C97.6169 32.1467 97.1275 31.3239 96.3773 30.7283C95.6272 30.1328 94.6669 29.8047 93.6731 29.8043L82.4717 29.8296C81.7583 29.8316 81.058 30.0046 80.4407 30.3313C79.8992 30.6152 79.4353 31.0076 79.084 31.479C78.7327 31.9504 78.5031 32.4885 78.4125 33.0527L77.5714 38.4278C77.5592 38.5177 77.5215 38.6032 77.4619 38.6756C77.4023 38.748 77.3229 38.8048 77.2318 38.8405ZM81.0595 38.8834L81.9008 33.5082C81.9214 33.3808 81.9911 33.2644 82.0974 33.18C82.2038 33.0955 82.3397 33.0486 82.4806 33.0476L93.6818 33.022C93.8238 33.0221 93.961 33.0691 94.0682 33.1541C94.1753 33.2392 94.2452 33.3568 94.2651 33.4852L95.0717 38.8211C95.1695 39.4731 95.4536 40.0901 95.8954 40.6099C96.3372 41.1298 96.9212 41.5342 97.5885 41.7824C99.7663 42.5838 101.812 43.6572 103.667 44.972C104.235 45.3713 104.908 45.6277 105.618 45.7157C106.328 45.8038 107.051 45.7203 107.715 45.4737L113.232 43.4303C113.363 43.3821 113.509 43.3787 113.643 43.4207C113.777 43.4627 113.89 43.5474 113.961 43.6593L119.527 52.4708C119.598 52.583 119.622 52.7145 119.595 52.8414C119.567 52.9683 119.491 53.082 119.38 53.1619L114.681 56.5095C114.115 56.9117 113.675 57.4424 113.404 58.0485C113.132 58.6546 113.04 59.315 113.135 59.964C113.458 62.0898 113.453 64.2464 113.122 66.371C113.023 67.0228 113.115 67.6868 113.386 68.2961C113.658 68.9054 114.101 69.4385 114.67 69.8417L119.32 73.1454C119.432 73.2254 119.508 73.3394 119.535 73.4667C119.563 73.5939 119.538 73.7258 119.468 73.8382L113.841 82.6931C113.79 82.7735 113.716 82.8403 113.628 82.8867C113.551 82.9277 113.465 82.9521 113.376 82.9581C113.287 82.9642 113.197 82.9517 113.115 82.9217L107.609 80.9032C106.946 80.6589 106.224 80.5774 105.515 80.6668C104.807 80.7562 104.136 81.0134 103.57 81.4128C101.703 82.743 99.6416 83.8293 97.4462 84.6403C96.7841 84.8883 96.2046 85.2902 95.7651 85.8059C95.3255 86.3217 95.0413 86.9334 94.9406 87.5805L94.0992 92.9557C94.0786 93.083 94.0089 93.1993 93.9026 93.2838C93.7963 93.3682 93.6605 93.4152 93.5196 93.4162L82.3179 93.4415C82.176 93.4413 82.0389 93.3944 81.9318 93.3094C81.8246 93.2243 81.7547 93.1069 81.7348 92.9785L80.9283 87.6428C80.8305 86.9908 80.5464 86.3738 80.1046 85.854C79.6628 85.3341 79.0788 84.9297 78.4116 84.6814C76.2336 83.8801 74.1879 82.8066 72.3331 81.4917C71.7651 81.0924 71.0924 80.836 70.3822 80.748C69.672 80.6599 68.9489 80.7433 68.2849 80.9898L62.7683 83.0334C62.6369 83.0815 62.491 83.0849 62.3571 83.0429C62.2232 83.0009 62.1103 82.9162 62.0391 82.8045L56.4725 73.9931C56.4022 73.8809 56.3785 73.7494 56.4055 73.6225C56.4326 73.4956 56.5087 73.3818 56.6199 73.302L61.3192 69.9544C61.8849 69.5521 62.3253 69.0215 62.5966 68.4154C62.8678 67.8092 62.9604 67.1488 62.8652 66.4998C62.5426 64.3739 62.5469 62.2173 62.8781 60.0925C62.9766 59.4408 62.8854 58.7769 62.6136 58.1677C62.3418 57.5584 61.899 57.0253 61.3298 56.6221L56.6799 53.3182C56.5682 53.2383 56.4917 53.1242 56.4646 52.997C56.4375 52.8698 56.4615 52.7379 56.5323 52.6255L62.1587 43.7706C62.23 43.6596 62.3425 43.5756 62.4757 43.5336C62.609 43.4917 62.7543 43.4947 62.8854 43.542L68.3904 45.5603C69.0539 45.8047 69.7757 45.8862 70.4843 45.7968C71.1929 45.7075 71.8636 45.4503 72.4297 45.0509C74.2972 43.7209 76.3584 42.6346 78.5537 41.8234C79.2158 41.5754 79.7954 41.1735 80.2349 40.6577C80.6744 40.1419 80.9588 39.5305 81.0595 38.8834ZM41.0512 27.6067C42.2459 27.8187 43.4792 27.7637 44.6454 27.4458C45.8116 27.1279 46.8762 26.5569 47.7482 25.7815C48.6202 25.0062 49.2738 24.0495 49.6529 22.9933C50.0321 21.937 50.1257 20.8126 49.9257 19.7162C49.7256 18.6197 49.2379 17.5838 48.5042 16.6968C47.7705 15.8099 46.8127 15.0984 45.7125 14.6231C44.6123 14.1478 43.4025 13.9229 42.1864 13.9675C40.9703 14.0121 39.7842 14.3249 38.7293 14.8792C38.5748 14.9607 38.4229 15.0474 38.2734 15.1394C37.0373 15.9009 36.0762 16.9801 35.5117 18.2405C34.9471 19.5009 34.8045 20.8859 35.1018 22.2205C35.3991 23.5549 36.123 24.779 37.182 25.7377C38.2409 26.6965 39.5875 27.3468 41.0512 27.6067ZM38.5479 20.148C38.6739 19.556 38.9578 19.0015 39.3745 18.5337C39.7911 18.0659 40.3277 17.6991 40.9366 17.466C41.5455 17.2328 42.208 17.1403 42.8654 17.1969C43.5228 17.2534 44.1548 17.4571 44.7054 17.7899C45.256 18.1228 45.7082 18.5745 46.022 19.1052C46.3359 19.6358 46.5016 20.2289 46.5045 20.832C46.5074 21.435 46.3475 22.0294 46.0388 22.5625C45.7301 23.0956 45.2822 23.551 44.7349 23.8882C44.6552 23.9373 44.5743 23.9835 44.4921 24.0269C43.6556 24.4692 42.6716 24.6188 41.7233 24.4478C40.6786 24.2612 39.7575 23.7037 39.1622 22.8976C38.5669 22.0915 38.346 21.1026 38.5479 20.148ZM33.0948 72.8332C33.7593 71.7924 34.1919 70.6419 34.3678 69.4479C34.5436 68.2539 34.4593 67.0398 34.1195 65.8757C33.7798 64.7115 33.1913 63.6202 32.3881 62.6644C31.5849 61.7087 30.5827 60.9075 29.4391 60.3068C27.123 59.1005 24.3788 58.7791 21.8044 59.4124C19.23 60.0458 17.034 61.5827 15.6948 63.6883C15.0303 64.729 14.5976 65.8795 14.4217 67.0736C14.2459 68.2676 14.3302 69.4816 14.6699 70.6458C15.0097 71.81 15.5981 72.9013 16.4013 73.8571C17.2045 74.8128 18.2067 75.6141 19.3502 76.2148C21.6666 77.4205 24.4106 77.7416 26.9848 77.1083C29.5591 76.4749 31.7551 74.9384 33.0948 72.8332ZM18.0791 69.8316C17.8553 69.0744 17.7987 68.2841 17.9126 67.5067C18.0265 66.7294 18.3085 65.9805 18.7424 65.3037C19.6131 63.9333 21.0413 62.9326 22.716 62.5194C24.3908 62.1063 26.1765 62.3141 27.6843 63.0977C28.4254 63.4872 29.0748 64.0069 29.5951 64.6266C30.1153 65.2464 30.4963 65.954 30.7159 66.7088C30.9355 67.4635 30.9895 68.2505 30.8747 69.0244C30.7599 69.7983 30.4786 70.5438 30.047 71.2179C29.1762 72.5883 27.748 73.5889 26.0733 74.0021C24.3986 74.4152 22.6129 74.2074 21.1051 73.4239C20.3651 73.0384 19.7164 72.5222 19.1969 71.9055C18.6774 71.2888 18.2974 70.5837 18.0791 69.8316ZM8.8234 84.1167L11.6163 83.082C11.7112 83.0475 11.8143 83.036 11.9156 83.0487C12.0168 83.0615 12.1127 83.098 12.1939 83.1547C12.8314 83.5866 13.4959 83.9841 14.1842 84.3453C14.8707 84.7054 15.5795 85.0287 16.3071 85.3136C16.4021 85.3493 16.4853 85.407 16.5485 85.4809C16.6117 85.5549 16.6527 85.6427 16.6674 85.7356L17.0737 88.4238C17.2126 89.3226 17.7021 90.1455 18.4522 90.741C19.2023 91.3365 20.1626 91.6647 21.1565 91.6651L27.5431 91.6506C28.5295 91.6442 29.4809 91.3158 30.2253 90.7247C30.9697 90.1336 31.4581 89.3188 31.6021 88.4276L32.0288 85.7029C32.0415 85.6149 32.0785 85.5312 32.1364 85.4598C32.1942 85.3884 32.2709 85.3316 32.3593 85.2947C33.842 84.7147 35.2445 83.9769 36.5377 83.0964C36.6183 83.0404 36.7134 83.0044 36.8137 82.9919C36.9141 82.9793 37.0162 82.9907 37.1104 83.0248L39.8989 84.0472C40.8163 84.3792 41.8334 84.4004 42.7664 84.107C43.6994 83.8136 44.4866 83.225 44.9857 82.4475L48.1938 77.3975C48.6896 76.6114 48.8582 75.6883 48.6688 74.7977C48.4793 73.9072 47.9444 73.1089 47.1624 72.5495L44.8203 70.8852C44.7398 70.8275 44.6772 70.7517 44.6386 70.6651C44.6 70.5786 44.5868 70.4844 44.6003 70.3917C44.7896 68.9499 44.7924 67.4928 44.6087 66.0503C44.5955 65.9579 44.6089 65.8639 44.6474 65.7775C44.6859 65.6912 44.7482 65.6154 44.8284 65.5577L47.2092 63.8618C47.9878 63.3027 48.5204 62.5066 48.7098 61.6187C48.8992 60.7308 48.7329 59.8102 48.2412 59.025L45.0716 54.0075C44.573 53.225 43.7828 52.6324 42.8453 52.3381C41.9079 52.0438 40.8858 52.0675 39.9659 52.4047L37.173 53.4394C37.0781 53.4739 36.975 53.4854 36.8738 53.4727C36.7726 53.46 36.6767 53.4235 36.5955 53.3668C35.3211 52.5033 33.9407 51.7787 32.4822 51.2078C32.3871 51.1721 32.3038 51.1144 32.2406 51.0404C32.1774 50.9664 32.1364 50.8786 32.1218 50.7856L31.7153 48.0977C31.5764 47.1988 31.087 46.376 30.3368 45.7805C29.5867 45.185 28.6265 44.8568 27.6326 44.8564L21.2459 44.8709C20.5325 44.8729 19.8321 45.0458 19.2148 45.3724C18.6733 45.6563 18.2094 46.0488 17.8581 46.5202C17.5068 46.9917 17.2772 47.5298 17.1867 48.094L16.7603 50.8186C16.7479 50.9067 16.711 50.9905 16.6531 51.0619C16.5952 51.1333 16.5183 51.19 16.4296 51.2266C14.9468 51.8065 13.5443 52.5444 12.2513 53.4251C12.1707 53.481 12.0757 53.5169 11.9754 53.5295C11.8751 53.5421 11.773 53.5308 11.6788 53.4968L8.89015 52.4743C7.9728 52.1425 6.95576 52.1214 6.02287 52.4147C5.08998 52.7081 4.30278 53.2966 3.80355 54.0738L0.594725 59.124C0.0989563 59.9101 -0.0696521 60.8332 0.119857 61.7238C0.309367 62.6143 0.844271 63.4126 1.62635 63.9719L3.96866 65.6361C4.04914 65.6938 4.11176 65.7696 4.15034 65.8562C4.18892 65.9427 4.20212 66.0369 4.18864 66.1296C3.99926 67.5714 3.99635 69.0286 4.18002 70.4711C4.19319 70.5635 4.1799 70.6575 4.14144 70.7438C4.10297 70.8301 4.04064 70.9059 3.96055 70.9636L1.57973 72.6595C0.801096 73.2186 0.268451 74.0147 0.0789751 74.9027C-0.110501 75.7906 0.0558174 76.7111 0.547586 77.4964L3.71717 82.5139C4.21575 83.2964 5.00601 83.889 5.94351 84.1833C6.88101 84.4776 7.90347 84.454 8.8234 84.1167ZM3.60003 75.8881C3.52985 75.7759 3.50612 75.6445 3.53315 75.5177C3.56018 75.3909 3.63618 75.2772 3.74731 75.1973L6.12772 73.5016C6.6827 73.1025 7.1167 72.5803 7.38848 71.9849C7.66025 71.3894 7.76079 70.7403 7.68052 70.0993C7.52881 68.9079 7.53114 67.7042 7.68746 66.5133C7.77073 65.8698 7.67146 65.2175 7.39916 64.6192C7.12687 64.0208 6.69071 63.4964 6.13256 63.0963L3.79014 61.4319C3.67846 61.352 3.60208 61.2379 3.57502 61.1107C3.54797 60.9835 3.57204 60.8517 3.64283 60.7394L6.85137 55.6896C6.92272 55.5786 7.03519 55.4945 7.16845 55.4526C7.30172 55.4107 7.447 55.4136 7.57808 55.461L10.3667 56.4835C11.0218 56.7208 11.7323 56.8013 12.4309 56.7175C13.1295 56.6337 13.7931 56.3883 14.3589 56.0047C15.4292 55.2758 16.59 54.6651 17.8173 54.1852C18.4608 53.9297 19.022 53.5281 19.4476 53.0186C19.8732 52.5091 20.1489 51.9086 20.2487 51.2742L20.6753 48.5495C20.6959 48.4222 20.7657 48.3059 20.8721 48.2214C20.9784 48.137 21.1143 48.0901 21.2552 48.0892L27.6419 48.0746C27.7838 48.0747 27.921 48.1216 28.0282 48.2066C28.1353 48.2917 28.2053 48.4091 28.2253 48.5375L28.6315 51.2256C28.7317 51.8674 29.0109 52.475 29.4423 52.9899C29.8737 53.5048 30.4428 53.9098 31.0949 54.166C32.3009 54.638 33.4424 55.2371 34.4961 55.9512C35.0639 56.3346 35.7297 56.579 36.43 56.6613C37.1304 56.7437 37.8422 56.6611 38.4978 56.4215L41.2906 55.3869C41.4221 55.3387 41.5681 55.3353 41.702 55.3774C41.8359 55.4194 41.9488 55.5041 42.02 55.6159L45.1897 60.6336C45.2598 60.7458 45.2835 60.8772 45.2564 61.004C45.2293 61.1308 45.1532 61.2444 45.0421 61.3243L42.6618 63.0199C42.1068 63.419 41.6728 63.9411 41.401 64.5366C41.1293 65.1321 41.0287 65.7812 41.1091 66.4222C41.2607 67.6135 41.2584 68.817 41.1022 70.0079C41.0188 70.6514 41.1181 71.3037 41.3904 71.9022C41.6626 72.5006 42.0988 73.0251 42.657 73.4251L44.999 75.0898C45.1108 75.1697 45.1872 75.2837 45.2144 75.4109C45.2415 75.5382 45.2174 75.67 45.1467 75.7824L41.9379 80.8323C41.8867 80.9128 41.8133 80.9797 41.725 81.0263C41.6479 81.0672 41.5615 81.0915 41.4726 81.0975C41.3836 81.1035 41.2943 81.0909 41.2114 81.0608L38.4226 80.0383C37.7675 79.8011 37.057 79.7207 36.3584 79.8045C35.6598 79.8883 34.9962 80.1336 34.4304 80.5172C33.3602 81.246 32.1994 81.8567 30.9722 82.3366C30.3287 82.5921 29.7674 82.9938 29.3418 83.5033C28.9162 84.0128 28.6403 84.6133 28.5404 85.2477L28.1142 87.9722C28.0936 88.0995 28.0238 88.2159 27.9175 88.3004C27.8111 88.3848 27.6752 88.4317 27.5343 88.4326L21.1474 88.4472C21.0054 88.4471 20.8683 88.4002 20.7612 88.3152C20.654 88.2301 20.5841 88.1126 20.5642 87.9843L20.1579 85.296C20.0576 84.6542 19.7783 84.0467 19.347 83.5318C18.9156 83.0169 18.3465 82.612 17.6944 82.3559C16.4884 81.8839 15.347 81.2849 14.2933 80.5709C13.7255 80.1875 13.0598 79.9429 12.3595 79.8606C11.6591 79.7782 10.9473 79.8607 10.2917 80.1002L7.49886 81.1349C7.36743 81.1831 7.22138 81.1865 7.08742 81.1445C6.95345 81.1025 6.84055 81.0178 6.76933 80.9059L3.60003 75.8881ZM30.5564 38.0648C31.1049 38.4969 31.8052 38.7346 32.5296 38.7345C33.2539 38.7344 33.9541 38.4966 34.5024 38.0643L37.0171 36.0665C38.4115 36.4838 39.8575 36.7406 41.3215 36.8308L42.8339 39.5438C43.165 40.1322 43.7166 40.5923 44.3882 40.8401C45.0597 41.088 45.8064 41.1072 46.4921 40.8942L52.8484 38.8951C53.5322 38.6772 54.1075 38.2422 54.4695 37.6694C54.8315 37.0965 54.9561 36.4239 54.8207 35.7741L54.1836 32.7856C55.2783 31.8925 56.2458 30.8771 57.0632 29.7634L60.3886 29.9239C61.112 29.9562 61.8241 29.7499 62.3949 29.3428C62.9657 28.9356 63.3573 28.3546 63.4982 27.7058L64.7808 21.6782C64.9163 21.0284 64.7916 20.3557 64.4293 19.7828C64.0671 19.2099 63.4915 18.775 62.8074 18.5575L59.6581 17.568C59.357 16.2557 58.8764 14.9832 58.2275 13.7805L60.044 11.2279C60.4364 10.6719 60.5969 10.0055 60.4962 9.3504C60.3955 8.69528 60.0403 8.09501 59.4955 7.6591L54.4215 3.63071C53.873 3.19866 53.1728 2.96101 52.4485 2.96107C51.7242 2.96114 51.0241 3.19891 50.4757 3.63106L47.9612 5.6291C46.5667 5.21176 45.1207 4.95504 43.6566 4.86486L42.1444 2.15174C41.8132 1.56338 41.2616 1.10328 40.59 0.855373C39.9185 0.607463 39.1718 0.588238 38.486 0.8012L32.1297 2.80022C31.9495 2.85688 31.7756 2.92924 31.6105 3.01631C31.0686 3.30335 30.6377 3.73708 30.3773 4.25753C30.117 4.77798 30.0402 5.35944 30.1574 5.92153L30.7947 8.90992C29.6999 9.80309 28.7325 10.8185 27.9151 11.9321L24.5895 11.7717C23.866 11.7393 23.1539 11.9455 22.583 12.3527C22.0122 12.7599 21.6206 13.341 21.4799 13.9899L20.1975 20.0173C20.062 20.6672 20.1867 21.3399 20.549 21.9128C20.9112 22.4856 21.4868 22.9205 22.1709 23.1381L25.3201 24.1273C25.6213 25.4396 26.1019 26.7121 26.7506 27.9149L24.9343 30.4676C24.5419 31.0236 24.3814 31.6899 24.4821 32.345C24.5828 33.0001 24.9379 33.6003 25.4827 34.0363L30.5564 38.0648ZM29.8684 29.4395C30.1559 29.0339 30.3213 28.5662 30.3479 28.0836C30.3746 27.601 30.2616 27.1205 30.0203 26.6905C29.4099 25.6064 28.9725 24.4482 28.7214 23.251C28.6212 22.7769 28.3861 22.3353 28.0398 21.9705C27.6936 21.6057 27.2482 21.3306 26.7486 21.1729L23.7418 20.2284L24.8529 15.0071L28.0282 15.1601C28.5561 15.1848 29.0818 15.0821 29.5524 14.8623C30.0231 14.6426 30.4221 14.3136 30.7093 13.9083C31.4331 12.8844 32.3135 11.9602 33.3239 11.1641C33.7242 10.8479 34.0261 10.441 34.1993 9.98434C34.3726 9.52765 34.4109 9.03733 34.3105 8.56278L33.702 5.7096L39.2085 3.97784L40.6522 6.56802C40.8927 6.99765 41.2528 7.36191 41.6963 7.62425C42.1397 7.88659 42.6509 8.03776 43.1786 8.06258C44.5126 8.12394 45.8304 8.35795 47.0925 8.75759C47.592 8.91523 48.1282 8.95003 48.6471 8.85849C49.166 8.76695 49.6493 8.55231 50.0486 8.23611L52.449 6.32872L56.8445 9.81851L55.1101 12.2559C54.8225 12.6616 54.6571 13.1292 54.6304 13.6119C54.6036 14.0945 54.7167 14.575 54.958 15.0051C55.5685 16.0891 56.0059 17.2473 56.2569 18.4446C56.3571 18.9186 56.5921 19.3602 56.9384 19.7249C57.2847 20.0897 57.73 20.3648 58.2296 20.5225L61.2363 21.4669L60.1252 26.6886L56.9501 26.5355C56.4222 26.5107 55.8965 26.6133 55.4258 26.8331C54.9551 27.0528 54.5561 27.3819 54.269 27.7872C53.545 28.8113 52.6644 29.7355 51.6538 30.5318C51.2537 30.848 50.9519 31.2549 50.7788 31.7115C50.6057 32.1681 50.5674 32.6583 50.6677 33.1328L51.2761 35.9861L45.7698 37.7177L44.3261 35.1275C44.0855 34.6978 43.7254 34.3335 43.2819 34.0712C42.8384 33.8088 42.3271 33.6577 41.7994 33.6329C41.1333 33.6021 40.4703 33.5284 39.8155 33.4123C39.1607 33.296 38.5158 33.1374 37.8855 32.9379C37.386 32.7804 36.8499 32.7456 36.3311 32.8372C35.8123 32.9287 35.329 33.1433 34.9297 33.4594L32.5291 35.3666L28.1337 31.877L29.8684 29.4395Z" fill="#FBCD40"/>
</svg>
