<svg width="101" height="92" viewBox="0 0 101 92" fill="none" xmlns="http://www.w3.org/2000/svg">
<path d="M82.2418 6.92395e-07C80.7646 6.92395e-07 79.2943 0.186948 77.8751 0.535916V0.529684C74.9923 1.22983 72.3631 2.61318 70.2538 4.5397C66.1259 8.3098 64.8807 13.5381 65.8973 18.4081L50.0919 32.8372C49.0798 32.0907 47.8209 31.6789 46.52 31.6688C45.0531 31.6688 43.5691 32.186 42.4501 33.208L40.7853 34.7285L18.8289 14.6785L19.7773 13.8154C19.9636 13.644 20.1037 13.4355 20.1865 13.2062C20.2694 12.977 20.2928 12.7332 20.2549 12.4943L19.5419 7.91409C19.5094 7.7049 19.4306 7.50394 19.3104 7.32343C19.1902 7.14292 19.031 6.98663 18.8426 6.86407L8.80934 0.320927C8.53088 0.136565 8.19792 0.0333862 7.85412 0.024927V0.0311585C7.62482 0.027054 7.39697 0.0652242 7.18419 0.143386C6.97141 0.221548 6.77808 0.338097 6.61574 0.486063L0.877605 5.72058C0.59292 5.98182 0.418871 6.32679 0.386391 6.69418C0.35391 7.06156 0.465103 7.42757 0.700207 7.72714L7.86435 16.8938C7.99778 17.0652 8.16782 17.2101 8.36424 17.3199C8.56065 17.4297 8.77937 17.502 9.0072 17.5325L14.0255 18.1837C14.2882 18.2194 14.5564 18.1985 14.8087 18.1227C15.061 18.047 15.2905 17.9185 15.4788 17.7475L16.417 16.8813L38.3734 36.9345L36.712 38.4488C35.7215 39.3655 35.1332 40.582 35.0584 41.8681C34.9836 43.1542 35.4274 44.4207 36.306 45.4281L20.4937 59.8698C15.165 58.9444 9.44388 60.0817 5.31596 63.8486C3.20914 65.7774 1.69498 68.1784 0.925506 70.8107C0.156035 73.4429 0.15834 76.2137 0.932189 78.8449C1.00992 79.1087 1.16223 79.3492 1.37385 79.5423C1.58546 79.7353 1.84895 79.8742 2.13787 79.9449C2.42679 80.0156 2.73099 80.0157 3.01995 79.9451C3.30891 79.8745 3.57247 79.7358 3.7842 79.5428L12.3812 71.688L18.6924 73.6104L20.7871 79.3746L12.1901 87.2264C11.9798 87.4202 11.8288 87.6612 11.7525 87.9251C11.6762 88.189 11.6771 88.4666 11.7552 88.73C11.8332 88.9935 11.9857 89.2336 12.1974 89.4263C12.409 89.619 12.6724 89.7576 12.9611 89.828C15.8417 90.5323 18.8742 90.5332 21.7552 89.8305C24.6362 89.1278 27.2646 87.7463 29.3773 85.8243C33.5052 82.0542 34.7504 76.8259 33.7337 71.9559L46.6292 60.1782L79.7173 90.4014C80.8003 91.3822 82.2637 91.9325 83.7889 91.9325C85.3141 91.9325 86.7776 91.3822 87.8606 90.4014L99.3232 79.9261C100.397 78.9364 101 77.5993 101 76.2058C101 74.8123 100.397 73.4753 99.3232 72.4856L66.2385 42.2687L79.1305 30.4942C84.4627 31.4227 90.1804 30.2854 94.3117 26.5153C94.3128 26.5153 94.314 26.5153 94.3151 26.5153C96.4219 24.5866 97.9361 22.1855 98.7056 19.5533C99.475 16.921 99.4727 14.1502 98.6989 11.5191C98.6212 11.2553 98.4688 11.0148 98.2572 10.8217C98.0456 10.6286 97.7821 10.4898 97.4932 10.4191C97.2043 10.3484 96.9001 10.3483 96.6111 10.4189C96.3222 10.4894 96.0586 10.6282 95.8469 10.8211L87.2499 18.6729L80.942 16.7536L78.8372 10.9894L87.4409 3.1376C87.6513 2.94394 87.8024 2.70322 87.8789 2.43952C87.9555 2.17581 87.9548 1.89837 87.8771 1.63496C87.7994 1.37154 87.6473 1.13138 87.4361 0.938508C87.2248 0.745633 86.9618 0.606806 86.6734 0.535916C85.2285 0.17979 83.7384 -0.000407637 82.2418 6.92395e-07ZM80.4508 3.43359C81.0239 3.46475 81.6005 3.53642 82.177 3.53642L75.6781 9.46887C75.4549 9.67414 75.2988 9.9321 75.2271 10.2139C75.1554 10.4956 75.171 10.79 75.2721 11.0641L77.9775 18.4766C78.0616 18.7062 78.2031 18.9147 78.3908 19.0856C78.5785 19.2565 78.8073 19.3851 79.0589 19.4612L87.1714 21.932C87.4722 22.0236 87.7949 22.0369 88.1035 21.9703C88.412 21.9037 88.6941 21.7599 88.9181 21.555L95.4068 15.6288C95.3761 18.8349 94.4448 21.985 91.8964 24.3125C88.3416 27.5529 83.3472 28.5717 78.8099 27.475C78.5207 27.4054 78.2165 27.4065 77.9279 27.4781C77.6393 27.5497 77.3764 27.6894 77.1655 27.8832L30.8749 70.1612C30.6634 70.3541 30.5111 70.5944 30.4332 70.858C30.3554 71.1215 30.3548 71.3992 30.4314 71.663C31.6288 75.807 30.5167 80.3685 26.9653 83.6152C24.4101 85.9396 20.9679 86.7933 17.4575 86.8244L23.9462 80.8951C24.1705 80.6905 24.3279 80.4328 24.4009 80.1511C24.4738 79.8693 24.4593 79.5745 24.3589 79.2998L21.6536 71.8874C21.5699 71.6581 21.4289 71.4498 21.2418 71.279C21.0546 71.1081 20.8266 70.9793 20.5756 70.9028L12.4596 68.432C12.1589 68.3403 11.8361 68.3271 11.5276 68.3937C11.2191 68.4603 10.937 68.6041 10.713 68.809L4.21746 74.7414C4.24475 71.5322 5.17609 68.3852 7.7313 66.0515C11.2827 62.808 16.2805 61.7922 20.8212 62.889C21.1094 62.9574 21.4122 62.9557 21.6995 62.8841C21.9868 62.8125 22.2486 62.6735 22.4587 62.4808L68.7596 20.2027C68.9711 20.0099 69.1234 19.7696 69.2012 19.506C69.2791 19.2424 69.2797 18.9648 69.2031 18.7009C68.0056 14.5538 69.1144 9.99232 72.6692 6.74256C74.3549 5.20094 76.4569 4.09377 78.7621 3.5333C79.3113 3.40244 79.8811 3.39932 80.4542 3.43359H80.4508ZM8.00081 3.62054L16.2635 9.01085L16.7581 12.164L15.2127 13.5755L13.6673 14.99L10.2149 14.5382L4.31298 6.99182L8.00081 3.62054ZM46.52 34.7846C46.9192 34.7846 47.291 34.903 47.6424 35.0837L38.7657 43.1879C38.5043 42.79 38.3975 42.3232 38.4625 41.8629C38.5275 41.4027 38.7605 40.976 39.1239 40.6516L44.862 35.4109C45.0787 35.211 45.3371 35.0529 45.6219 34.9459C45.9067 34.8388 46.2121 34.7851 46.52 34.7877V34.7846ZM63.8266 44.4747L96.9147 74.6885C97.1373 74.8854 97.3143 75.1212 97.4352 75.3819C97.5561 75.6426 97.6184 75.9228 97.6184 76.2058C97.6184 76.4889 97.5561 76.7691 97.4352 77.0298C97.3143 77.2905 97.1373 77.5263 96.9147 77.7232L85.4486 88.1985C85.2338 88.4025 84.976 88.5648 84.6908 88.6757C84.4057 88.7866 84.0989 88.8437 83.7889 88.8437C83.479 88.8437 83.1722 88.7866 82.887 88.6757C82.6019 88.5648 82.3441 88.4025 82.1292 88.1985L49.0377 57.9754L52.3571 54.9468L85.4486 85.1668L87.8606 82.964L54.769 52.7409L58.0952 49.7061L91.1868 79.9292L93.5953 77.7232L60.5072 47.5032L63.8266 44.4716V44.4747Z" fill="#FBCD40"/>
</svg>
