<svg width="28" height="25" viewBox="0 0 28 25" fill="none" xmlns="http://www.w3.org/2000/svg">
<path d="M20.3728 14.9726C20.0985 14.8481 18.3157 14.101 18.0414 13.9765C17.7671 13.852 17.4928 13.852 17.2185 14.101C16.9442 14.35 16.3957 15.0971 16.1214 15.3461C15.9842 15.5952 15.7099 15.5952 15.4357 15.4707C14.4757 15.0971 13.5157 14.5991 12.6928 13.9765C12.0071 13.3539 11.3214 12.6069 10.7728 11.8598C10.6357 11.6108 10.7728 11.3617 10.91 11.2372C11.0471 11.1127 11.1842 10.8637 11.4585 10.7392C11.5957 10.6147 11.7328 10.3657 11.7328 10.2411C11.87 10.1166 11.87 9.8676 11.7328 9.74309C11.5957 9.61858 10.91 8.12443 10.6357 7.50187C10.4985 6.63028 10.2242 6.63028 9.94996 6.63028H9.26424C8.98996 6.63028 8.57853 6.87931 8.44139 7.00382C7.61853 7.75089 7.20711 8.62248 7.20711 9.61858C7.34425 10.7392 7.75568 11.8598 8.57853 12.8559C10.0871 14.8481 12.0071 16.4668 14.3385 17.4629C15.0242 17.7119 15.5728 17.9609 16.2585 18.0854C16.9442 18.3344 17.6299 18.3344 18.4528 18.2099C19.4128 18.0854 20.2357 17.4629 20.7842 16.7158C21.0585 16.2177 21.0585 15.7197 20.9214 15.2216L20.3728 14.9726M23.8014 3.64199C18.4528 -1.214 9.81282 -1.214 4.46425 3.64199C0.0756903 7.62638 -0.747165 13.7275 2.26997 18.5835L0.349976 24.9336L7.61853 23.1904C9.67567 24.1865 11.87 24.6846 14.0642 24.6846C21.6071 24.6846 27.6414 19.206 27.6414 12.3578C27.7785 9.12053 26.2699 6.00772 23.8014 3.64199M20.0985 21.0737C18.3157 22.0698 16.2585 22.6924 14.0642 22.6924C12.0071 22.6924 10.0871 22.1943 8.30425 21.3227L7.89282 21.0737L3.6414 22.0698L4.73854 18.3344L4.46425 17.9609C1.17283 12.9804 2.81854 6.75479 8.1671 3.64199C13.5157 0.529178 20.3728 2.14784 23.6642 6.87931C26.9556 11.7353 25.4471 18.0854 20.0985 21.0737Z" fill="#27B345"/>
</svg>
