<svg width="31" height="21" viewBox="0 0 31 21" fill="none" xmlns="http://www.w3.org/2000/svg">
<path d="M30.3615 3.29421C30.004 2.07068 28.957 1.10597 27.6292 0.77656C25.2034 0.164795 15.4999 0.164795 15.4999 0.164795C15.4999 0.164795 5.79652 0.164795 3.37066 0.75303C2.06836 1.08244 0.995877 2.07068 0.638383 3.29421C0 5.5295 0 10.1648 0 10.1648C0 10.1648 0 14.8236 0.638383 17.0354C0.995877 18.2589 2.04282 19.2236 3.37066 19.553C5.82205 20.1648 15.4999 20.1648 15.4999 20.1648C15.4999 20.1648 25.2034 20.1648 27.6292 19.5766C28.957 19.2471 30.004 18.2824 30.3615 17.0589C30.9999 14.8236 30.9999 10.1883 30.9999 10.1883C30.9999 10.1883 31.0254 5.5295 30.3615 3.29421Z" fill="#FF0000"/>
<path d="M12.4102 5.88232V14.447L20.4793 10.1647L12.4102 5.88232Z" fill="white"/>
</svg>
