<svg width="157" height="93" viewBox="0 0 157 93" fill="none" xmlns="http://www.w3.org/2000/svg">
<path d="M0.819745 51.645V47.1822H23.6119C25.9586 47.1822 26.2479 46.3014 26.2479 45.538V42.5873C26.2479 41.8239 25.9425 40.9431 23.6119 40.9431H8.56714C7.07231 40.9431 5.77036 40.7963 4.70952 40.5027C3.61652 40.2091 2.71641 39.7834 2.02525 39.2402C1.31802 38.6971 0.787598 38.0218 0.46613 37.2584C0.144661 36.5244 0 35.6876 0 34.7921V33.4269C0 32.5314 0.160734 31.6946 0.46613 30.9606C0.787598 30.1972 1.31802 29.5366 2.02525 28.9788C2.71641 28.4356 3.6326 28.0099 4.70952 27.7163C5.77036 27.4227 7.07231 27.2759 8.56714 27.2759H30.7806V31.7386H8.56714C6.22042 31.7386 5.9311 32.6195 5.9311 33.3828V34.8068C5.9311 35.5702 6.23649 36.451 8.56714 36.451H23.6119C25.1067 36.451 26.4087 36.5978 27.4695 36.8914C28.5625 37.185 29.4626 37.6107 30.1538 38.1539C30.861 38.7117 31.3914 39.3723 31.7129 40.1357C32.0344 40.8697 32.179 41.7065 32.179 42.602V45.494C32.179 46.3895 32.0183 47.2262 31.7129 47.9602C31.3914 48.7236 30.861 49.3842 30.1538 49.9421C29.4626 50.4852 28.5464 50.911 27.4695 51.2046C26.4087 51.4982 25.1067 51.645 23.6119 51.645H0.819745Z" fill="white"/>
<path d="M50.5188 51.645C49.024 51.645 47.722 51.4982 46.6612 51.2046C45.5682 50.911 44.6681 50.4853 43.9769 49.9421C43.2697 49.3842 42.7393 48.7236 42.4178 47.9603C42.0963 47.2263 41.9517 46.3895 41.9517 45.494V33.4122C41.9517 32.5167 42.1124 31.68 42.4178 30.946C42.7393 30.1826 43.2697 29.522 43.9769 28.9641C44.6681 28.421 45.5843 27.9952 46.6612 27.7016C47.722 27.408 49.024 27.2612 50.5188 27.2612H67.412C68.9068 27.2612 70.2088 27.408 71.2696 27.7016C72.3626 27.9952 73.2627 28.421 73.9539 28.9641C74.6611 29.522 75.1915 30.1826 75.513 30.946C75.8345 31.6946 75.9791 32.5167 75.9791 33.4122V45.494C75.9791 46.3895 75.8184 47.2263 75.513 47.9603C75.1915 48.7236 74.6611 49.3842 73.9539 49.9421C73.2627 50.4853 72.3465 50.911 71.2696 51.2046C70.2088 51.4982 68.9068 51.645 67.412 51.645H50.5188ZM50.5188 31.7387C48.1721 31.7387 47.8828 32.6195 47.8828 33.3829V45.5234C47.8828 46.2867 48.1882 47.1675 50.5188 47.1675H67.412C69.7587 47.1675 70.048 46.2867 70.048 45.5234V33.3829C70.048 32.6195 69.7426 31.7387 67.412 31.7387H50.5188Z" fill="white"/>
<path d="M88.5002 51.645V27.2759H94.4796V47.1822H115.23V51.645H88.5002Z" fill="white"/>
<path d="M131.481 51.645C129.986 51.645 128.684 51.4982 127.623 51.2046C126.53 50.911 125.63 50.4853 124.939 49.9421C124.232 49.3989 123.701 48.7236 123.38 47.9603C123.058 47.2263 122.914 46.3895 122.914 45.494V33.4122C122.914 32.5167 123.074 31.68 123.38 30.946C123.701 30.1826 124.232 29.522 124.939 28.9641C125.63 28.421 126.546 27.9952 127.623 27.7016C128.684 27.408 129.986 27.2612 131.481 27.2612H148.374C149.869 27.2612 151.171 27.408 152.232 27.7016C153.325 27.9952 154.225 28.421 154.916 28.9641C155.623 29.522 156.154 30.1826 156.475 30.946C156.797 31.68 156.941 32.5167 156.941 33.4122V45.494C156.941 46.3895 156.78 47.2263 156.475 47.9603C156.154 48.7236 155.623 49.3842 154.916 49.9421C154.225 50.4853 153.309 50.911 152.232 51.2046C151.171 51.4982 149.869 51.645 148.374 51.645H131.481ZM131.481 31.7387C129.134 31.7387 128.845 32.6195 128.845 33.3829V45.5234C128.845 46.2867 129.15 47.1675 131.481 47.1675H148.374C150.721 47.1675 151.01 46.2867 151.01 45.5234V33.3829C151.01 32.6195 150.705 31.7387 148.374 31.7387H131.481Z" fill="white"/>
<path d="M60.8863 71.1258L54.7945 62.4351L48.6062 71.1258H44.6682L53.6372 58.7944H55.9518L64.8565 71.1258H60.8863Z" fill="white"/>
<path d="M68.3283 71.1258L59.3433 58.7944H63.3455L69.5177 67.4851L75.6096 58.7944H79.5315L70.6268 71.1258H68.3283Z" fill="white"/>
<path d="M86.9252 71.1258V61.4809H80.4315V58.7944H96.6978V61.4809H90.3649V71.1258H86.9252Z" fill="white"/>
<path d="M102.002 71.1253C101.247 71.1253 100.588 71.0519 100.041 70.9051C99.4786 70.7436 98.9964 70.5234 98.6267 70.2445C98.241 69.9508 97.9677 69.5985 97.7909 69.1875C97.6302 68.8058 97.5498 68.3654 97.5498 67.8956V62.0382C97.5498 61.5685 97.6302 61.1281 97.7909 60.7464C97.9677 60.3353 98.241 59.983 98.6267 59.6894C98.9964 59.4105 99.4625 59.1756 100.025 59.0288C100.572 58.882 101.231 58.8086 101.986 58.8086H110.167C110.923 58.8086 111.582 58.882 112.128 59.0288C112.691 59.1756 113.173 59.4105 113.527 59.6894C113.913 59.983 114.186 60.3353 114.363 60.7464C114.523 61.1427 114.604 61.5685 114.604 62.0382V67.8956C114.604 68.3654 114.523 68.8058 114.363 69.1875C114.186 69.5985 113.913 69.9508 113.527 70.2445C113.157 70.5234 112.691 70.7583 112.128 70.9051C111.582 71.0519 110.923 71.1253 110.167 71.1253H102.002ZM102.002 61.4804C101.006 61.4804 101.006 61.818 101.006 62.0236V67.9103C101.006 68.1158 101.006 68.4535 102.002 68.4535H110.184C111.18 68.4535 111.18 68.1158 111.18 67.9103V62.0236C111.18 61.818 111.18 61.4804 110.184 61.4804H102.002Z" fill="white"/>
<path d="M79.6438 92.1329C69.4211 92.1329 59.6003 89.3143 51.2421 83.9854C43.0768 78.774 36.8724 71.566 33.288 63.1102C32.9184 62.2294 33.4006 61.2459 34.3489 60.9082C35.3133 60.5706 36.3902 61.011 36.7599 61.8771C43.559 77.9372 60.7897 88.7271 79.6438 88.7271C98.498 88.7271 115.729 77.9372 122.528 61.8918C122.897 61.011 123.974 60.5853 124.939 60.9229C125.903 61.2605 126.369 62.2441 126 63.1249C122.415 71.5807 116.211 78.7887 108.046 84.0001C99.7035 89.3143 89.8666 92.1329 79.6438 92.1329Z" fill="#FBCD40"/>
<path d="M121.708 26.2775C121.049 26.2775 120.406 25.9545 120.069 25.382C112.016 11.8175 96.5209 3.4058 79.6438 3.4058C62.7667 3.4058 47.2719 11.8322 39.2191 25.3967C38.7208 26.2188 37.5957 26.5271 36.6956 26.0867C35.7955 25.6316 35.4579 24.604 35.9401 23.7819C44.6519 9.11639 61.4004 0 79.6438 0C97.8872 0 114.636 9.1017 123.347 23.7672C123.846 24.5893 123.508 25.6316 122.592 26.072C122.319 26.2188 122.013 26.2775 121.708 26.2775Z" fill="#FBCD40"/>
</svg>
