<svg width="130" height="84" viewBox="0 0 130 84" fill="none" xmlns="http://www.w3.org/2000/svg">
<path d="M100.806 23.8273C100.527 23.8288 100.252 23.7544 100.012 23.6119C99.7712 23.4694 99.5739 23.2643 99.4411 23.0183C96.1732 16.9891 91.3377 11.9543 85.4452 8.44575C79.5528 4.93719 72.8222 3.0851 65.9643 3.0851C59.1064 3.0851 52.3758 4.93719 46.4833 8.44575C40.5909 11.9543 35.7554 16.9891 32.4875 23.0183C32.2852 23.3648 31.956 23.619 31.5696 23.7269C31.1832 23.8349 30.7699 23.7883 30.4173 23.5969C30.0647 23.4055 29.8004 23.0843 29.6805 22.7015C29.5605 22.3186 29.5943 21.9041 29.7747 21.5457C33.308 15.0286 38.5355 9.58653 44.9054 5.7942C51.2753 2.00186 58.551 0 65.9643 0C73.3776 0 80.6533 2.00186 87.0232 5.7942C93.393 9.58653 98.6206 15.0286 102.154 21.5457C102.281 21.7808 102.345 22.0449 102.34 22.3122C102.334 22.5795 102.26 22.8408 102.123 23.0706C101.986 23.3003 101.792 23.4906 101.56 23.6229C101.328 23.7551 101.065 23.8248 100.797 23.825L100.806 23.8273Z" fill="#F8C84A"/>
<path d="M0.693461 46.8236V42.7767H19.5648C21.5044 42.7767 21.7525 41.9767 21.7525 41.2795V38.598C21.7525 37.9008 21.5044 37.1008 19.5648 37.1008H7.10904C6.02897 37.1224 4.95138 36.9892 3.90907 36.7053C3.09338 36.4829 2.33254 36.0942 1.67446 35.5634C1.10099 35.0861 0.658102 34.4709 0.387319 33.7757C0.120046 33.0584 -0.0110599 32.2975 0.00073004 31.5321V30.2986C-0.00780553 29.5358 0.125558 28.7781 0.394022 28.064C0.664829 27.3682 1.1086 26.7529 1.6834 26.2763C2.34032 25.7433 3.1015 25.3535 3.91801 25.1322C4.96053 24.8494 6.03797 24.7162 7.11798 24.7367H25.5089V28.7858H7.10904C5.1694 28.7858 4.92136 29.5858 4.92136 30.2807V31.5746C4.92136 32.2718 5.1694 33.0718 7.10904 33.0718H19.5648C20.6448 33.0513 21.7222 33.1845 22.7648 33.4673C23.5805 33.6896 24.3413 34.0784 24.9994 34.6092C25.5717 35.0881 26.015 35.7027 26.2888 36.3969C26.5552 37.1114 26.6878 37.8689 26.6798 38.6315V41.2505C26.6878 42.013 26.5552 42.7706 26.2888 43.4851C26.0161 44.1799 25.5726 44.7947 24.9994 45.2728C24.3422 45.8055 23.5811 46.1952 22.7648 46.4169C21.7222 46.6997 20.6448 46.8329 19.5648 46.8124L0.693461 46.8236Z" fill="#343C42"/>
<path d="M41.8596 46.8238C40.7796 46.8443 39.7022 46.7111 38.6597 46.4283C37.844 46.206 37.0831 45.8172 36.4251 45.2864C35.8528 44.8075 35.4095 44.1929 35.1357 43.4987C34.8692 42.7842 34.7367 42.0267 34.7446 41.2641V30.3145C34.7365 29.5519 34.869 28.7944 35.1357 28.0799C35.4081 27.3849 35.8516 26.77 36.4251 26.2922C37.0829 25.7606 37.8438 25.3711 38.6597 25.1481C39.7022 24.8652 40.7796 24.7321 41.8596 24.7525H55.8483C56.9283 24.7321 58.0058 24.8652 59.0483 25.1481C59.8647 25.3697 60.6258 25.7594 61.2829 26.2922C61.8556 26.7707 62.299 27.3854 62.5723 28.0799C62.8383 28.7945 62.9709 29.552 62.9634 30.3145V41.2641C62.9711 42.0267 62.8386 42.7841 62.5723 43.4987C62.2996 44.1935 61.8561 44.8084 61.2829 45.2864C60.6261 45.8196 59.8649 46.2093 59.0483 46.4305C58.0058 46.7134 56.9283 46.8465 55.8483 46.8261L41.8596 46.8238ZM41.8596 28.7726C39.92 28.7726 39.6697 29.5726 39.6697 30.2676V41.2798C39.6697 41.977 39.92 42.7769 41.8596 42.7769H55.8483C57.788 42.7769 58.0383 41.977 58.0383 41.2798V30.2676C58.0383 29.5726 57.788 28.7726 55.8483 28.7726H41.8596Z" fill="#343C42"/>
<path d="M73.3074 46.8237V24.7256H78.2571V42.7768H95.4345V46.8237H73.3074Z" fill="#343C42"/>
<path d="M108.891 46.8234C107.814 46.8432 106.739 46.7101 105.698 46.4279C104.882 46.2057 104.121 45.8161 103.464 45.2837C102.89 44.8062 102.448 44.1911 102.176 43.496C101.908 42.7819 101.775 42.0242 101.783 41.2614V30.3118C101.775 29.549 101.908 28.7913 102.176 28.0772C102.447 27.3814 102.891 26.7661 103.466 26.2895C104.123 25.7577 104.884 25.3681 105.7 25.1454C106.743 24.8625 107.82 24.7294 108.9 24.7499H122.882C123.962 24.7296 125.04 24.8628 126.082 25.1454C126.899 25.3672 127.66 25.7569 128.317 26.2895C128.891 26.7672 129.334 27.3821 129.606 28.0772C129.875 28.7913 130.008 29.549 130 30.3118V41.2614C130.008 42.0242 129.875 42.7819 129.606 43.496C129.334 44.1912 128.891 44.8062 128.317 45.2837C127.659 45.8153 126.898 46.2042 126.082 46.4256C125.041 46.7082 123.964 46.8414 122.885 46.8212L108.891 46.8234ZM108.891 28.7722C106.952 28.7722 106.704 29.5722 106.704 30.2671V41.2793C106.704 41.9765 106.952 42.7765 108.891 42.7765H122.882C124.822 42.7765 125.07 41.9765 125.07 41.2793V30.2671C125.07 29.5722 124.822 28.7722 122.882 28.7722H108.891Z" fill="#343C42"/>
<path d="M50.4383 64.4839L45.397 56.6092L40.273 64.4839H37.0105L44.4406 53.3064H46.3467L53.7299 64.4839H50.4383Z" fill="#343C42"/>
<path d="M56.5925 64.4839L49.1624 53.3064H52.4696L57.5802 61.1812L62.6349 53.3064H65.8818L58.5008 64.4839H56.5925Z" fill="#343C42"/>
<path d="M71.9978 64.4839V55.7399H66.6213V53.3064H80.0849V55.7399H74.8537V64.4839H71.9978Z" fill="#343C42"/>
<path d="M84.4803 64.4838C83.9342 64.4931 83.3896 64.4254 82.8624 64.2827C82.4374 64.1672 82.041 63.9648 81.6982 63.6883C81.3905 63.4301 81.1524 63.099 81.0055 62.7252C80.8653 62.3509 80.7955 61.9539 80.7999 61.5542V56.2425C80.7955 55.8429 80.8653 55.4459 81.0055 55.0716C81.1524 54.6978 81.3905 54.3667 81.6982 54.1085C82.0404 53.8296 82.4369 53.6249 82.8624 53.5074C83.3893 53.3634 83.9342 53.2957 84.4803 53.3062H91.2556C91.8018 53.2957 92.3466 53.3634 92.8735 53.5074C93.2992 53.6244 93.6958 53.8292 94.0377 54.1085C94.3463 54.3658 94.5847 54.6972 94.7305 55.0716C94.8707 55.4459 94.9404 55.8429 94.9361 56.2425V61.5475C94.9404 61.9472 94.8707 62.3442 94.7305 62.7184C94.5847 63.0929 94.3463 63.4242 94.0377 63.6816C93.6952 63.96 93.2989 64.1647 92.8735 64.2827C92.3463 64.4254 91.8017 64.4931 91.2556 64.4838H84.4803ZM84.4803 55.7397C83.6579 55.7397 83.6579 56.0459 83.6579 56.2269V61.5609C83.6579 61.7442 83.6579 62.0481 84.4803 62.0481H91.2556C92.0802 62.0481 92.0802 61.7442 92.0802 61.5609V56.2269C92.0802 56.0459 92.0802 55.7397 91.2556 55.7397H84.4803Z" fill="#343C42"/>
<path d="M65.9733 83.5294C57.6666 83.5298 49.5543 81.0169 42.7024 76.3211C35.8504 71.6252 30.5796 64.9662 27.5825 57.2191C27.5092 57.0301 27.4738 56.8285 27.4783 56.6258C27.4828 56.4232 27.5273 56.2234 27.609 56.0379C27.7741 55.6632 28.0813 55.3695 28.463 55.2213C28.8446 55.0732 29.2695 55.0827 29.6442 55.2478C30.0188 55.4129 30.3126 55.7201 30.4607 56.1018C36.0897 70.6625 50.3622 80.4479 65.9733 80.4479C81.5843 80.4479 95.8657 70.6625 101.484 56.1062C101.557 55.9171 101.667 55.7443 101.807 55.5976C101.947 55.451 102.115 55.3333 102.3 55.2515C102.486 55.1696 102.686 55.1251 102.889 55.1205C103.092 55.1159 103.293 55.1513 103.482 55.2247C103.672 55.298 103.844 55.4079 103.991 55.5481C104.138 55.6883 104.255 55.8559 104.337 56.0415C104.419 56.2271 104.464 56.4271 104.468 56.6299C104.473 56.8327 104.437 57.0344 104.364 57.2235C101.366 64.9701 96.0951 71.6286 89.2433 76.3244C82.3916 81.0201 74.2796 83.5333 65.9733 83.5339V83.5294Z" fill="#F8C84A"/>
</svg>
