<svg width="164" height="23" viewBox="0 0 164 23" fill="none" xmlns="http://www.w3.org/2000/svg">
<path fill-rule="evenodd" clip-rule="evenodd" d="M41.367 12.0616C41.6937 8.17655 38.5418 5.24472 35.7475 3.58388C34.7064 2.99305 33.6297 2.47991 32.5249 2.04822C27.2883 0.165715 21.7346 -0.429465 16.2622 0.30546C11.19 1.06612 6.23697 2.37072 2.3611 6.222C0.511451 8.09945 -0.570088 10.9206 0.312799 13.6308C1.49587 16.9044 4.64777 19.0949 7.45977 20.3706C15.7766 24.0438 27.0863 23.909 35.1383 19.7111C37.8973 18.1947 40.983 15.6721 41.367 12.0616ZM23.9583 18.4744C24.6221 17.1535 25.3117 15.7815 25.0248 14.1556C24.9015 13.8519 24.7083 13.588 24.4638 13.3898C24.2194 13.1915 23.9321 13.0656 23.6298 13.0244C22.2216 12.8221 20.8443 13.2506 19.573 13.6501L19.1242 13.8135C15.8547 15.0037 12.5728 16.1984 9.79942 18.652C9.72844 18.7104 9.67528 18.7908 9.64693 18.8827C9.61857 18.9746 9.61633 19.0737 9.6405 19.167C9.72574 19.3094 9.85625 19.4123 10.0069 19.4559C13.2918 20.5258 16.6968 21.0944 20.1248 21.1457C21.6875 21.319 22.9853 20.1684 23.7755 18.8397C23.8357 18.7183 23.8969 18.5965 23.9583 18.4744ZM39.5924 12.4226C40.0824 10.0156 38.6213 8.00319 36.9923 6.55896C36.8681 6.46987 36.7477 6.36997 36.6272 6.26995C36.2853 5.98635 35.942 5.70145 35.5047 5.65879C35.3936 5.70309 35.2949 5.77761 35.2177 5.8754C34.5865 7.39179 33.9022 8.93709 33.1694 10.444C31.6088 13.8839 29.6618 17.0987 27.3733 20.0143L27.3336 20.2118C27.36 20.3706 27.5322 20.3706 27.6381 20.3706C29.2681 20.1371 30.8678 19.6993 32.4057 19.066C35.231 17.8624 38.7758 15.9753 39.5924 12.4226ZM14.0152 2.99658L14.0682 2.77997C13.9862 2.61401 13.7905 2.61719 13.612 2.62036C13.5886 2.62071 13.5654 2.62107 13.5429 2.62107C11.823 2.92935 10.1366 3.42945 8.51041 4.11348C5.80436 5.33616 2.55975 7.18963 1.75632 10.6317C1.27073 13.2651 3.00561 15.4843 4.92588 16.8612C5.02629 16.9108 5.12855 16.9874 5.23241 17.0652C5.52127 17.2815 5.82256 17.5071 6.13102 17.1885C8.27644 12.2492 10.5587 7.27625 14.0152 2.99658ZM31.3889 3.55556C31.3282 3.52888 31.267 3.50185 31.2094 3.46835C27.8134 2.40845 24.2972 1.87686 20.7649 1.88931C19.0609 1.91823 17.8249 3.65123 17.1274 5.12919C16.6021 6.3038 16.0017 7.70959 16.4431 9.05274C16.5549 9.26524 16.7047 9.45106 16.8837 9.59915C17.0626 9.74724 17.2671 9.85443 17.485 9.91437C18.8965 10.251 20.2045 9.84479 21.4839 9.44741C21.833 9.33893 22.1799 9.23116 22.5262 9.13936C25.7046 8.00801 28.8212 6.73232 31.5405 4.39744C31.562 4.3677 31.5871 4.33703 31.6129 4.30553C31.7249 4.16884 31.8509 4.01511 31.7612 3.83905C31.6828 3.6852 31.5376 3.62114 31.3889 3.55556Z" fill="#343C42"/>
<path fill-rule="evenodd" clip-rule="evenodd" d="M156.857 20.4621V2.52963L145.128 2.55372C142.475 2.55372 141.553 3.92085 141.553 6.40499V20.4621H145.128V15.3111H153.282V20.4621H156.857ZM146.55 5.82251H153.282L153.264 11.8064H145.111V7.69514C145.111 6.20272 145.424 5.89467 146.55 5.82251Z" fill="#343C42"/>
<path fill-rule="evenodd" clip-rule="evenodd" d="M137.977 16.1053V6.40017C137.977 4.63814 137.447 2.52481 134.406 2.52481H123.127V20.4621H134.406C136.388 20.4621 137.977 19.1959 137.977 16.1053ZM134.275 6.81682C134.346 7.0218 134.375 7.24088 134.361 7.45925L134.375 15.3062C134.375 16.0332 134.264 16.9478 132.865 17.0249H126.685V5.82251H132.865C133.065 5.80829 133.266 5.84084 133.454 5.91818C133.642 5.9954 133.812 6.11563 133.954 6.27065C134.095 6.42556 134.205 6.61185 134.275 6.81682Z" fill="#343C42"/>
<path d="M53.8466 2.52481H50.2577L50.2709 20.4621H53.8466V13.1399H61.8412V20.4621H65.4169V2.52481H61.8412V9.62077H53.8466V2.52481Z" fill="#343C42"/>
<path d="M76.0115 9.85666L71.5309 2.52481H67.1915L74.2237 13.992V20.4621H77.7994V13.992L84.7697 2.52481H80.4259L76.0115 9.85666Z" fill="#343C42"/>
<path d="M116.368 2.52481H104.847V20.4621H108.422V5.82733H114.695C115.808 5.82733 115.98 6.14983 115.98 7.69514V20.4621H119.551V6.40017C119.6 2.77997 118.01 2.52481 116.368 2.52481Z" fill="#343C42"/>
<path d="M164 20.4621V2.52481L160.424 2.52963V20.4621H164Z" fill="#343C42"/>
<path d="M98.0881 20.4621H86.5708V2.52481H90.1421V17.0489H96.4194C97.5275 17.0489 97.6996 16.866 97.6996 15.3303V2.52481H101.275V16.1294C101.319 19.7352 100.379 20.4621 98.0881 20.4621Z" fill="#343C42"/>
</svg>
