<?xml version="1.0" encoding="utf-8"?>
<!-- Generator: Adobe Illustrator 26.0.3, SVG Export Plug-In . SVG Version: 6.00 Build 0)  -->
<svg version="1.1" id="Layer_1" xmlns="http://www.w3.org/2000/svg" xmlns:xlink="http://www.w3.org/1999/xlink" x="0px" y="0px"
	 viewBox="0 0 72.76 48" style="enable-background:new 0 0 72.76 48;" xml:space="preserve">
<style type="text/css">
	.st0{fill:#393939;}
</style>
<g>
	<path class="st0" d="M37.86,42.64c-3.66,0.03-6.57-0.1-9.46-0.46c-1.88-0.24-3.76-0.54-5.62-0.9c-3.21-0.62-6.33-1.56-9.35-2.82
		c-2.78-1.16-5.42-2.58-7.78-4.48c-1.54-1.24-2.91-2.64-3.96-4.34c-0.9-1.45-1.49-3.01-1.65-4.72c-0.24-2.53,0.47-4.81,1.85-6.9
		c1.58-2.39,3.72-4.19,6.12-5.71c2.99-1.91,6.23-3.28,9.62-4.3c1.56-0.47,3.14-0.9,4.74-1.24c1.56-0.34,3.14-0.59,4.72-0.8
		c1.61-0.21,3.23-0.37,4.86-0.47c1.9-0.11,3.8-0.19,5.7-0.15c2,0.04,4.01,0.14,6,0.37c2.11,0.23,4.21,0.59,6.3,0.98
		c2.13,0.39,4.22,0.97,6.28,1.66c2.94,0.99,5.76,2.22,8.39,3.87c2.06,1.3,3.94,2.82,5.47,4.73c1.47,1.84,2.46,3.9,2.64,6.27
		c0.15,1.97-0.27,3.83-1.2,5.58c-1.3,2.44-3.22,4.32-5.43,5.93c-2.57,1.86-5.39,3.23-8.35,4.34c-2.72,1.02-5.52,1.78-8.37,2.33
		c-2.55,0.49-5.12,0.86-7.71,1.01C40.15,42.52,38.63,42.6,37.86,42.64z M69.79,23.96c0-0.16,0.01-0.33,0-0.49
		c-0.1-1.69-0.77-3.16-1.74-4.52c-1.03-1.43-2.32-2.6-3.76-3.6c-0.54-0.38-1.12-0.73-1.7-1.04c-0.37-0.2-0.73-0.05-0.94,0.31
		c-0.15,0.25-0.26,0.52-0.38,0.78c-1.3,2.76-2.55,5.55-3.93,8.28c-1,1.99-2.14,3.92-3.27,5.85c-1.54,2.64-3.29,5.14-5.23,7.49
		c-0.21,0.25-0.42,0.51-0.59,0.79c-0.19,0.32-0.01,0.63,0.37,0.65c0.24,0.01,0.49,0.02,0.72-0.03c0.86-0.17,1.73-0.32,2.57-0.55
		c1.65-0.47,3.31-0.94,4.93-1.5c3.09-1.07,5.99-2.52,8.55-4.59c1.28-1.03,2.39-2.2,3.23-3.63C69.37,26.87,69.83,25.48,69.79,23.96z
		 M2.93,23.84c0,1.24,0.23,2.3,0.68,3.32c0.63,1.41,1.55,2.61,2.66,3.67c1.08,1.04,2.27,1.93,3.56,2.7
		c0.65,0.39,1.11,0.24,1.39-0.39c0.04-0.09,0.09-0.17,0.13-0.26c0.91-2,1.79-4.01,2.75-5.98c1.29-2.68,2.69-5.3,4.22-7.85
		c1.65-2.75,3.42-5.42,5.46-7.9c0.24-0.29,0.48-0.58,0.69-0.9c0.27-0.4,0.08-0.73-0.4-0.74c-0.23,0-0.47-0.01-0.7,0.03
		c-2.09,0.37-4.15,0.92-6.17,1.58c-2.18,0.71-4.3,1.59-6.32,2.71c-2.26,1.26-4.35,2.74-5.95,4.81C3.71,20.21,2.95,21.95,2.93,23.84z
		 M34.85,39.73c1.02-0.04,1.9-0.02,2.76-0.13c1.69-0.21,2.91-1.18,3.85-2.55c1.05-1.54,1.7-3.27,2.33-5.01
		c0.35-0.95,0.54-1.94,0.47-2.96c-0.06-0.87-0.38-1.62-1.11-2.14c-0.55-0.4-1.18-0.57-1.84-0.65c-1.18-0.15-2.34,0.02-3.49,0.28
		c-1.98,0.44-3.91,1.06-5.82,1.76c-2.4,0.87-4.78,1.79-7.08,2.9c-2.2,1.06-4.33,2.25-6.31,3.7c-0.37,0.27-0.74,0.57-1.07,0.89
		c-0.48,0.46-0.4,0.89,0.21,1.18c0.06,0.03,0.12,0.06,0.19,0.08c0.49,0.15,0.98,0.31,1.47,0.45c3.25,0.9,6.56,1.5,9.91,1.81
		C31.21,39.51,33.1,39.61,34.85,39.73z M36.76,8.22c-1.05,0-2.07,0.12-3.03,0.58c-1.28,0.61-2.15,1.64-2.8,2.86
		c-0.54,1.01-1.01,2.07-1.45,3.13c-0.53,1.26-0.93,2.56-0.89,3.96c0.03,1.3,0.79,2.33,2.03,2.71c1.04,0.32,2.11,0.3,3.17,0.15
		c1.58-0.22,3.1-0.66,4.61-1.14c2.62-0.84,5.19-1.81,7.71-2.91c2.74-1.2,5.39-2.56,7.82-4.31c0.51-0.37,1-0.77,1.46-1.19
		c0.4-0.37,0.32-0.8-0.17-1.06c-0.11-0.06-0.23-0.11-0.35-0.15c-0.96-0.27-1.91-0.58-2.88-0.79c-1.63-0.36-3.27-0.72-4.92-0.97
		c-1.92-0.29-3.86-0.5-5.79-0.67C39.78,8.3,38.27,8.29,36.76,8.22z"/>
</g>
</svg>
