<?xml version="1.0" encoding="utf-8"?>
<!-- Generator: Adobe Illustrator 26.0.3, SVG Export Plug-In . SVG Version: 6.00 Build 0)  -->
<svg version="1.1" id="Layer_1" xmlns="http://www.w3.org/2000/svg" xmlns:xlink="http://www.w3.org/1999/xlink" x="0px" y="0px"
	 viewBox="0 0 66.89 48" style="enable-background:new 0 0 66.89 48;" xml:space="preserve">
<style type="text/css">
	.st0{fill:#393939;}
</style>
<g>
	<path class="st0" d="M42.12,41.39c-2.88-8.38-5.74-16.72-8.66-25.24c-0.13,0.33-0.2,0.51-0.27,0.69
		c-2.75,8.02-5.51,16.03-8.25,24.06c-0.14,0.42-0.32,0.53-0.74,0.47c-3.79-0.56-7.54-1.3-11.17-2.54c-3.35-1.14-6.46-2.71-8.95-5.29
		c-2.39-2.47-3.9-5.35-4.06-8.85c-0.13-2.9,0.86-5.41,2.64-7.64c2.43-3.05,5.65-5.02,9.17-6.53c4.33-1.87,8.89-2.88,13.56-3.43
		c5.12-0.6,10.25-0.63,15.38-0.09c5.74,0.6,11.3,1.87,16.47,4.54c2.54,1.31,4.87,2.93,6.7,5.16c3.78,4.63,3.94,10.06,0.46,14.93
		c-2.28,3.19-5.4,5.24-9.05,6.59c-4.1,1.52-8.3,2.58-12.64,3.13C42.54,41.38,42.36,41.38,42.12,41.39z M33.43,12.23
		c0.18,0.23,0.32,0.39,0.44,0.56c4.5,6.03,8.99,12.06,13.48,18.1c0.23,0.31,0.45,0.43,0.82,0.36c0.71-0.13,1.42-0.2,2.12-0.36
		c2.93-0.68,5.69-1.73,8-3.73c2.94-2.55,3.39-5.81,1.25-9.06c-1.45-2.2-3.5-3.73-5.78-4.97c-4.58-2.5-9.55-3.66-14.69-4.18
		c-4.25-0.43-8.51-0.38-12.74,0.22c-4.22,0.6-8.29,1.67-12.12,3.59c-2.44,1.22-4.69,2.7-6.37,4.9C6.61,19.25,5.87,21,6.2,23.07
		c0.26,1.66,1.18,2.95,2.42,4c2.88,2.44,6.3,3.59,9.97,4.19c0.48,0.08,0.73-0.08,1-0.44c2.77-3.75,5.57-7.49,8.35-11.23
		C29.75,17.17,31.56,14.73,33.43,12.23z"/>
</g>
</svg>
