<svg width="66" height="32" viewBox="0 0 66 32" fill="none" xmlns="http://www.w3.org/2000/svg">
<path fill-rule="evenodd" clip-rule="evenodd" d="M22.2286 31.8473C23.0383 30.4333 25.2731 25.2995 26.2589 23.3251C27.2691 21.2988 32.6648 9.44007 32.9939 9.08122L43.0291 32C50.3978 30.9433 61.1646 27.3152 64.725 20.9033C69.3905 12.5048 60.3427 5.82718 52.2759 3.06789C46.2017 1.0225 39.8319 -0.0138734 33.421 0.000140234C26.8574 0.0108293 20.1009 0.807924 14.3884 2.80372C10.4546 4.17802 6.75795 5.93102 3.84047 8.60633C-0.0979871 12.2024 -1.45417 17.1911 1.90568 21.9706C2.28235 22.5032 2.69886 23.0065 3.15166 23.4763C4.51703 24.7727 4.55836 24.8506 6.15333 25.979C8.16771 27.4022 10.7959 28.6833 13.4256 29.6301C14.8905 30.1584 20.7147 31.9389 22.2286 31.8473ZM17.6029 24.2031C16.0232 23.9252 13.1792 22.6273 11.8475 21.9264C10.3489 21.1369 8.32691 19.8099 7.28298 18.5777C4.08538 14.7785 4.7451 11.1305 8.40956 7.92376C14.2706 2.80372 25.466 1.29351 33.421 1.2874C38.0804 1.2874 43.1485 1.93943 47.4084 3.11981C49.3966 3.65878 51.3325 4.37424 53.1928 5.25761C55.619 6.42424 58.3237 8.21999 59.7181 10.6021C60.251 11.5319 60.5533 12.5754 60.5998 13.6454C60.7131 16.8353 58.1737 19.2434 55.9128 20.7994C55.1066 21.3353 54.2649 21.8159 53.3933 22.2379C52.2392 22.8166 48.9788 24.2092 47.6257 24.3757C46.3537 22.8991 45.1873 21.3766 43.9796 19.8573L34.9272 8.52387C34.5996 8.12379 33.3965 6.49295 33.0413 6.31277C32.7781 6.82889 27.9809 12.0955 27.2462 13.0591C26.5114 14.0226 23.4363 17.3958 22.4 18.6128L17.6029 24.2031Z" fill="#343C42"/>
</svg>
