<?xml version="1.0" encoding="utf-8"?>
<!-- Generator: Adobe Illustrator 26.0.3, SVG Export Plug-In . SVG Version: 6.00 Build 0)  -->
<svg version="1.1" id="Layer_1" xmlns="http://www.w3.org/2000/svg" xmlns:xlink="http://www.w3.org/1999/xlink" x="0px" y="0px"
	 viewBox="0 0 81.72 48" style="enable-background:new 0 0 81.72 48;" xml:space="preserve">
<style type="text/css">
	.st0{fill:#393939;}
</style>
<g>
	<path class="st0" d="M82.53,16.1c0,3.77,0,7.54,0,11.31c-0.01,0.07-0.03,0.14-0.03,0.21c-0.04,0.57-0.24,1.07-0.64,1.49
		c-0.22,0.23-0.48,0.42-0.76,0.58c-2.23,1.34-4.47,2.68-6.7,4.03c-0.05,0.03-0.1,0.06-0.16,0.08c-0.14,0.06-0.23,0.01-0.26-0.14
		c-0.01-0.08-0.01-0.17-0.01-0.26c0-3.88,0-7.76,0-11.64c0-0.2,0-0.39,0-0.59c0-0.06-0.01-0.13-0.03-0.19
		c-0.03-0.09-0.08-0.12-0.18-0.08c-0.06,0.02-0.13,0.06-0.18,0.1c-6.15,3.99-12.29,7.97-18.44,11.96c-0.48,0.31-0.99,0.46-1.56,0.46
		c-4.01,0-8.03,0-12.04,0c-0.14,0-0.27,0-0.41-0.02c-0.55-0.08-0.93-0.38-1.11-0.92c-0.06-0.2-0.07-0.4-0.07-0.61
		c0-5.01,0-10.01,0-15.02c0-0.06,0-0.12,0-0.18c-0.02-0.2-0.12-0.26-0.3-0.16c-0.14,0.08-0.27,0.16-0.4,0.24
		c-3.92,2.35-7.85,4.7-11.77,7.05c-0.06,0.04-0.12,0.07-0.17,0.12c-0.1,0.08-0.1,0.15-0.03,0.25c0.04,0.05,0.08,0.1,0.13,0.14
		c0.44,0.44,0.87,0.87,1.31,1.31c2.43,2.43,4.87,4.85,7.3,7.28c0.07,0.06,0.13,0.13,0.19,0.2c0.1,0.14,0.06,0.25-0.11,0.28
		c-0.08,0.02-0.17,0.01-0.26,0.01c-2.54,0-5.09,0-7.63,0c-0.16,0-0.33,0-0.49-0.01c-0.45-0.03-0.83-0.17-1.16-0.5
		c-1.69-1.69-3.38-3.38-5.08-5.07c-0.04-0.04-0.08-0.08-0.12-0.11c-0.09-0.09-0.19-0.1-0.3-0.05c-0.06,0.03-0.11,0.06-0.17,0.1
		c-0.94,0.57-1.89,1.13-2.83,1.7c-1.94,1.17-3.89,2.33-5.82,3.5c-0.5,0.3-1.03,0.45-1.62,0.45c-2.64-0.01-5.28-0.01-7.92-0.01
		c-0.08,0-0.15,0-0.23,0c-0.63-0.02-1.13-0.43-1.27-1.04c-0.04-0.17-0.05-0.34-0.05-0.51c0-3.39,0-6.77,0-10.16
		c0-0.33,0.03-0.67,0.08-1c0.08-0.57,0.34-1.05,0.78-1.42c0.2-0.17,0.42-0.32,0.65-0.46c1.06-0.64,2.12-1.27,3.18-1.91
		c1.22-0.73,2.43-1.46,3.65-2.19c0.05,0,0.11,0,0.16,0c0.09,0.14,0.09,0.29,0.09,0.45c0,4.57,0,9.13,0,13.7c0,0.07,0,0.13,0,0.19
		c0.01,0.14,0.08,0.19,0.22,0.14c0.06-0.03,0.13-0.06,0.19-0.1c6.31-3.79,12.62-7.58,18.93-11.37c1.36-0.82,2.72-1.64,4.08-2.46
		c0.39-0.24,0.82-0.35,1.28-0.36c4.13,0,8.27,0,12.4,0c0.13,0,0.27,0.01,0.4,0.03c0.53,0.1,0.9,0.4,1.05,0.93
		c0.05,0.18,0.07,0.38,0.07,0.58c0,3.04,0,6.08,0,9.12c0,1.96,0,3.92-0.01,5.88c0,0.1,0.01,0.21,0.03,0.31
		c0.02,0.11,0.09,0.14,0.19,0.1c0.06-0.03,0.13-0.06,0.18-0.1c2.13-1.38,4.26-2.76,6.39-4.14c6.32-4.1,12.64-8.19,18.96-12.29
		c0.42-0.27,0.87-0.41,1.37-0.41c1.84,0,3.69,0,5.53,0c0.12,0,0.24,0.01,0.36,0.02c0.59,0.07,1.04,0.52,1.12,1.09
		C82.5,16.05,82.52,16.08,82.53,16.1z"/>
</g>
</svg>
