<svg width="85" height="22" viewBox="0 0 85 22" fill="none" xmlns="http://www.w3.org/2000/svg">
<path d="M49.3099 19.475C49.3099 19.6532 49.3608 19.7573 49.4555 19.7573C49.5294 19.745 49.5995 19.7126 49.6593 19.6632L76.1489 0.748885C76.5965 0.403769 77.1332 0.226161 77.6796 0.242286H83.5039C84.3976 0.242286 85 0.89706 85 1.88022V14.1087C85 15.5864 84.7033 16.4474 83.513 17.2324L76.4438 21.9079C76.3726 21.9602 76.2906 21.9919 76.2053 22C76.1198 22 76.0361 21.9259 76.0361 21.6536V7.38673C76.0361 7.21853 75.9924 7.1064 75.8904 7.1064C75.8162 7.11623 75.7457 7.14807 75.6866 7.19851L56.3299 21.0369C55.8919 21.3654 55.373 21.5386 54.8429 21.5334H42.0095C41.1085 21.5334 40.5134 20.8787 40.5134 19.8875V2.26668C40.5134 2.13652 40.4624 2.01438 40.3605 2.01438C40.2859 2.0244 40.2154 2.05697 40.1566 2.10849L27.3832 10.5365C27.2558 10.6306 27.2213 10.6966 27.2213 10.7627C27.2213 10.8288 27.2467 10.8749 27.3323 10.977L36.46 21.0088C36.5783 21.141 36.6639 21.2431 36.6639 21.3552C36.6639 21.4674 36.5274 21.5234 36.3672 21.5234H28.1222C27.4761 21.5234 26.9755 21.4213 26.6261 21.0369L21.0948 14.9597C21.0736 14.9321 21.0474 14.9096 21.018 14.8934C20.9886 14.8772 20.9566 14.8678 20.9237 14.8656C20.8642 14.8698 20.8063 14.889 20.7545 14.9216L11.5066 21.0369C11.0653 21.3636 10.5422 21.5303 10.0105 21.5134H1.50339C0.593349 21.5134 0 20.8607 0 19.8775V7.88131C0 6.39556 0.296675 5.54455 1.49611 4.75962L8.59992 0.0660781C8.65414 0.0265606 8.71699 0.0037436 8.78193 0C8.89296 0 8.95302 0.122144 8.95302 0.400473V16.4554C8.95302 16.6236 8.98578 16.6997 9.09681 16.6997C9.17305 16.6853 9.24564 16.6532 9.30976 16.6056L33.3076 0.720852C33.7731 0.374721 34.3281 0.20399 34.8893 0.234277H47.8119C48.7056 0.234277 49.308 0.889051 49.308 1.87021L49.2989 19.475H49.3099Z" fill="#343C42"/>
</svg>
