<?xml version="1.0" encoding="utf-8"?>
<!-- Generator: Adobe Illustrator 26.0.3, SVG Export Plug-In . SVG Version: 6.00 Build 0)  -->
<svg version="1.1" id="Layer_1" xmlns="http://www.w3.org/2000/svg" xmlns:xlink="http://www.w3.org/1999/xlink" x="0px" y="0px"
	 viewBox="0 0 65.64 48" style="enable-background:new 0 0 65.64 48;" xml:space="preserve">
<style type="text/css">
	.st0{fill:#393939;}
</style>
<g>
	<path class="st0" d="M44.32,7.82c0.37-0.52,0.69-0.98,1-1.44c0.14-0.21,0.27-0.23,0.5-0.14c3.83,1.4,7.23,3.46,9.87,6.61
		c3.05,3.63,4.65,7.79,4.25,12.58c-0.24,2.89-1.26,5.53-2.85,7.95c-0.48,0.74-1.13,1.05-2.03,1.04c-8.19-0.02-16.38-0.01-24.58-0.02
		c-1.64,0-3.28,0-4.92-0.1c-1.48-0.09-2.83-0.6-4-1.56c-1.08-0.89-1.57-2.03-1.6-3.41c-0.04-1.74,0.55-3.31,1.49-4.71
		c1.88-2.83,3.84-5.62,5.82-8.38c1.9-2.65,3.88-5.25,5.83-7.87c0.22-0.3,0.5-0.56,0.68-0.88c0.13-0.23,0.26-0.61,0.16-0.78
		c-0.12-0.21-0.5-0.38-0.76-0.38c-1.28,0.04-2.57,0.08-3.85,0.23c-2.51,0.3-4.96,0.87-7.31,1.81c-4.22,1.68-7.7,4.28-10.05,8.22
		c-1.55,2.59-2.39,5.41-2.15,8.45c0.29,3.71,1.66,6.99,4.2,9.73c3.16,3.41,7.18,5.16,11.65,6.06c3.08,0.62,6.21,0.79,9.33,0.61
		c4.02-0.23,7.94-0.99,11.6-2.78c1.47-0.72,2.83-1.58,4.08-2.64c0.19-0.16,0.48-0.28,0.73-0.28c1.08-0.03,2.17-0.01,3.25-0.01
		c0.15,0,0.3,0.01,0.44,0.02c0.02,0.04,0.04,0.08,0.07,0.12c-0.8,0.71-1.57,1.48-2.42,2.14c-3.8,2.97-8.19,4.54-12.9,5.3
		C36.39,43.87,32.9,44,29.4,43.75c-3.89-0.28-7.7-0.96-11.32-2.48c-3.99-1.68-7.35-4.14-9.71-7.83c-1.48-2.31-2.4-4.84-2.65-7.59
		c-0.57-6.19,1.81-11.18,6.35-15.22c3.58-3.18,7.89-4.86,12.54-5.75c3.6-0.69,7.25-0.95,10.9-0.64c2.21,0.19,4.41,0.6,6.61,0.91
		c0.09,0.01,0.18,0.05,0.27,0.08c1.24,0.38,1.48,1.18,0.69,2.2c-2.85,3.68-5.73,7.34-8.51,11.08c-2.1,2.82-3.94,5.81-5.65,8.88
		c-0.27,0.49-0.35,1.01-0.18,1.56c0.18,0.58,0.57,0.9,1.18,0.95c0.17,0.01,0.34,0.01,0.51,0.01c7.77,0,15.55,0,23.32,0.01
		c0.39,0,0.6-0.12,0.8-0.46c1.04-1.81,1.48-3.75,1.4-5.83c-0.07-2-0.33-3.97-1.07-5.85c-0.99-2.53-2.61-4.58-4.67-6.3
		c-1.58-1.31-3.32-2.38-5.15-3.28C44.83,8.09,44.6,7.97,44.32,7.82z"/>
</g>
</svg>
