<?xml version="1.0" encoding="utf-8"?>
<!-- Generator: Adobe Illustrator 26.0.3, SVG Export Plug-In . SVG Version: 6.00 Build 0)  -->
<svg version="1.1" id="Layer_1" xmlns="http://www.w3.org/2000/svg" xmlns:xlink="http://www.w3.org/1999/xlink" x="0px" y="0px"
	 viewBox="0 0 56.21 48" style="enable-background:new 0 0 56.21 48;" xml:space="preserve">
<style type="text/css">
	.st0{fill:#393939;}
</style>
<g>
	<path class="st0" d="M28.05,31.02c-1.01-1.75-1.98-3.42-2.94-5.09c-1.67-2.9-3.35-5.79-5.03-8.68c-0.15-0.25-0.19-0.45-0.03-0.73
		c2.6-4.5,5.19-9,7.78-13.5c0.07-0.11,0.15-0.22,0.24-0.36c0.1,0.14,0.18,0.24,0.24,0.36c2.61,4.49,5.21,8.99,7.82,13.48
		c0.14,0.24,0.18,0.42,0.03,0.69c-2.64,4.51-5.27,9.03-7.9,13.55C28.21,30.81,28.15,30.88,28.05,31.02z"/>
	<path class="st0" d="M28.15,31.14c0.25,0,0.4,0,0.55,0c5.12,0,10.23,0,15.35-0.01c0.4,0,0.63,0.12,0.83,0.47
		c2.52,4.39,5.06,8.76,7.59,13.14c0.1,0.17,0.19,0.34,0.31,0.57c-0.22,0.01-0.36,0.03-0.51,0.03c-5.13,0-10.27,0-15.4,0.01
		c-0.34,0-0.55-0.09-0.72-0.4c-2.58-4.45-5.17-8.89-7.76-13.34C28.32,31.48,28.26,31.35,28.15,31.14z"/>
	<path class="st0" d="M3.43,45.3c0.1-0.19,0.16-0.33,0.24-0.47c2.56-4.42,5.12-8.85,7.67-13.27c0.15-0.26,0.29-0.43,0.65-0.43
		c5.22,0.01,10.44,0.01,15.66,0.01c0.08,0,0.17,0.01,0.3,0.02c-0.06,0.14-0.1,0.27-0.16,0.37c-2.59,4.48-5.18,8.96-7.77,13.45
		c-0.14,0.24-0.28,0.36-0.59,0.36C14.22,45.33,9,45.33,3.78,45.33C3.69,45.33,3.59,45.32,3.43,45.3z"/>
</g>
</svg>
