<svg width="110" height="18" viewBox="0 0 110 18" fill="none" xmlns="http://www.w3.org/2000/svg">
<path fill-rule="evenodd" clip-rule="evenodd" d="M22.2738 0H26.1123C26.2127 0 26.309 0.0459144 26.38 0.127642C26.451 0.209371 26.4909 0.320218 26.4909 0.435799V17.4319C26.4909 17.5475 26.451 17.6584 26.38 17.7401C26.309 17.8218 26.2127 17.8677 26.1123 17.8677H22.2738C22.1733 17.8677 22.077 17.8218 22.006 17.7401C21.935 17.6584 21.8952 17.5475 21.8952 17.4319V0.435799C21.8952 0.320218 21.935 0.209371 22.006 0.127642C22.077 0.0459144 22.1733 0 22.2738 0M0.378607 0.147501H6.14509C6.45003 0.157458 6.74854 0.250819 7.01593 0.419866C7.28332 0.588913 7.51192 0.82879 7.68282 1.11967L14.8938 13.9724V0.5833C14.8938 0.467719 14.9337 0.356872 15.0047 0.275144C15.0757 0.193415 15.172 0.147501 15.2724 0.147501H18.5634C18.6638 0.147501 18.7601 0.193415 18.8311 0.275144C18.9021 0.356872 18.942 0.467719 18.942 0.5833V17.5593C18.942 17.6749 18.9021 17.7858 18.8311 17.8675C18.7601 17.9492 18.6638 17.9951 18.5634 17.9951H12.9425C12.5762 18.022 12.2102 17.9376 11.881 17.7505C11.5519 17.5635 11.2712 17.2802 11.067 16.9291L4.07731 4.41162V17.5593C4.07731 17.6749 4.03742 17.7858 3.96642 17.8675C3.89542 17.9492 3.79912 17.9951 3.6987 17.9951H0.378607C0.278194 17.9951 0.181894 17.9492 0.110892 17.8675C0.0398889 17.7858 0 17.6749 0 17.5593L0 0.5833C0 0.467719 0.0398889 0.356872 0.110892 0.275144C0.181894 0.193415 0.278194 0.147501 0.378607 0.147501ZM91.3783 0.147501H97.2031C97.5083 0.159289 97.8068 0.254138 98.0741 0.424281C98.3414 0.594425 98.5699 0.835023 98.7408 1.12637L105.952 13.9791V0.5833C105.952 0.467719 105.992 0.356872 106.063 0.275144C106.134 0.193415 106.23 0.147501 106.33 0.147501H109.616C109.717 0.147488 109.813 0.193187 109.885 0.274728C109.957 0.356269 109.998 0.467106 110 0.5833V17.5593C109.998 17.6755 109.957 17.7864 109.885 17.8679C109.813 17.9494 109.717 17.9951 109.616 17.9951H104.001C103.637 18.0211 103.275 17.937 102.949 17.7511C102.623 17.5652 102.345 17.2841 102.142 16.9358L95.1528 4.41833V17.5593C95.1528 17.6749 95.1129 17.7858 95.0419 17.8675C94.9709 17.9492 94.8746 17.9951 94.7742 17.9951H91.3842C91.2838 17.9951 91.1874 17.9492 91.1164 17.8675C91.0454 17.7858 91.0056 17.6749 91.0056 17.5593V0.5833C91.0056 0.468871 91.0446 0.359028 91.1144 0.27749C91.1841 0.195952 91.2789 0.149262 91.3783 0.147501ZM75.139 10.7274H81.4297L78.861 4.15685H77.6961L75.139 10.7274ZM82.8509 14.3612H73.7061L72.4655 17.5392C72.4112 17.6653 72.3286 17.7723 72.2261 17.849C72.1236 17.9256 72.0051 17.9692 71.883 17.975H68.0503C67.8406 17.975 67.7416 17.7806 67.8406 17.5392L74.4983 0.549777C74.5501 0.428399 74.6282 0.324489 74.7252 0.248131C74.8221 0.171773 74.9346 0.125561 75.0516 0.113978H81.4938C81.6159 0.119821 81.7344 0.16336 81.8369 0.240032C81.9394 0.316705 82.022 0.423689 82.0763 0.549777L88.7048 17.5258C88.8038 17.7672 88.7048 17.9616 88.5009 17.9616H84.6333C84.5112 17.9558 84.3927 17.9122 84.2902 17.8356C84.1877 17.7589 84.105 17.6519 84.0508 17.5258L82.8509 14.3612ZM46.0154 4.07639H34.6455C34.5795 4.07549 34.514 4.08979 34.4529 4.11845C34.3917 4.14711 34.3362 4.18955 34.2895 4.24327C34.2429 4.29699 34.206 4.36091 34.1811 4.43128C34.1562 4.50164 34.1438 4.57702 34.1446 4.65299V5.66538C34.1445 5.81601 34.1957 5.96067 34.2871 6.06843C34.3786 6.17618 34.503 6.23847 34.6338 6.24198C34.6338 6.24198 44.035 7.26108 44.0815 7.3013C44.9118 7.52672 45.6514 8.06874 46.1801 8.83924C46.7089 9.60974 46.9957 10.5634 46.9939 11.5453V13.4896C46.9939 15.9435 45.9047 17.9951 42.2118 17.9951H30.0265C29.9415 17.9951 29.86 17.9563 29.7999 17.8871C29.7399 17.818 29.7061 17.7242 29.7061 17.6264V14.3747C29.7053 14.326 29.7131 14.2776 29.7289 14.2325C29.7447 14.1873 29.7683 14.1463 29.7982 14.1119C29.8281 14.0775 29.8637 14.0503 29.903 14.0321C29.9422 14.0139 29.9842 14.005 30.0265 14.0059H42.0138C42.0815 14.0069 42.1488 13.992 42.2114 13.9621C42.274 13.9323 42.3307 13.8882 42.3781 13.8324C42.4255 13.7766 42.4625 13.7103 42.487 13.6376C42.5115 13.5649 42.5229 13.4872 42.5205 13.4092V12.0683C42.5205 11.9153 42.4677 11.7687 42.3738 11.6606C42.2799 11.5524 42.1524 11.4917 42.0196 11.4917L33.2825 10.6335H33.2184C32.2986 10.6336 31.4158 10.2162 30.7615 9.47189C30.1073 8.7276 29.7343 7.71641 29.7236 6.65766V4.64628C29.7232 3.47375 30.1206 2.34738 30.831 1.50708C31.5415 0.666782 32.5088 0.178955 33.5271 0.147501H46.0154C46.0576 0.146591 46.0997 0.155507 46.1389 0.173717C46.1781 0.191926 46.2137 0.219054 46.2436 0.253479C46.2736 0.287904 46.2971 0.328918 46.3129 0.374069C46.3288 0.419219 46.3365 0.467578 46.3357 0.516254V3.70764C46.3357 3.80544 46.302 3.89923 46.2419 3.96839C46.1818 4.03754 46.1003 4.07639 46.0154 4.07639ZM65.7262 4.07639H54.3564C54.2901 4.07551 54.2243 4.08977 54.1629 4.11834C54.1014 4.14692 54.0455 4.18926 53.9984 4.24289C53.9513 4.29652 53.9138 4.36038 53.8883 4.43078C53.8628 4.50117 53.8496 4.5767 53.8496 4.65299V5.66538C53.8496 5.81715 53.9016 5.9628 53.9943 6.07074C54.087 6.17869 54.2129 6.24021 54.3447 6.24198C54.3447 6.24198 63.74 7.26108 63.7924 7.3013C64.6227 7.52672 65.3623 8.06874 65.891 8.83924C66.4197 9.60974 66.7065 10.5634 66.7048 11.5453V13.4896C66.7048 15.9435 65.6156 17.9951 61.9227 17.9951H49.7374C49.6524 17.9951 49.5709 17.9563 49.5108 17.8871C49.4507 17.818 49.417 17.7242 49.417 17.6264V14.3747C49.417 14.2769 49.4507 14.1831 49.5108 14.1139C49.5709 14.0447 49.6524 14.0059 49.7374 14.0059H61.7421C61.874 14.0024 61.9993 13.9392 62.0909 13.83C62.1825 13.7208 62.233 13.5744 62.2314 13.4226V12.0683C62.2322 11.9923 62.2198 11.9169 62.1949 11.8466C62.17 11.7762 62.1331 11.7123 62.0864 11.6586C62.0398 11.6048 61.9842 11.5624 61.9231 11.5337C61.862 11.5051 61.7965 11.4908 61.7305 11.4917L53.005 10.6134H52.941C52.0211 10.6134 51.1383 10.1961 50.484 9.45178C49.8298 8.70748 49.4569 7.6963 49.4461 6.63755V4.62617C49.4502 3.45938 49.848 2.34005 50.5554 1.50443C51.2629 0.668807 52.2248 0.18227 53.238 0.147501H65.7437C65.786 0.146591 65.828 0.155507 65.8672 0.173717C65.9065 0.191926 65.9421 0.219054 65.972 0.253479C66.0019 0.287904 66.0255 0.328918 66.0413 0.374069C66.0571 0.419219 66.0649 0.467578 66.0641 0.516254V3.70764C66.0641 3.80544 66.0303 3.89923 65.9702 3.96839C65.9102 4.03754 65.8287 4.07639 65.7437 4.07639H65.7262Z" fill="#343C42"/>
</svg>
