<?xml version="1.0" encoding="utf-8"?>
<!-- Generator: Adobe Illustrator 26.0.3, SVG Export Plug-In . SVG Version: 6.00 Build 0)  -->
<svg version="1.1" id="Layer_1" xmlns="http://www.w3.org/2000/svg" xmlns:xlink="http://www.w3.org/1999/xlink" x="0px" y="0px"
	 viewBox="0 0 57.34 48" style="enable-background:new 0 0 57.34 48;" xml:space="preserve">
<style type="text/css">
	.st0{fill:#393939;}
</style>
<g>
	<path class="st0" d="M3.81,31.22c0-0.24,0-0.47,0-0.72c0.05,0,0.09-0.01,0.14-0.01c1.91,0,3.81,0,5.72,0
		c0.11,0,0.15,0.04,0.18,0.14c0.79,2.28,1.95,4.35,3.5,6.2c1.79,2.14,3.94,3.82,6.44,5.06c1.7,0.84,3.49,1.43,5.36,1.76
		c1.66,0.3,3.34,0.38,5.02,0.25c3.9-0.3,7.42-1.61,10.55-3.97c3.2-2.41,5.45-5.52,6.78-9.3c0.03-0.09,0.06-0.14,0.17-0.14
		c1.92,0,3.85,0,5.77,0c0.03,0,0.07,0,0.11,0c0,0.24,0,0.47,0,0.72c-0.2,0.02-0.41,0.05-0.62,0.07c-0.72,0.09-1.43,0.17-2.15,0.26
		c-0.82,0.11-1.43,0.53-1.81,1.29c-0.38,0.76-0.75,1.52-1.17,2.26c-1.67,2.9-3.91,5.27-6.67,7.15c-2.33,1.59-4.88,2.69-7.64,3.31
		c-2.16,0.49-4.34,0.64-6.55,0.46c-4.15-0.34-7.92-1.74-11.3-4.19c-3-2.18-5.3-4.95-6.91-8.29c-0.12-0.25-0.25-0.5-0.38-0.76
		c-0.35-0.71-0.93-1.11-1.71-1.23c-0.63-0.1-1.27-0.16-1.91-0.24C4.44,31.29,4.13,31.26,3.81,31.22z"/>
	<path class="st0" d="M53.55,16.76c0,0.24,0,0.47,0,0.72c-0.05,0-0.09,0.01-0.13,0.01c-1.91,0-3.82,0-5.73,0
		c-0.11,0-0.15-0.04-0.18-0.14c-1.89-5.28-5.39-9.11-10.44-11.51c-1.74-0.83-3.57-1.35-5.48-1.63c-1.5-0.22-3.01-0.28-4.52-0.15
		C22.63,4.46,18.73,6.1,15.4,9.05c-2.57,2.27-4.41,5.04-5.54,8.28c-0.05,0.13-0.1,0.18-0.25,0.18c-1.88-0.01-3.75,0-5.63,0
		c-0.06,0-0.11,0-0.18,0c0-0.25,0-0.48,0-0.73c0.47-0.06,0.93-0.1,1.39-0.17c0.59-0.08,1.18-0.14,1.76-0.26
		c0.6-0.12,1.05-0.49,1.33-1.04c0.3-0.57,0.58-1.16,0.88-1.73c1.4-2.64,3.27-4.89,5.6-6.77c1.97-1.59,4.16-2.81,6.55-3.66
		c1.45-0.51,2.94-0.87,4.47-1.07c1.55-0.21,3.1-0.25,4.65-0.12c3.02,0.25,5.88,1.07,8.56,2.5c4.04,2.15,7.15,5.25,9.29,9.3
		c0.24,0.45,0.46,0.92,0.69,1.38c0.38,0.78,1.02,1.19,1.87,1.29c0.88,0.11,1.76,0.21,2.63,0.32C53.49,16.75,53.52,16.76,53.55,16.76
		z"/>
	<path class="st0" d="M34.5,20.95c0,0.42,0,0.82,0,1.24c-0.06,0-0.11,0-0.16,0c-1.69,0-3.38,0-5.07,0c-0.1,0-0.19,0.01-0.29,0.02
		c-0.27,0.05-0.46,0.29-0.44,0.56c0.02,0.3,0.21,0.5,0.49,0.52c0.14,0.01,0.29,0.02,0.44,0.02c1.15,0,2.31,0,3.46,0
		c0.3,0,0.6,0.01,0.88,0.12c0.63,0.26,0.96,0.75,1.07,1.4c0.11,0.71-0.08,1.33-0.64,1.8c-0.28,0.24-0.62,0.36-0.99,0.38
		c-0.12,0.01-0.25,0.01-0.37,0.01c-1.78,0-3.57,0-5.35,0c-0.06,0-0.11,0-0.18,0c0-0.42,0-0.83,0-1.25c0.05,0,0.11,0,0.16,0
		c1.78,0,3.56,0,5.34,0c0.09,0,0.19-0.01,0.27-0.04c0.28-0.08,0.44-0.34,0.41-0.64c-0.03-0.3-0.23-0.5-0.55-0.53
		c-0.09-0.01-0.18-0.01-0.26-0.01c-1.22,0-2.43,0-3.65,0c-0.46,0-0.89-0.09-1.26-0.39c-0.55-0.46-0.78-1.27-0.55-1.99
		c0.21-0.68,0.82-1.15,1.55-1.2c0.18-0.01,0.36-0.02,0.54-0.02c1.66,0,3.31,0,4.97,0C34.38,20.95,34.43,20.95,34.5,20.95z"/>
	<path class="st0" d="M24.25,20.95c0,0.42,0,0.82,0,1.24c-0.05,0-0.1,0-0.16,0c-1.69,0-3.39,0-5.08,0c-0.1,0-0.19,0.01-0.29,0.03
		c-0.26,0.05-0.44,0.29-0.43,0.56c0.01,0.29,0.2,0.5,0.48,0.52c0.15,0.01,0.3,0.02,0.45,0.02c1.15,0,2.3,0,3.45,0
		c0.22,0,0.44,0.01,0.66,0.05c0.73,0.15,1.27,0.8,1.33,1.58c0.05,0.55-0.08,1.05-0.44,1.48c-0.31,0.37-0.72,0.55-1.2,0.59
		c-0.12,0.01-0.25,0.01-0.37,0.01c-1.8,0-3.59,0-5.39,0c-0.05,0-0.1,0-0.15,0c0-0.42,0-0.82,0-1.25c0.05,0,0.11,0,0.16,0
		c1.77,0,3.55,0,5.32,0c0.06,0,0.12,0,0.18-0.01c0.33-0.05,0.52-0.29,0.51-0.61c-0.01-0.33-0.22-0.55-0.55-0.58
		c-0.09-0.01-0.18-0.01-0.26-0.01c-1.22,0-2.43,0-3.65,0c-0.46,0-0.89-0.09-1.26-0.39c-0.55-0.46-0.78-1.27-0.55-1.99
		c0.21-0.68,0.82-1.15,1.55-1.2c0.18-0.01,0.36-0.02,0.54-0.02c1.66,0,3.32,0,4.98,0C24.14,20.95,24.19,20.95,24.25,20.95z"/>
	<path class="st0" d="M2.26,20.91c0.05,0,0.1,0,0.15,0c0.46,0,0.92,0.01,1.39,0c0.15,0,0.25,0.04,0.36,0.15
		c1.42,1.44,2.84,2.88,4.27,4.32c0.03,0.03,0.07,0.06,0.12,0.11c0-1.54,0-3.05,0-4.57c0.46,0,0.9,0,1.36,0c0,2.04,0,4.08,0,6.14
		c-0.05,0-0.09,0.01-0.14,0.01c-0.47,0-0.94,0-1.41,0c-0.11,0-0.19-0.03-0.27-0.11c-1.44-1.46-2.89-2.92-4.34-4.38
		c-0.03-0.03-0.06-0.07-0.12-0.09c0,1.52,0,3.04,0,4.57c-0.46,0-0.91,0-1.36,0C2.26,25.01,2.26,22.97,2.26,20.91z"/>
	<path class="st0" d="M48.8,22.49c0,1.52,0,3.04,0,4.56c-0.45,0-0.9,0-1.35,0c0-2.05,0-4.09,0-6.14c0.05,0,0.09-0.01,0.13-0.01
		c0.5,0,0.99,0,1.49,0c0.07,0,0.15,0.04,0.2,0.09c1.45,1.46,2.89,2.92,4.34,4.38c0.03,0.03,0.06,0.06,0.11,0.11
		c0-1.54,0-3.05,0-4.57c0.45,0,0.9,0,1.35,0c0,2.04,0,4.09,0,6.14c-0.13,0-0.25,0-0.37,0c-0.4,0-0.8,0-1.2,0
		c-0.1,0-0.16-0.03-0.23-0.1c-1.43-1.45-2.86-2.89-4.29-4.34c-0.05-0.05-0.1-0.11-0.15-0.17C48.83,22.48,48.82,22.48,48.8,22.49z"/>
	<path class="st0" d="M45.65,27.07c-0.31,0-0.59,0-0.87,0c-0.22,0-0.44,0-0.66,0c-0.08,0-0.13-0.03-0.17-0.09
		c-0.19-0.31-0.38-0.61-0.57-0.92c-0.04-0.06-0.08-0.09-0.16-0.09c-1.43,0-2.85,0-4.28,0c-0.08,0-0.12,0.03-0.16,0.09
		c-0.19,0.31-0.38,0.62-0.57,0.92c-0.03,0.04-0.09,0.09-0.14,0.09c-0.5,0.01-1,0-1.51,0c-0.01,0-0.02-0.01-0.05-0.01
		c0.03-0.05,0.05-0.09,0.07-0.12c1.23-1.97,2.45-3.93,3.68-5.9c0.05-0.09,0.11-0.12,0.21-0.12c0.4,0.01,0.81,0,1.21,0
		c0.08,0,0.13,0.02,0.18,0.1c1.23,1.98,2.47,3.96,3.7,5.95C45.6,26.98,45.61,27.01,45.65,27.07z M39.55,24.8c1.03,0,2.04,0,3.06,0
		c-0.51-0.83-1.01-1.64-1.53-2.47C40.57,23.16,40.07,23.97,39.55,24.8z"/>
	<path class="st0" d="M12.92,27.06c0-2.05,0-4.09,0-6.14c0.45,0,0.89,0,1.34,0c0,2.04,0,4.09,0,6.14
		C13.82,27.06,13.37,27.06,12.92,27.06z"/>
</g>
</svg>
