<?xml version="1.0" encoding="utf-8"?>
<!-- Generator: Adobe Illustrator 26.0.3, SVG Export Plug-In . SVG Version: 6.00 Build 0)  -->
<svg version="1.1" id="Layer_1" xmlns="http://www.w3.org/2000/svg" xmlns:xlink="http://www.w3.org/1999/xlink" x="0px" y="0px"
	 viewBox="0 0 76.7 48" style="enable-background:new 0 0 76.7 48;" xml:space="preserve">
<style type="text/css">
	.st0{fill:#393939;}
</style>
<g>
	<path class="st0" d="M38.81,5.35c6.07,0.05,12.35,1.2,18.23,4.15c3.07,1.53,5.82,3.5,7.98,6.2c4.25,5.32,4.16,11.65-0.22,16.87
		c-2.73,3.25-6.22,5.41-10.1,7c-6.18,2.54-12.64,3.38-19.27,2.98c-6.15-0.37-12.02-1.82-17.4-4.93c-2.35-1.36-4.47-3.01-6.2-5.12
		c-4.53-5.52-4.37-12.15,0.42-17.5c2.85-3.18,6.42-5.29,10.36-6.83C27.67,6.2,32.94,5.37,38.81,5.35z M42.69,38.34
		c0.54-0.07,0.98-0.11,1.42-0.18c4.07-0.62,7.94-1.79,11.47-3.95c2.17-1.33,4.06-2.97,5.38-5.19c2.75-4.6,1.04-9.48-2.58-12.5
		c-0.69,1.56-1.87,2.67-3.26,3.59c-1.47,0.98-3.07,1.7-4.75,2.22c-1.3,0.4-2.62,0.73-3.95,1.1C46.39,28.65,45.86,33.77,42.69,38.34z
		 M18.17,16.31c-0.91,1.22-1.86,2.25-2.54,3.43c-1.74,3.01-1.69,6.09,0.01,9.13c1,1.78,2.42,3.19,4.06,4.39
		c3.28,2.39,6.99,3.75,10.92,4.55c1.09,0.22,2.2,0.37,3.31,0.55c-0.96-1.42-1.65-2.87-2.18-4.4c-1.12-3.27-1.49-6.64-1.48-10.08
		c0-0.41-0.11-0.54-0.52-0.65c-1.58-0.42-3.18-0.8-4.7-1.38C22.26,20.8,19.7,19.37,18.17,16.31z M34.29,9.78
		c-2.96,0.32-5.75,0.77-8.35,1.97c-0.61,0.28-1.21,0.65-1.72,1.09c-1.07,0.91-1.07,1.93,0.01,2.82c1.89,1.56,4.21,2.01,6.56,2.53
		C31.39,15.14,32.28,12.3,34.29,9.78z M45.91,18.16c2.09-0.41,4.1-0.9,5.9-2.02c0.33-0.2,0.64-0.46,0.9-0.74
		c0.73-0.76,0.77-1.61,0.01-2.32c-0.54-0.51-1.19-0.95-1.86-1.28c-1.78-0.89-3.7-1.32-5.65-1.64c-0.89-0.15-1.78-0.25-2.82-0.39
		C44.42,12.3,45.29,15.15,45.91,18.16z M34.86,24.03c-0.2,2.12,0.56,5.92,1.57,7.72c0.24,0.44,0.55,0.86,0.91,1.2
		c0.65,0.63,1.39,0.64,2.02-0.01c0.44-0.45,0.81-1,1.09-1.57c0.78-1.57,1.1-3.28,1.28-5.01c0.08-0.78,0.11-1.57,0.16-2.33
		C39.48,24.03,37.19,24.03,34.86,24.03z M41.44,18.74c-0.21-0.71-0.31-1.36-0.58-1.93c-0.39-0.84-0.81-1.69-1.38-2.4
		c-0.65-0.81-1.57-0.77-2.29-0.02c-1.15,1.19-1.54,2.73-1.91,4.35C37.36,18.74,39.36,18.74,41.44,18.74z"/>
</g>
</svg>
