<svg width="137" height="25" viewBox="0 0 137 25" fill="none" xmlns="http://www.w3.org/2000/svg">
<path fill-rule="evenodd" clip-rule="evenodd" d="M35.9749 12.5016C35.9737 5.40741 28.0712 0 17.9007 0C7.90288 0 0 5.40823 0 12.3418C0 19.4715 7.90289 25 18.0742 25C27.8947 25 35.9737 19.4692 35.9749 12.5016ZM22.1139 9.22072C25.9737 8.68831 28.3839 7.1258 28.3839 5.56329C28.3839 3.31329 23.5615 1.56329 17.7506 1.56329C12.0838 1.56329 7.57924 3.31329 7.57924 5.56329C7.57924 7.12658 9.67118 8.34494 13.5344 9.22152H13.8609C14.4994 4.68671 16.1265 1.75 18.0742 1.75C19.8483 1.75 21.6194 5.06287 22.1139 9.22072ZM19.3541 23.4399L19.3576 23.4365C27.2588 22.9353 33.3887 17.9042 33.3887 11.9968C33.4017 9.86275 32.6529 7.80463 31.2967 6.24684V6.43671C31.2967 9.02848 27.7513 11.4684 22.5788 12.1551L22.4347 12.3418C22.4347 17.7186 21.4471 21.3726 19.3576 23.4365L19.3541 23.4367V23.4399ZM4.67818 6.09494C4.56684 6.19439 4.52691 6.23006 4.51259 6.29295C4.56675 6.22612 4.62195 6.16011 4.67818 6.09494ZM4.51259 6.29295C4.50459 6.32811 4.50459 6.37179 4.50459 6.43987C4.50459 9.03165 8.03528 11.3133 13.3961 12.1582L13.5344 12.3418V12.6899C13.5344 17.9082 14.6701 21.5348 16.6149 23.4494C8.37659 22.7627 2.55093 17.9177 2.55093 11.8228C2.57375 9.78467 3.27085 7.82504 4.51259 6.29295ZM20.4869 9.57595H15.6351L15.3144 9.38924C15.8087 6.45253 16.7679 4.69937 17.9007 4.69937C19.207 4.69937 19.9926 6.26266 20.4869 9.38924V9.57595ZM20.8047 12.5158C20.6605 16.6899 19.5277 19.6203 18.0742 19.6203C16.4472 19.6203 15.3144 16.6835 15.1673 12.4968H15.3144C15.686 12.4968 16.0871 12.5359 16.5222 12.5783C17.0382 12.6286 17.6021 12.6835 18.2214 12.6835C19.0863 12.7281 19.9531 12.6654 20.8047 12.4968V12.5158Z" fill="#343C42"/>
<path d="M53.2635 7.12656H48.094V21.3766H44.3721V7.12656H39.3761V3.84491H53.2635V7.12656Z" fill="#343C42"/>
<path fill-rule="evenodd" clip-rule="evenodd" d="M68.8556 6.09573C70.4628 7.85338 71.3564 10.2247 71.3408 12.6898C71.3692 13.9237 71.169 15.1513 70.7519 16.3012C70.3347 17.451 69.709 18.5 68.9111 19.3871C68.1132 20.2742 67.1592 20.9816 66.1045 21.4681C65.0499 21.9546 63.9157 22.2104 62.7682 22.2207C61.6207 22.231 60.4828 21.9955 59.4207 21.528C58.3587 21.0605 57.3938 20.3703 56.5823 19.4977C55.7707 18.625 55.1288 17.5873 54.6939 16.4452C54.259 15.303 54.0398 14.0791 54.0491 12.8449C54.0491 7.46831 57.9447 3.31325 62.767 3.31325C65.059 3.33748 67.2485 4.33809 68.8556 6.09573ZM62.767 18.5949C65.5269 18.5949 67.4452 16.1708 67.4452 12.6898C67.4452 9.22148 65.5269 6.78161 62.767 6.78161C59.8601 6.78161 58.0889 9.20882 57.9447 12.6898C57.9447 16.3449 59.8601 18.5949 62.767 18.5949Z" fill="#343C42"/>
<path d="M81.8299 14.9399V21.3766H78.1109V14.9399L71.6585 3.84491H75.8424L79.8821 11.1266L84.0689 3.84491H88.4264L81.8299 14.9399Z" fill="#343C42"/>
<path fill-rule="evenodd" clip-rule="evenodd" d="M105.065 9.09402C105.501 10.2347 105.722 11.4569 105.715 12.69C105.722 13.923 105.501 15.1453 105.065 16.2859C104.63 17.4266 103.988 18.4629 103.177 19.335C102.367 20.2071 101.404 20.8975 100.343 21.3664C99.2829 21.8353 98.1466 22.0733 97.0001 22.0666C95.872 22.075 94.7536 21.8422 93.7098 21.3817C92.6661 20.9213 91.7178 20.2424 90.9201 19.3844C90.1224 18.5264 89.4912 17.5065 89.0631 16.3839C88.635 15.2613 88.4186 14.0584 88.4264 12.845C88.4264 7.46845 92.319 3.31339 97.0001 3.31339C98.1466 3.30667 99.2829 3.54464 100.343 4.01352C101.404 4.4824 102.367 5.17286 103.177 6.04494C103.988 6.91702 104.63 7.95338 105.065 9.09402ZM97.0001 18.595C99.9129 18.595 101.678 16.171 101.678 12.69C101.678 9.22162 99.9041 6.78174 97.1443 6.78174C94.2373 6.78174 92.319 9.20896 92.319 12.69C92.319 16.345 94.0873 18.595 97.0001 18.595Z" fill="#343C42"/>
<path d="M120.391 7.12656H115.248V21.3766H111.529V7.12656H106.53V3.84491H120.391V7.12656Z" fill="#343C42"/>
<path d="M130.409 3.86074H130.415L130.403 3.84491L130.409 3.86074Z" fill="#343C42"/>
<path fill-rule="evenodd" clip-rule="evenodd" d="M125.884 3.86074H130.409L137 21.3766H132.99L131.548 17.5506H124.604L123.298 21.3924H119.258L125.884 3.86074ZM130.415 14.4082L128.15 7.65821L125.737 14.4082H130.415Z" fill="#343C42"/>
</svg>
