<svg width="145" height="26" viewBox="0 0 145 26" fill="none" xmlns="http://www.w3.org/2000/svg">
<path d="M10.7646 12.7785C11.3926 11.8196 16.7408 4.38805 18.6143 2.08459V2.10543C18.9021 1.75105 18.5777 1.38625 18.1642 1.38625C7.19558 1.60513 2.81543 8.17679 2.73694 12.9349C2.73694 18.2714 6.80309 24.4939 17.8869 24.4939C23.3398 24.4939 27.4636 22.8992 29.8656 20.6895H32.6391C29.8917 23.6757 25.1453 26 17.8869 26C4.81449 26 0 19.0271 0 13.0287C0 7.47845 4.78309 0 17.8555 0C19.9208 0.000329259 21.9802 0.218694 23.9992 0.651433C24.8993 0.839046 25.1976 1.39667 24.7475 1.98036C23.0782 4.06494 21.4925 6.0922 19.886 8.23412C18.2186 10.4624 16.6995 12.7969 15.3384 15.2227C14.993 15.8324 15.129 16.906 16.0815 16.906H32.0164C32.7801 15.758 33.1744 14.4055 33.1467 13.0287C33.1467 8.33834 30.9017 4.9561 25.475 2.39206L26.2442 1.30287C33.0892 3.64803 35.7895 8.88555 35.7895 13.0287C35.7562 15.1907 35.0965 17.2972 33.8899 19.0948C33.7702 19.3269 33.5839 19.5183 33.3546 19.6445C33.1253 19.7708 32.8635 19.8261 32.6025 19.8036H16.2228C15.9669 19.8036 15.7067 19.8076 15.4443 19.8117C13.6671 19.8394 11.7838 19.8688 10.393 18.6518C10.0533 18.3371 9.79282 17.9471 9.63279 17.5134C9.47276 17.0796 9.41767 16.6144 9.47199 16.1555C9.50863 15.5354 9.61329 14.6442 10.7646 12.7785Z" fill="#343C42"/>
<path d="M139.351 15.4175C139.11 15.165 138.786 15.0071 138.438 14.9725V14.983L123.968 15.0351C123.67 15.0351 123.502 14.8683 123.502 14.5921C123.552 12.6746 124.347 10.8511 125.719 9.50505C127.091 8.15897 128.934 7.39516 130.86 7.37422H143.603L143.639 9.87573H131.603C130.342 9.87573 129.091 11.0848 128.934 12.5232H140.813C143.127 12.5232 145 14.2377 145 16.3484C145 18.459 143.352 20.2101 140.813 20.1736L107.934 20.2518C102.109 20.2518 101.371 18.2558 101.371 15.3738V8.55201C101.02 8.7593 100.665 8.95973 100.31 9.16021C99.6389 9.53935 98.9673 9.91864 98.3204 10.3448L93.6733 13.3622L102.732 20.1475H95.8869L89.8688 15.8689L85.1276 18.7352C84.603 19.0508 84.1089 19.3968 83.6116 19.7449C83.3945 19.8968 83.1769 20.0492 82.9558 20.1996H76.1527V17.5939H82.0557L87.472 14.2065L79.5438 8.54159V9.95911H76.1684V7.3638L76.1632 7.35859H76.1527V7.35338H85.4782L91.4649 11.7102L96.0753 8.88555C96.6056 8.56939 97.1126 8.21153 97.6197 7.85368C97.8732 7.67475 98.1267 7.49582 98.3831 7.32211H106.154V15.0611C106.154 16.3588 106.636 17.7763 108.97 17.7763H117.568V7.38465H122.278V17.7503H138.181C138.576 17.7716 138.963 17.6359 139.258 17.373C139.552 17.1101 139.73 16.7416 139.751 16.3484C139.734 16.0004 139.592 15.67 139.351 15.4175Z" fill="#343C42"/>
<path d="M76.1527 7.35859H67.3506C64.9695 7.35859 63.1327 7.98397 61.7773 9.0471C59.3439 10.9649 58.5641 12.987 58.5903 13.899H61.7511C60.4453 14.8183 59.458 16.1184 58.9252 17.62H48.5217C46.6483 17.62 45.4342 16.2963 45.4342 15.0142V7.29605H40.8185V15.3113C40.8185 18.2036 43.5816 20.1996 48.0089 20.1996H76.1475V17.5939H64.98C65.064 16.9022 65.3845 16.2605 65.8877 15.7764C66.3909 15.2924 67.046 14.9957 67.7431 14.9361H76.1527V12.273H64.8491C64.6974 11.4965 66.1522 9.96953 67.2721 9.96953H76.1684V9.95911H76.1527V7.35859Z" fill="#343C42"/>
<path d="M76.1632 12.273V14.9361H78.4972V12.273H76.1632Z" fill="#343C42"/>
</svg>
