<svg width="100" height="100" viewBox="0 0 100 100" fill="none" xmlns="http://www.w3.org/2000/svg">
<path d="M81.363 7.53155e-07C79.8953 7.53155e-07 78.4344 0.203353 77.0244 0.582945V0.576166C74.1602 1.33776 71.548 2.8425 69.4524 4.93808C65.3511 9.03901 64.1139 14.7261 65.124 20.0234L49.4206 35.7188C48.4151 34.9068 47.1643 34.4588 45.8718 34.4479C44.4143 34.4479 42.9399 35.0105 41.8282 36.1222L40.1741 37.7761L18.3595 15.9666L19.3018 15.0277C19.4868 14.8414 19.626 14.6145 19.7084 14.3651C19.7907 14.1158 19.814 13.8506 19.7763 13.5907L19.0679 8.60859C19.0356 8.38104 18.9573 8.16245 18.8379 7.96609C18.7184 7.76974 18.5603 7.59974 18.373 7.46642L8.40462 0.349089C8.12796 0.148549 7.79714 0.036316 7.45557 0.0271145V0.0338928C7.22775 0.0294281 7.00137 0.0709479 6.78996 0.155969C6.57856 0.24099 6.38647 0.367766 6.22519 0.528717L0.524101 6.22258C0.241254 6.50675 0.0683289 6.88199 0.0360585 7.28162C0.00378812 7.68125 0.114263 8.07937 0.347849 8.40523L7.46573 18.3763C7.5983 18.5627 7.76724 18.7204 7.96239 18.8398C8.15754 18.9592 8.37484 19.0379 8.60121 19.0711L13.5871 19.7794C13.8481 19.8182 14.1146 19.7955 14.3653 19.7131C14.6159 19.6307 14.8439 19.491 15.031 19.3049L15.9631 18.3627L37.7778 40.1757L36.1271 41.8228C35.143 42.82 34.5585 44.1432 34.4842 45.5422C34.4098 46.9411 34.8508 48.3188 35.7237 49.4146L20.0136 65.1236C14.7192 64.117 9.03506 65.3541 4.9338 69.4516C2.84058 71.5496 1.33619 74.1614 0.571692 77.0246C-0.192809 79.8878 -0.190519 82.9018 0.578332 85.7639C0.655557 86.0508 0.806886 86.3124 1.01714 86.5224C1.22739 86.7324 1.48917 86.8835 1.77623 86.9604C2.06328 87.0373 2.36552 87.0374 2.65261 86.9606C2.93971 86.8839 3.20157 86.733 3.41193 86.5231L11.9534 77.9789L18.2239 80.07L20.305 86.34L11.7636 94.8808C11.5546 95.0917 11.4046 95.3538 11.3288 95.6409C11.2529 95.9279 11.2539 96.2299 11.3314 96.5164C11.409 96.803 11.5605 97.0642 11.7708 97.2738C11.9811 97.4835 12.2428 97.6341 12.5296 97.7108C15.3915 98.4769 18.4045 98.4778 21.2669 97.7135C24.1293 96.9492 26.7407 95.4464 28.8397 93.3557C32.941 89.2548 34.1781 83.5677 33.1681 78.2703L45.9803 65.4591L78.8547 98.3344C79.9307 99.4014 81.3847 100 82.9001 100C84.4154 100 85.8694 99.4014 86.9454 98.3344L98.334 86.9399C99.4012 85.8634 100 84.409 100 82.8932C100 81.3774 99.4012 79.923 98.334 78.8465L65.4629 45.978L78.2718 33.1702C83.5695 34.1801 89.2502 32.9431 93.3549 28.8422C93.356 28.8422 93.3572 28.8422 93.3583 28.8422C95.4515 26.7442 96.9559 24.1324 97.7204 21.2692C98.4849 18.4059 98.4826 15.392 97.7138 12.5299C97.6365 12.2429 97.4852 11.9813 97.2749 11.7713C97.0647 11.5613 96.8029 11.4103 96.5159 11.3334C96.2288 11.2565 95.9266 11.2564 95.6395 11.3332C95.3524 11.4099 95.0905 11.5608 94.8802 11.7707L86.3387 20.3115L80.0716 18.2238L77.9803 11.9537L86.5285 3.41293C86.7375 3.20228 86.8876 2.94044 86.9636 2.65359C87.0397 2.36675 87.0391 2.06497 86.9619 1.77843C86.8846 1.4919 86.7335 1.23067 86.5237 1.02087C86.3138 0.811066 86.0525 0.660056 85.7659 0.582945C84.3303 0.195568 82.8499 -0.000443409 81.363 7.53155e-07ZM79.5835 3.73491C80.1529 3.7688 80.7257 3.84675 81.2985 3.84675L74.8416 10.2998C74.6199 10.5231 74.4647 10.8037 74.3935 11.1102C74.3223 11.4166 74.3377 11.7369 74.4383 12.0351L77.1261 20.098C77.2097 20.3477 77.3503 20.5745 77.5368 20.7604C77.7233 20.9463 77.9506 21.0862 78.2006 21.169L86.2607 23.8566C86.5595 23.9563 86.8802 23.9707 87.1867 23.8983C87.4933 23.8258 87.7736 23.6694 87.9961 23.4465L94.4429 17.0003C94.4124 20.4878 93.4871 23.9142 90.9551 26.446C87.4233 29.9708 82.4611 31.079 77.9531 29.886C77.6658 29.8103 77.3636 29.8115 77.0769 29.8894C76.7901 29.9673 76.5289 30.1193 76.3194 30.33L30.3277 76.3182C30.1176 76.528 29.9662 76.7893 29.8889 77.076C29.8116 77.3627 29.8109 77.6647 29.8871 77.9518C31.0768 82.4594 29.9718 87.4212 26.4434 90.9528C23.9047 93.4811 20.4847 94.4097 16.9969 94.4436L23.4437 87.994C23.6666 87.7714 23.823 87.4911 23.8955 87.1846C23.9679 86.8781 23.9535 86.5575 23.8538 86.2587L21.166 78.1958C21.0827 77.9464 20.9426 77.7199 20.7568 77.534C20.5709 77.3481 20.3443 77.208 20.0949 77.1248L12.0313 74.4371C11.7325 74.3375 11.4119 74.3231 11.1053 74.3955C10.7988 74.468 10.5185 74.6244 10.2959 74.8472L3.84239 81.3003C3.86951 77.8094 4.79483 74.3863 7.33354 71.8478C10.862 68.3196 15.8276 67.2148 20.3389 68.4078C20.6253 68.4822 20.9261 68.4804 21.2116 68.4025C21.497 68.3246 21.7571 68.1733 21.9659 67.9638L67.9678 21.9756C68.1779 21.7658 68.3292 21.5044 68.4066 21.2177C68.4839 20.931 68.4845 20.629 68.4084 20.342C67.2187 15.831 68.3203 10.8692 71.8521 7.33424C73.5269 5.65734 75.6153 4.45302 77.9057 3.84336C78.4514 3.70101 79.0174 3.69763 79.5869 3.73491H79.5835ZM7.60131 3.93826L15.8106 9.80159L16.3021 13.2315L14.7667 14.7668L13.2312 16.3055L9.80108 15.814L3.9373 7.60538L7.60131 3.93826ZM45.8718 37.8371C46.2684 37.8371 46.6378 37.9659 46.9869 38.1625L38.1675 46.9778C37.9079 46.5449 37.8018 46.0372 37.8663 45.5366C37.9309 45.036 38.1624 44.5718 38.5234 44.219L44.2245 38.5183C44.4398 38.3009 44.6965 38.129 44.9795 38.0125C45.2624 37.8961 45.5659 37.8376 45.8718 37.8405V37.8371ZM63.0666 48.3775L95.9411 81.2427C96.1623 81.4569 96.3381 81.7134 96.4582 81.997C96.5784 82.2805 96.6403 82.5853 96.6403 82.8932C96.6403 83.2011 96.5784 83.5059 96.4582 83.7895C96.3381 84.073 96.1623 84.3295 95.9411 84.5438L84.5491 95.9383C84.3356 96.1602 84.0795 96.3368 83.7962 96.4574C83.5128 96.578 83.208 96.6401 82.9001 96.6401C82.5921 96.6401 82.2873 96.578 82.004 96.4574C81.7206 96.3368 81.4646 96.1602 81.2511 95.9383L48.3732 63.063L51.6712 59.7687L84.5491 92.6406L86.9454 90.2444L54.0676 57.3691L57.3723 54.068L90.2501 86.9433L92.6431 84.5438L59.7686 51.6718L63.0666 48.3741V48.3775Z" fill="#FBCD40"/>
</svg>
