<svg width="101" height="101" viewBox="0 0 101 101" fill="none" xmlns="http://www.w3.org/2000/svg">
<path d="M62.0888 68.5879C61.3042 69.8079 60.7868 71.1782 60.5704 72.6098C60.3688 74.023 60.4723 75.4625 60.8741 76.8328C61.2758 78.2257 61.9652 79.5201 62.8986 80.6335C63.8869 81.7889 65.0897 82.7447 66.4414 83.4489C69.2492 84.8852 72.4864 85.2603 75.5516 84.5046C78.5374 83.8192 81.1434 82.0191 82.8296 79.4772C83.6155 78.2579 84.133 76.8873 84.3479 75.4553C84.5518 74.0423 84.4482 72.6023 84.0443 71.2323C83.6377 69.8121 82.934 68.493 81.9793 67.3613C81.0003 66.2138 79.8077 65.2647 78.4668 64.5661C75.6577 63.1341 72.4222 62.7592 69.3567 63.5103C66.3699 64.2182 63.7692 66.0351 62.0888 68.5879ZM77.0396 66.8384C78.058 67.3704 78.965 68.0905 79.7119 68.96C80.4252 69.8055 80.9558 70.7878 81.2707 71.8457C81.5819 72.8889 81.6579 73.9875 81.4934 75.0632C81.3333 76.1398 80.9396 77.1691 80.3395 78.0796C79.0611 80.0249 77.0787 81.4073 74.8025 81.9406C72.4693 82.5131 70.0063 82.2274 67.8687 81.1363C66.846 80.6107 65.9378 79.8897 65.1964 79.0147C64.4773 78.173 63.9461 77.1895 63.6375 76.129C63.3269 75.0891 63.2509 73.994 63.4148 72.9215C63.5762 71.8452 63.9698 70.8162 64.5688 69.9051C65.8471 67.9599 67.8296 66.5775 70.1057 66.0441C72.4381 65.474 74.8991 65.756 77.0396 66.8384ZM63.759 54.2901C61.7303 55.041 59.8107 56.0553 58.05 57.3065C57.9849 57.3538 57.9077 57.3817 57.8273 57.387C57.7509 57.4065 57.6708 57.4065 57.5944 57.387L53.1305 55.7078C52.3742 55.4614 51.5586 55.4614 50.8023 55.7078C50.0615 55.9336 49.4238 56.4104 49.0005 57.0552L44.4252 64.1437C44.0257 64.7637 43.8876 65.5149 44.0406 66.2351C44.205 66.9727 44.6421 67.6222 45.2654 68.055L49.041 70.7195C49.1041 70.7642 49.1561 70.8227 49.1929 70.8905C49.2134 70.9594 49.2134 71.0327 49.1929 71.1016C48.8892 73.0541 48.8892 75.0413 49.1929 76.9937C49.2123 77.0628 49.2123 77.1358 49.1929 77.2049C49.1631 77.2742 49.1139 77.3335 49.0512 77.3758L45.235 80.0705C44.6138 80.5009 44.177 81.1464 44.0102 81.8803C43.8616 82.6006 43.9994 83.3501 44.3949 83.9717L48.9196 91.0804C49.3396 91.7282 49.9785 92.2059 50.7213 92.4277C51.4849 92.6681 52.3072 92.6505 53.0596 92.3775L57.5438 90.7285C57.6201 90.7085 57.7004 90.7085 57.7766 90.7285C57.8556 90.74 57.9314 90.7674 57.9993 90.8089C59.7363 92.0221 61.6248 93.0056 63.6173 93.7349C63.6928 93.7639 63.7592 93.8125 63.8096 93.8756C63.8597 93.932 63.8915 94.0021 63.9007 94.0767L64.5485 98.3801C64.6755 99.1208 65.0762 99.7877 65.6721 100.25C66.3006 100.734 67.0735 100.996 67.8687 100.994H76.9788C77.7719 100.992 78.5416 100.727 79.1653 100.24C79.7531 99.7808 80.1496 99.1221 80.2787 98.3902L80.967 94.0063C80.979 93.9342 81.0066 93.8656 81.048 93.8052C81.099 93.7451 81.1655 93.6999 81.2403 93.6745C83.2531 92.9234 85.156 91.909 86.8988 90.6581C86.966 90.6151 87.0421 90.5876 87.1215 90.5777H87.3543L91.8183 92.2065C92.5729 92.4624 93.3917 92.4624 94.1464 92.2065C94.8865 91.9849 95.5244 91.5114 95.9482 90.8692L100.524 83.7304C100.92 83.1053 101.057 82.3525 100.908 81.6289C100.741 80.895 100.305 80.2495 99.6833 79.8191L95.9077 77.1546C95.8492 77.105 95.798 77.0475 95.7559 76.9837C95.7356 76.9113 95.7356 76.8348 95.7559 76.7625C96.0594 74.8134 96.0594 72.8295 95.7559 70.8804C95.7312 70.8087 95.7312 70.7309 95.7559 70.6592C95.7888 70.5947 95.8375 70.5394 95.8976 70.4984L99.7137 67.7936C100.331 67.3614 100.764 66.7161 100.928 65.9838C101.085 65.2648 100.951 64.5134 100.554 63.8924L96.0292 56.7837C95.6059 56.1389 94.9682 55.6621 94.2274 55.4363C93.4619 55.2044 92.6414 55.2256 91.8891 55.4967L87.3846 57.3065C87.3154 57.3462 87.2368 57.3671 87.1569 57.3671C87.0769 57.3671 86.9984 57.3462 86.9291 57.3065C85.2026 56.053 83.3127 55.0383 81.3112 54.2901C81.2363 54.2647 81.1698 54.2195 81.1189 54.1594C81.0703 54.1021 81.0387 54.0324 81.0278 53.9583L80.38 49.6549C80.253 48.9142 79.8523 48.2473 79.2564 47.7847C78.6302 47.2966 77.8557 47.0343 77.0598 47.0406H67.9497C67.3783 47.0402 66.8154 47.1783 66.3098 47.4428C65.8757 47.6633 65.4982 47.9798 65.2065 48.3679C64.9243 48.7403 64.7368 49.1749 64.6599 49.6348L63.9716 53.9684C63.9636 54.0415 63.9356 54.111 63.8906 54.1694C63.854 54.2168 63.8095 54.2576 63.759 54.2901ZM66.8666 54.2901L67.5549 49.9565C67.5616 49.9051 67.5784 49.8556 67.6045 49.8107C67.6305 49.7658 67.6653 49.7265 67.7067 49.6951C67.7962 49.6248 67.9065 49.5859 68.0205 49.5845H77.1307C77.2429 49.587 77.3519 49.6219 77.4445 49.685C77.5264 49.7559 77.5832 49.8511 77.6064 49.9565L78.1935 54.2901C78.2816 54.8235 78.5123 55.3235 78.8616 55.738C79.236 56.1598 79.7086 56.4843 80.2382 56.6831C81.9947 57.3408 83.6557 58.2266 85.178 59.3175C85.646 59.6452 86.1886 59.8525 86.7571 59.9208C87.3312 59.9894 87.9135 59.924 88.4576 59.7297L92.9418 58.0807C93.0504 58.0454 93.1674 58.0454 93.2759 58.0807C93.3286 58.0945 93.3781 58.1185 93.4215 58.1512C93.465 58.184 93.5015 58.225 93.5289 58.2718L98.0536 65.3503C98.0837 65.3939 98.1039 65.4435 98.1126 65.4956C98.1213 65.5477 98.1185 65.6011 98.1043 65.652C98.0939 65.7031 98.0733 65.7517 98.0437 65.7949C98.0142 65.8381 97.9763 65.8749 97.9322 65.9033L94.1262 68.5779C93.6865 68.896 93.3377 69.3222 93.1139 69.8146C92.8808 70.3028 92.793 70.847 92.8609 71.3832C93.1292 73.0956 93.1292 74.8389 92.8609 76.5513C92.8002 77.0742 92.8879 77.6035 93.1139 78.0796C93.3358 78.576 93.6848 79.0058 94.1262 79.3264L97.9018 81.9909C97.9889 82.0567 98.0527 82.1482 98.084 82.2523C98.1048 82.3569 98.083 82.4654 98.0233 82.554L93.4581 89.6928C93.4163 89.7609 93.3569 89.8165 93.286 89.8537C93.2209 89.8835 93.1501 89.8989 93.0785 89.8989C93.0068 89.8989 92.9361 89.8835 92.871 89.8537L88.3969 88.2249C87.8539 88.0257 87.2704 87.9601 86.6963 88.0338C86.1278 88.1021 85.5853 88.3094 85.1172 88.6371C83.5819 89.7166 81.911 90.5921 80.1471 91.2413C79.6178 91.4302 79.147 91.7524 78.7806 92.1764C78.4303 92.5824 78.1992 93.0764 78.1125 93.6041L77.4242 97.9478C77.4163 97.9999 77.3979 98.05 77.3701 98.0949C77.3422 98.1398 77.3056 98.1787 77.2623 98.2092C77.1752 98.2768 77.069 98.3155 76.9586 98.3198H67.8484C67.7344 98.3184 67.6241 98.2795 67.5346 98.2092C67.4509 98.1398 67.3938 98.044 67.3727 97.9377L66.7248 93.6343C66.6384 93.1034 66.4074 92.6062 66.0568 92.1965C65.6852 91.7715 65.2117 91.4464 64.6801 91.2513C62.9189 90.6307 61.2478 89.7822 59.71 88.7276C59.242 88.3999 58.6994 88.1926 58.1309 88.1243C57.5527 88.0546 56.9661 88.1235 56.4202 88.3254L51.9462 89.9744C51.8385 90.0145 51.7198 90.0145 51.6121 89.9744C51.5041 89.9443 51.4106 89.8764 51.3489 89.7833L46.8546 82.6746C46.8329 82.6291 46.8217 82.5792 46.8217 82.5288C46.8217 82.4784 46.8329 82.4286 46.8546 82.383C46.8752 82.2769 46.937 82.183 47.0267 82.1216L50.7922 79.427C51.2351 79.1123 51.5848 78.6852 51.8044 78.1902C52.0234 77.705 52.1005 77.1685 52.0271 76.6418C51.759 74.9294 51.759 73.1861 52.0271 71.4737C52.1037 70.9479 52.03 70.4114 51.8146 69.9252C51.5927 69.4289 51.2436 68.999 50.8023 68.6784L47.0267 66.0139C46.9347 65.9529 46.8696 65.8595 46.8445 65.7525C46.8237 65.6479 46.8455 65.5394 46.9052 65.4509L51.4704 58.312C51.5302 58.2214 51.6196 58.1539 51.7235 58.121C51.832 58.0857 51.949 58.0857 52.0575 58.121L56.5316 59.7498C57.0758 59.9441 57.6581 60.0095 58.2322 59.9409C58.8012 59.8618 59.3428 59.648 59.8112 59.3175C61.3422 58.242 63.0101 57.373 64.7712 56.7334C65.301 56.5404 65.7717 56.2148 66.1377 55.7883C66.4862 55.3822 66.714 54.8878 66.7957 54.3605L66.8666 54.2901ZM52.1182 30.1587C53.4241 30.3893 54.7651 30.3309 56.0457 29.9878C57.3008 29.6506 58.461 29.0314 59.4367 28.1779C60.3731 27.36 61.0897 26.3233 61.5219 25.1615C61.8955 24.0398 61.9688 22.8409 61.7345 21.6826C61.5132 20.478 60.9794 19.3517 60.1858 18.4148C59.3671 17.436 58.3264 16.6641 57.1491 16.1625C55.9338 15.6399 54.6156 15.3959 53.2924 15.4486C51.9748 15.5043 50.6857 15.8476 49.5168 16.4541L49.0208 16.7356C47.6884 17.527 46.6294 18.7016 45.9841 20.104C45.3663 21.4585 45.2065 22.9753 45.5286 24.4275C45.8712 25.9018 46.6672 27.2336 47.8061 28.2383C49.005 29.2977 50.4834 29.9954 52.0676 30.2492L52.1182 30.1587ZM49.3852 22.1149C49.5272 21.4639 49.8377 20.8609 50.2861 20.3654C50.7528 19.8472 51.3401 19.4502 51.9968 19.2091C52.6653 18.9472 53.3871 18.8473 54.1022 18.9175C54.8178 18.9748 55.5105 19.195 56.1267 19.561C56.7203 19.9078 57.215 20.3992 57.5641 20.9888C57.9063 21.5535 58.0882 22.1998 58.0904 22.859C58.0894 23.5188 57.9149 24.1669 57.5843 24.7392C57.2301 25.3242 56.7409 25.817 56.1571 26.177L55.8939 26.3279C54.9605 26.8102 53.8919 26.9694 52.8572 26.7803C51.73 26.6168 50.7105 26.0258 50.0128 25.1314C49.6863 24.7075 49.4565 24.2182 49.3394 23.6973C49.2223 23.1764 49.2207 22.6365 49.3346 22.1149H49.3852ZM27.8751 61.1173C28.4009 60.2858 28.7457 59.3542 28.8873 58.3824C29.0278 57.4171 28.9588 56.4332 28.6849 55.4967C28.414 54.5508 27.9487 53.671 27.3184 52.9126C26.651 52.13 25.836 51.4844 24.9194 51.0123C23.0079 50.021 20.7981 49.7565 18.7042 50.2682C16.6642 50.7375 14.8865 51.9736 13.7443 53.717C13.2121 54.5454 12.8667 55.4784 12.732 56.4519C12.5866 57.4136 12.6557 58.3953 12.9345 59.3275C13.2159 60.2783 13.6914 61.1614 14.3314 61.9217C15.0018 62.7012 15.8161 63.3462 16.7304 63.822C18.6399 64.7981 20.8415 65.0518 22.9253 64.5359C24.9537 64.0649 26.7243 62.842 27.8751 61.1173ZM15.7282 58.6941C15.5375 58.0887 15.4795 57.4497 15.5581 56.8201C15.6366 56.1906 15.85 55.585 16.1838 55.0442C16.93 53.9104 18.0858 53.1042 19.4128 52.7919C20.7756 52.4585 22.2139 52.6264 23.4618 53.2645C24.0534 53.5694 24.5795 53.9861 25.0105 54.4912C25.4264 54.9833 25.7364 55.5547 25.9215 56.1703C26.0979 56.7776 26.1393 57.4157 26.043 58.0405C25.9515 58.6714 25.7236 59.2751 25.3749 59.8102C24.6298 60.9431 23.4729 61.7464 22.1458 62.0524C20.7844 62.3917 19.3452 62.2272 18.0969 61.5898C17.5126 61.2739 16.9994 60.8428 16.5886 60.3229C16.1759 59.8477 15.8659 59.2933 15.6776 58.6941H15.7282ZM8.16682 70.2168L10.4342 69.3722C10.5139 69.3518 10.5975 69.3518 10.6772 69.3722C10.7561 69.3837 10.8319 69.4111 10.8999 69.4527C11.418 69.8211 11.9589 70.157 12.5194 70.4581C13.0785 70.75 13.6529 71.0118 14.2403 71.2424C14.3151 71.2678 14.3816 71.313 14.4326 71.3731C14.4861 71.4323 14.5213 71.5056 14.5338 71.5843L14.8577 73.746C14.9847 74.4867 15.3854 75.1536 15.9813 75.6162C16.6075 76.1043 17.382 76.3666 18.1779 76.3603H23.3605C24.1494 76.3613 24.9157 76.0993 25.5368 75.6162C26.1306 75.156 26.5311 74.4931 26.6604 73.7561L27.0046 71.5641C27.0155 71.49 27.0471 71.4203 27.0957 71.3631C27.1435 71.304 27.2064 71.2589 27.2779 71.2323C28.4751 70.7411 29.6126 70.1171 30.6689 69.3722C30.7331 69.3219 30.8103 69.2905 30.8916 69.2817C30.9714 69.2621 31.0547 69.2621 31.1345 69.2817L33.3918 70.1062C34.1472 70.3576 34.9645 70.3576 35.72 70.1062C36.4581 69.8807 37.0948 69.4082 37.5218 68.7689L40.1333 64.747C40.5074 64.132 40.6305 63.3982 40.4775 62.6959C40.3107 61.962 39.8739 61.3165 39.2527 60.886L37.4408 59.5387C37.378 59.4964 37.3288 59.4371 37.2991 59.3677C37.2744 59.2961 37.2744 59.2182 37.2991 59.1465C37.4509 57.9817 37.4509 56.8023 37.2991 55.6374C37.2785 55.5685 37.2785 55.4952 37.2991 55.4263C37.3358 55.3727 37.3843 55.328 37.4408 55.2956L39.3741 53.9281C39.9916 53.4959 40.4246 52.8506 40.5888 52.1183C40.7405 51.3993 40.6063 50.6499 40.2143 50.0269L37.6331 46.005C37.2073 45.3626 36.5706 44.8865 35.8313 44.6577C35.0659 44.4257 34.2453 44.4469 33.493 44.718L31.2256 45.5525C31.1465 45.5763 31.0632 45.5832 30.9813 45.5728C30.8993 45.5624 30.8204 45.535 30.7499 45.4922C29.7039 44.7926 28.5837 44.2092 27.4095 43.7527C27.3354 43.7211 27.2696 43.6729 27.2172 43.612C27.1685 43.5547 27.137 43.485 27.1261 43.4109L26.792 41.2391C26.6717 40.496 26.2697 39.8268 25.6684 39.3689C25.04 38.885 24.267 38.6232 23.4719 38.6248H18.2082C17.633 38.6291 17.0671 38.7704 16.5583 39.0371C16.1257 39.2599 15.7487 39.5759 15.4549 39.9621C15.1767 40.3368 14.9897 40.7704 14.9083 41.229L14.5642 43.431C14.5521 43.4999 14.5244 43.5653 14.4832 43.622C14.4341 43.6797 14.3716 43.7246 14.301 43.7527C13.1065 44.2165 11.9688 44.8136 10.91 45.5324C10.8384 45.574 10.7593 45.6013 10.6772 45.6129C10.6009 45.6329 10.5207 45.6329 10.4444 45.6129L8.17694 44.7884C7.42153 44.537 6.60421 44.537 5.84879 44.7884C5.10667 45.0061 4.46752 45.4804 4.04701 46.1257L1.43543 50.1476C1.04 50.7691 0.902151 51.5186 1.05078 52.2389C1.25169 52.9467 1.70039 53.56 2.31608 53.9684L4.21909 55.2956C4.28559 55.3408 4.33815 55.4034 4.37092 55.4766C4.39121 55.5489 4.39121 55.6254 4.37092 55.6978C4.21906 56.8592 4.21906 58.0353 4.37092 59.1968C4.39071 59.2692 4.39071 59.3456 4.37092 59.418C4.33815 59.4911 4.28559 59.5538 4.21909 59.599L2.29583 60.9664C1.66953 61.3919 1.2312 62.0396 1.07102 62.7763C0.918034 63.4966 1.05618 64.2477 1.45567 64.8677L4.02676 68.8896C4.45129 69.5374 5.09328 70.0148 5.83867 70.2369C6.59582 70.4848 7.41412 70.4777 8.16682 70.2168ZM3.92554 63.5807C3.86585 63.4921 3.84401 63.3836 3.8648 63.279C3.88826 63.174 3.94943 63.0811 4.03688 63.0176L5.97026 61.6502C6.41179 61.3383 6.76129 60.9148 6.9825 60.4235C7.20423 59.9497 7.28836 59.4239 7.22544 58.9052C7.10402 57.9471 7.10402 56.9776 7.22544 56.0195C7.29568 55.4985 7.21491 54.9683 6.99262 54.4912C6.76387 54.0018 6.41598 53.5768 5.98038 53.2545L4.03688 51.9172C3.94722 51.8558 3.88542 51.762 3.8648 51.6558C3.84297 51.6084 3.83166 51.557 3.83166 51.5049C3.83166 51.4529 3.84297 51.4014 3.8648 51.3541L6.46626 47.3322C6.53091 47.242 6.62324 47.175 6.72944 47.1412C6.83795 47.1059 6.95497 47.1059 7.06348 47.1412L9.32077 47.9657C9.85921 48.1544 10.4336 48.2197 11.0011 48.1567C11.561 48.0862 12.0975 47.8902 12.5701 47.5836C13.4433 46.9864 14.3844 46.4936 15.374 46.1156C15.8881 45.9147 16.3437 45.5899 16.7 45.1705C17.0401 44.768 17.264 44.2816 17.3478 43.7628L17.692 41.5709C17.7131 41.4646 17.7702 41.3688 17.8539 41.2994C17.9443 41.232 18.0548 41.1966 18.1677 41.1988H23.3504C23.465 41.1969 23.5764 41.2362 23.6642 41.3094C23.7515 41.3757 23.8095 41.473 23.8262 41.5809L24.2817 43.6824C24.3644 44.2094 24.5921 44.7035 24.9396 45.1101C25.2969 45.5328 25.7568 45.8581 26.2758 46.0553C27.2468 46.4334 28.1734 46.9155 29.0392 47.4931C29.5074 47.8082 30.046 48.005 30.6082 48.0662C31.1756 48.1343 31.7512 48.0689 32.2885 47.8752L34.5559 47.0406C34.6644 47.0053 34.7814 47.0053 34.8899 47.0406C34.9961 47.0744 35.0885 47.1414 35.1531 47.2317L37.7242 51.2536C37.7598 51.351 37.7598 51.4578 37.7242 51.5552C37.7138 51.6064 37.6932 51.655 37.6637 51.6981C37.6341 51.7413 37.5962 51.7782 37.5521 51.8066L35.6187 53.174C35.1814 53.4904 34.833 53.9127 34.6065 54.4007C34.3964 54.8848 34.3262 55.4176 34.4041 55.9391C34.5305 56.9002 34.5305 57.8737 34.4041 58.8348C34.3321 59.3399 34.4021 59.855 34.6065 60.3229C34.8306 60.8124 35.1795 61.2353 35.6187 61.5496L37.542 62.9372C37.6274 62.9981 37.6884 63.0872 37.7141 63.1885C37.7249 63.2403 37.7252 63.2937 37.7147 63.3455C37.7043 63.3974 37.6834 63.4466 37.6533 63.4902L35.0519 67.5624C35.0102 67.6304 34.9507 67.686 34.8798 67.7232C34.8131 67.738 34.744 67.738 34.6774 67.7232C34.6074 67.7392 34.5347 67.7392 34.4648 67.7232L32.1974 66.8988C31.6612 66.7005 31.0845 66.6349 30.5171 66.7077C29.9576 66.7673 29.4219 66.9643 28.9582 67.2808C28.0768 67.8705 27.1332 68.3627 26.1442 68.7488C25.635 68.9487 25.1831 69.2698 24.8283 69.6839C24.4832 70.0844 24.2556 70.5713 24.1703 71.0916L23.8262 73.2936C23.8062 73.3974 23.7486 73.4905 23.6642 73.555C23.5795 73.6267 23.4718 73.6659 23.3605 73.6656H18.2082C18.0942 73.6642 17.9839 73.6253 17.8944 73.555C17.8108 73.4898 17.7533 73.3971 17.7325 73.2936L17.4086 71.1217C17.3211 70.5991 17.0939 70.1095 16.7506 69.704C16.3963 69.2595 15.9326 68.9132 15.4043 68.6985C14.4203 68.3632 13.4792 67.9144 12.6004 67.3613C12.1309 67.0486 11.593 66.8521 11.0315 66.7881C10.464 66.7251 9.88957 66.7905 9.35114 66.9792L7.0736 67.8037C6.96974 67.8454 6.85456 67.8501 6.74757 67.8171C6.64059 67.7841 6.54836 67.7155 6.4865 67.6227L3.92554 63.5807ZM40.6091 41.601C41.2243 42.0782 41.9846 42.3335 42.7651 42.325C43.5452 42.3303 44.3044 42.0754 44.9212 41.601L47.6644 39.4292C49.1966 39.8831 50.7756 40.163 52.3713 40.2637L54.0212 43.2299C54.4018 43.8826 55.0051 44.3784 55.7218 44.6275C56.4601 44.8984 57.2679 44.9197 58.0196 44.6878L64.9635 42.5261C65.6887 42.3074 66.3148 41.8454 66.735 41.2189C67.1145 40.621 67.252 39.9025 67.1196 39.208L66.4212 35.9603C67.6039 35.0023 68.6615 33.9011 69.5692 32.6825L73.2032 32.8534C73.9885 32.8748 74.7583 32.634 75.3896 32.1697C76.002 31.7478 76.432 31.1125 76.5942 30.39L78.0012 23.8443C78.1346 23.1498 77.9971 22.4309 77.6165 21.8334C77.2016 21.1956 76.5748 20.7225 75.8451 20.4961L72.4035 19.4303C72.0759 17.9727 71.5516 16.5657 70.8447 15.2475L72.8691 12.4724C73.2924 11.8921 73.4704 11.1704 73.3651 10.4615C73.2473 9.73319 72.8568 9.076 72.2719 8.62147L66.6844 4.22755C66.065 3.75793 65.3074 3.50356 64.5283 3.50361C63.7485 3.49977 62.9897 3.75455 62.3722 4.22755L59.6189 6.39937C58.0904 5.94463 56.5146 5.66464 54.9221 5.56483L53.2621 2.62885C52.8993 1.97867 52.3139 1.47924 51.6121 1.22118C50.8616 0.94106 50.038 0.919812 49.2738 1.16085L42.3198 3.33268C42.125 3.39498 41.9355 3.4723 41.7529 3.56394C41.1752 3.8647 40.7051 4.33522 40.4066 4.91127C40.1235 5.47054 40.0414 6.10912 40.1738 6.72113L40.8621 9.95875C39.68 10.9143 38.6255 12.0158 37.7242 13.2366L34.0903 13.0657C33.3073 13.0267 32.5339 13.2497 31.8937 13.6991C31.282 14.1171 30.8518 14.7492 30.6891 15.4688L29.3429 22.0144C29.2524 22.3705 29.2353 22.7412 29.2927 23.104C29.3502 23.4669 29.4808 23.8145 29.6769 24.1259C30.0954 24.7581 30.7213 25.2271 31.4483 25.4531L34.8798 26.529C35.2145 27.9414 35.7353 29.3038 36.4285 30.581L34.4041 33.3561C33.9818 33.9369 33.8039 34.6582 33.9081 35.3671C34.0438 36.1009 34.4565 36.7555 35.062 37.197L40.6091 41.601ZM39.8499 32.2401C40.1604 31.8094 40.3428 31.3007 40.3763 30.7721C40.4055 30.2428 40.2826 29.7163 40.022 29.2538C39.3603 28.0897 38.8824 26.8316 38.6048 25.5235C38.4892 24.9981 38.23 24.5145 37.8558 24.1259C37.4638 23.7215 36.9716 23.4267 36.4285 23.2712L33.1388 22.2658L34.4041 16.5748L37.876 16.7457C38.4233 16.757 38.9661 16.6471 39.4652 16.424C39.965 16.1992 40.4001 15.8535 40.7305 15.4185C41.529 14.2802 42.4907 13.264 43.5851 12.4021C44.036 12.0787 44.3866 11.6363 44.5973 11.1251C44.7885 10.6352 44.8307 10.1003 44.7188 9.58673L44.0507 6.48987L50.0735 4.60963L51.6121 7.4149C51.8815 7.89309 52.2769 8.28936 52.7559 8.56114C53.2477 8.85175 53.8039 9.01752 54.3755 9.04377C55.8441 9.09919 57.2981 9.35289 58.6978 9.79788C59.2448 9.9654 59.8238 10.0033 60.3882 9.90848C60.949 9.80684 61.4768 9.5723 61.9268 9.22476L64.5485 7.15348L69.3263 10.9441L67.4334 13.5885C67.1193 14.0249 66.9367 14.541 66.9071 15.0766C66.877 15.6027 66.9999 16.1263 67.2613 16.5848C67.9265 17.7484 68.4079 19.0065 68.6886 20.3151C68.798 20.8377 69.0542 21.3188 69.4275 21.7027C69.8181 22.106 70.3059 22.4037 70.8447 22.5674L74.1243 23.5729L72.8691 29.2538L69.3972 29.0929C68.8256 29.063 68.2554 29.1735 67.7371 29.4147C67.2335 29.6332 66.797 29.9801 66.4718 30.4201C65.6711 31.5566 64.7097 32.5725 63.6173 33.4366C63.222 33.7773 62.9222 34.2137 62.7467 34.7035C62.5651 35.199 62.5231 35.7344 62.6253 36.2519L63.2934 39.3488L57.23 41.2189L55.6611 38.4137C55.3881 37.9382 54.9935 37.5427 54.5172 37.2674C54.0249 36.9796 53.4685 36.8172 52.8977 36.7949C52.1716 36.7548 51.4484 36.6742 50.7315 36.5535C50.003 36.4262 49.2829 36.255 48.5754 36.0407C48.0257 35.8686 47.4424 35.8306 46.8748 35.9301C46.3172 36.0261 45.7921 36.2575 45.3464 36.6038L42.7247 38.6751L37.957 34.8845L39.8499 32.2401Z" fill="#FBCD3F"/>
</svg>
